<?xml version="1.0" encoding="UTF-8" standalone="no"?>
<svg width="267px" height="58px" viewBox="0 0 267 58" version="1.1" xmlns="http://www.w3.org/2000/svg" xmlns:xlink="http://www.w3.org/1999/xlink" xmlns:sketch="http://www.bohemiancoding.com/sketch/ns">
    <!-- Generator: Sketch 3.3.3 (12072) - http://www.bohemiancoding.com/sketch -->
    <title>cornell</title>
    <desc>Created with Sketch.</desc>
    <defs>
        <path id="path-1" d="M0,0.422916667 L57.5766,0.422916667 L57.5766,57.971 L0,57.971"></path>
    </defs>
    <g id="Page-1" stroke="none" stroke-width="1" fill="none" fill-rule="evenodd" sketch:type="MSPage">
        <g id="landing" sketch:type="MSArtboardGroup" transform="translate(-466.000000, -500.000000)">
            <g id="cornell" sketch:type="MSLayerGroup" transform="translate(466.000000, 500.000000)">
                <path d="M22.0129333,44.5208 C25.29235,47.10615 28.52295,48.4730167 28.6597333,48.5290833 L28.9096167,48.6349333 L29.1599833,48.5276333 C29.2967667,48.4677 32.51625,47.0819833 35.7855167,44.5246667 C40.1882,41.0804333 42.5149667,37.1601167 42.5149667,33.1837333 L42.5111,15.0036333 L15.2752667,15.0055667 L15.2743,32.8695667 C15.2743,37.01125 17.6034833,41.0388667 22.0129333,44.5208 L22.0129333,44.5208 Z M28.2895,38.9479667 C28.1493333,38.89915 27.9946667,38.8629 27.8018167,38.8629 L27.7708833,38.8629 C27.10775,38.8629 26.6123333,38.9088167 26.0859833,38.9557 C25.5668833,39.00355 25.0289333,39.05285 24.23965,39.0697667 C23.8776333,39.0775 23.5518667,39.0746 23.3053667,39.0697667 L23.3053667,30.5205667 L23.4179833,30.5205667 C23.74665,30.5234667 24.14975,30.5205667 24.6538667,30.5113833 C25.0821,30.4997833 25.5509333,30.4490333 26.0946833,30.3910333 C26.3933833,30.3581667 26.7119,30.3257833 27.0686,30.2943667 C27.6341,30.2325 28.1551333,30.334 28.1551333,30.334 C28.2083,30.3460833 28.246,30.3625167 28.2895,30.3770167 L28.2895,38.9479667 L28.2895,38.9479667 Z M41.2239833,33.1837333 C41.2239833,40.6261 32.0846333,45.6711333 29.39295,46.9940167 L29.39295,40.223 C29.4441833,40.1746667 29.4905833,40.12585 29.5278,40.0828333 C29.66265,39.92575 29.7472333,39.8319833 30.0053333,39.8305333 C30.6273833,39.8397167 31.0957333,39.87065 31.6293333,39.91995 C32.1397333,39.9649 32.7158667,40.0190333 33.5380167,40.0369167 C34.3480833,40.0572167 34.9798,40.02145 35.0059,40.0190333 L35.4641,39.9948667 L35.4636167,37.4660667 L36.5351667,37.4660667 L36.5351667,36.1166 L35.4631333,36.1166 L35.46265,33.66755 L36.5351667,33.66755 L36.5351667,32.3200167 L35.4621667,32.3200167 L35.4612,29.5688833 L34.9904333,29.55825 C34.8169167,29.5534167 34.61875,29.5534167 34.38385,29.5543833 C34.0551833,29.5500333 33.6651333,29.5543833 33.1706833,29.5427833 C32.7854667,29.5345667 32.3330667,29.48575 31.8110667,29.4296833 C31.5075333,29.3973 31.1803167,29.3629833 30.8405333,29.3325333 C30.1087667,29.2484333 29.4630333,29.3818333 29.4243667,29.3915 C29.4127667,29.3939167 29.40455,29.3977833 29.39295,29.4006833 L29.39295,26.8022833 L41.2230167,26.8022833 L41.2239833,33.1837333 L41.2239833,33.1837333 Z M29.39295,38.9900167 L29.39295,30.4190667 C29.4557833,30.3895833 29.5302167,30.3601 29.6322,30.3369 C29.638,30.3349667 30.1624167,30.22815 30.7429,30.2963 C31.0889667,30.3257833 31.4094167,30.3581667 31.7090833,30.39345 C32.25235,30.4490333 32.7207,30.4997833 33.1474833,30.5113833 C33.5781333,30.5205667 33.9348333,30.5205667 34.23595,30.5205667 L34.4945333,30.5205667 L34.4955,39.0697667 C34.2494833,39.0746 33.9246833,39.0794333 33.5612167,39.0697667 C32.7729,39.05285 32.23495,39.00355 31.71585,38.95715 C31.1841833,38.9073667 30.7071333,38.86145 30.0024333,38.8629 C29.75255,38.8629 29.5587333,38.9175167 29.39295,38.9900167 L29.39295,38.9900167 Z M16.5643167,16.2955833 L41.22205,16.2926833 L41.2225333,25.5113 L16.5638333,25.5113 L16.5643167,16.2955833 L16.5643167,16.2955833 Z M16.56335,26.8022833 L28.2895,26.8022833 L28.2895,29.3750667 C28.0981,29.3412333 27.5611167,29.2629333 26.97145,29.3315667 C26.6224833,29.3629833 26.2976833,29.3973 25.9936667,29.4296833 C25.4697333,29.48575 25.01975,29.5345667 24.6306667,29.5427833 C24.1367,29.5543833 23.7432667,29.5548667 23.4179833,29.5543833 C23.1845333,29.5543833 22.98395,29.5543833 22.80995,29.55825 L22.3377333,29.5688833 L22.3377333,32.0527333 L21.1796667,32.0527333 L21.1796667,33.4026833 L22.3377333,33.4026833 L22.3377333,35.8865333 L21.1796667,35.8865333 L21.1796667,37.2321333 L22.3377333,37.2321333 L22.3377333,39.9948667 L22.794,40.0190333 C22.8210667,40.02145 23.4498833,40.0538333 24.2638167,40.0369167 C25.085,40.0190333 25.6621,39.9649 26.1725,39.91995 C26.6974,39.8725833 27.15125,39.8305333 27.7708833,39.8305333 C28.014,39.8276333 28.0952,39.9035167 28.2261833,40.0688167 C28.2440667,40.09105 28.26775,40.1166667 28.2895,40.1413167 L28.2895,46.9345667 C25.4455667,45.5362833 16.5628667,40.5502167 16.5628667,32.8695667 L16.56335,26.8022833 L16.56335,26.8022833 Z" id="Fill-1" fill="#646464" sketch:type="MSShapeGroup"></path>
                <path d="M26.8588333,17.2182667 L19.9771333,17.2182667 L19.9771333,17.7006333 C19.9747167,19.2038 19.9727833,21.7451667 19.9829333,21.86165 C20.0153167,22.3826833 20.3604167,22.8544167 21.0346667,23.3034333 C21.8655167,23.8607167 23.1043,24.5862 23.1565,24.6171333 L23.3923667,24.7553667 L23.6301667,24.6243833 C23.6867167,24.59345 25.0231333,23.8650667 25.8583333,23.3034333 C26.8346667,22.6528667 26.8511,22.0593333 26.8578667,21.86165 C26.8660833,21.75435 26.8636667,19.5397167 26.8588333,17.7006333 L26.8588333,17.2182667 L26.8588333,17.2182667 Z M20.94525,18.18445 L25.8936167,18.18445 C25.8941,18.5865833 25.8945833,19.0182 25.8945833,19.4377333 L20.9438,19.4377333 C20.9442833,19.0182 20.9447667,18.5870667 20.94525,18.18445 L20.94525,18.18445 Z M25.8912,21.8345833 C25.8849167,22.0748 25.57655,22.3295167 25.3203833,22.49965 C24.72685,22.8988833 23.8331667,23.4063833 23.4092833,23.6441833 C23.0057,23.4020333 22.1680833,22.8988833 21.57455,22.4991667 C21.1874,22.2420333 20.9583,21.98635 20.9457333,21.7983333 C20.9442833,21.7277667 20.9433167,21.15405 20.9433167,20.4053667 L25.8950667,20.4053667 C25.8950667,21.1588833 25.8941,21.7432333 25.8912,21.8345833 L25.8912,21.8345833 Z" id="Fill-2" fill="#646464" sketch:type="MSShapeGroup"></path>
                <path d="M38.57,17.0138167 L31.5341167,17.0138167 L31.5341167,17.4966667 C31.5326667,19.3855333 31.5326667,21.6567167 31.5394333,21.7741667 C31.5785833,22.2985833 31.9299667,22.7804667 32.6167833,23.2377 C33.4664833,23.8080333 34.7352333,24.5523667 34.78985,24.5842667 L35.0252333,24.7225 L35.2644833,24.5900667 C35.3215167,24.5610667 36.6937,23.8152833 37.5511333,23.2377 C38.5526,22.5702167 38.5666167,21.9641167 38.57,21.7635333 C38.57725,21.6567167 38.5753167,19.3836 38.5709667,17.4961833 L38.57,17.0138167 L38.57,17.0138167 Z M37.60285,21.7437167 C37.59705,21.9926333 37.2799833,22.2555667 37.01415,22.4363333 C36.4008,22.8452333 35.47425,23.3686833 35.04215,23.61035 C34.63035,23.3657833 33.7680833,22.8452333 33.1557,22.4363333 C32.9672,22.3092167 32.5254333,21.9844167 32.50465,21.7016667 C32.5036833,21.6755667 32.5032,21.5856667 32.5027167,21.4474333 L34.9411333,19.68665 L37.6062333,21.4629 C37.6052667,21.6103167 37.6043,21.7094 37.60285,21.7437167 L37.60285,21.7437167 Z M34.9198667,18.5078 L32.4998167,20.2565 C32.49885,19.5614667 32.49885,18.7233667 32.5003,17.9809667 L37.60285,17.9809667 C37.6052667,18.7373833 37.6081667,19.5953 37.6081667,20.3024167 L34.9198667,18.5078 L34.9198667,18.5078 Z" id="Fill-3" fill="#646464" sketch:type="MSShapeGroup"></path>
                <path d="M30.64865,32.3340333 L31.1087833,32.3804333 C31.4219833,32.4166833 31.6921667,32.4427833 31.92755,32.4485833 L33.3504833,32.4896667 L33.3727167,31.5196167 L31.9512333,31.48095 C31.7385667,31.4766 31.49545,31.4505 31.2122167,31.42005 L30.7419333,31.3726833 C30.6162667,31.35915 30.4959167,31.3567333 30.3857167,31.3615667 L30.4277667,32.3263 C30.4939833,32.3229167 30.5679333,32.3263 30.64865,32.3340333" id="Fill-4" fill="#646464" sketch:type="MSShapeGroup"></path>
                <path d="M31.9584833,34.162 C31.7559667,34.1557167 31.523,34.1296167 31.25765,34.1020667 C31.0976667,34.0837 30.9275333,34.0658167 30.7545,34.05035 C30.63125,34.0373 30.51525,34.0353667 30.4065,34.0373 L30.4219667,35.0049333 C30.4906,35.0025167 30.5679333,35.0049333 30.6578333,35.0136333 C30.8361833,35.03055 31.001,35.0474667 31.1551833,35.0639 C31.4514667,35.0953167 31.71005,35.1219 31.93625,35.1286667 C32.2325333,35.13205 32.6651167,35.1460667 32.9870167,35.15235 L33.3587,35.1625 L33.3809333,34.1977667 L33.0107,34.1856833 C32.6897667,34.1784333 32.2542833,34.1653833 31.9584833,34.162" id="Fill-5" fill="#646464" sketch:type="MSShapeGroup"></path>
                <path d="M31.9589667,36.8382167 C31.7521,36.8309667 31.5172,36.8063167 31.2455667,36.7758667 C31.0875167,36.7584667 30.9231833,36.74155 30.7564333,36.7260833 C30.6278667,36.71255 30.5099333,36.7082 30.4007,36.71255 L30.4297,37.6777667 C30.4959167,37.6777667 30.5698667,37.6777667 30.6578333,37.6884 C30.82845,37.70435 30.99085,37.7236833 31.1406833,37.73625 C31.4427667,37.7705667 31.7052167,37.79715 31.9348,37.8044 L32.3354833,37.8140667 C32.74535,37.8251833 33.20065,37.8358167 33.3596667,37.8396833 L33.379,36.8710833 C33.2190167,36.8677 32.76565,36.859 32.3620667,36.8464333 L31.9589667,36.8382167" id="Fill-6" fill="#646464" sketch:type="MSShapeGroup"></path>
                <path d="M25.8443167,32.4369833 C26.0801833,32.4331167 26.3503667,32.4036333 26.6630833,32.3688333 C26.8080833,32.35385 26.9617833,32.3383833 27.1256333,32.3200167 C27.2010333,32.3151833 27.2778833,32.3098667 27.3450667,32.3127667 L27.3595667,31.3441667 C27.26,31.3441667 27.1488333,31.3485167 27.0357333,31.35915 C26.8651167,31.37365 26.7061,31.3920167 26.5582,31.4094167 C26.27835,31.43745 26.03765,31.4669333 25.8225667,31.4688667 L24.4010833,31.5056 L24.4238,32.4742 L25.8443167,32.4369833" id="Fill-7" fill="#646464" sketch:type="MSShapeGroup"></path>
                <path d="M26.5669,34.0837 C26.2865667,34.11415 26.0429667,34.1412167 25.8303,34.1465333 L24.4088167,34.18375 L24.43105,35.1518667 L25.85205,35.11465 C26.0903333,35.10885 26.3590667,35.0784 26.6717833,35.0455333 L27.1256333,34.9981667 C27.1986167,34.9923667 27.2706333,34.9889833 27.3373333,34.9918833 L27.3813167,34.0252167 C27.2807833,34.0203833 27.1652667,34.0252167 27.0420167,34.0353667 L26.5669,34.0837" id="Fill-8" fill="#646464" sketch:type="MSShapeGroup"></path>
                <path d="M26.5678667,36.7584667 C26.2865667,36.7898833 26.0439333,36.8184 25.7834167,36.8222667 C25.3334333,36.83435 24.621,36.8565833 24.41075,36.8619 L24.4286333,37.8280833 C24.63985,37.8218 25.3580833,37.80295 25.8535,37.7899 C26.0893667,37.7836167 26.3590667,37.75365 26.67275,37.7203 L27.14255,37.6734167 C27.2140833,37.6652 27.2856167,37.66375 27.3508667,37.6652 L27.36585,36.6995 C27.2633833,36.6966 27.1498,36.6995 27.0434667,36.7091667 L26.5678667,36.7584667" id="Fill-9" fill="#646464" sketch:type="MSShapeGroup"></path>
                <path d="M4.36305,29.3654 C5.57235,29.3654 6.31378333,28.5915833 6.40368333,27.2479167 C6.41673333,26.9840167 6.3974,26.6916 6.33166667,26.332 L6.30895,26.2140667 L5.31086667,26.2048833 L5.40415,26.4098167 C5.47568333,26.5698 5.51821667,26.9071667 5.50178333,27.1899167 C5.45683333,27.8893 4.93096667,28.3165667 4.19001667,28.2658167 C3.4365,28.2179667 2.958,27.7293167 2.99811667,27.0473333 C3.0131,26.8259667 3.0508,26.5809167 3.23446667,26.30735 L3.35916667,26.1140167 L2.37413333,25.9695 L2.32821667,26.0681 C2.20303333,26.3344167 2.11796667,26.6742 2.10008333,26.97435 C2.01356667,28.3794 2.78931667,29.2726 4.17745,29.3596 C4.2398,29.3629833 4.30215,29.3654 4.36305,29.3654" id="Fill-10" fill="#646464" sketch:type="MSShapeGroup"></path>
                <path d="M4.5211,24.6190667 C4.78886667,24.6935 5.04986667,24.73265 5.29636667,24.73265 C6.21421667,24.73265 6.8933,24.1966333 7.1601,23.2618667 C7.31863333,22.7036167 7.27368333,22.17485 7.02911667,21.7388833 C6.76183333,21.2545833 6.27608333,20.9080333 5.62986667,20.72485 C5.37176667,20.6513833 5.12091667,20.6151333 4.8836,20.6151333 C3.95946667,20.6151333 3.27796667,21.1506667 3.01406667,22.0839833 C2.6709,23.2850667 3.24993333,24.2551167 4.5211,24.6190667 M3.88213333,22.3295167 C4.0281,21.8084833 4.47083333,21.69925 4.8169,21.69925 C4.98026667,21.69925 5.15813333,21.72535 5.33261667,21.7741667 C5.75505,21.8959667 6.08468333,22.1163667 6.23355,22.3826833 C6.33843333,22.5702167 6.35728333,22.7814333 6.29251667,23.0153667 C6.14268333,23.53785 5.70768333,23.6470833 5.3679,23.6470833 C5.19583333,23.6470833 5.01168333,23.61905 4.81786667,23.5649167 C4.2688,23.4078333 3.69315,22.9912 3.88213333,22.3295167" id="Fill-11" fill="#646464" sketch:type="MSShapeGroup"></path>
                <path d="M8.68695,19.1922 L7.26256667,18.4304667 L7.30848333,18.3425 C7.44236667,18.0873 7.5458,18.1095333 7.76571667,18.1361167 L9.1553,18.3135 L9.70388333,17.2772333 L7.85706667,17.0848667 C7.7343,17.0756833 7.59945,17.07955 7.4965,17.1046833 C7.51196667,16.7107667 7.30751667,16.3415 6.9339,16.1423667 C6.72461667,16.0321667 6.52403333,15.9756167 6.33601667,15.9756167 C5.66128333,15.9756167 5.30313333,16.65615 4.98558333,17.2574167 L4.50225,18.16415 L8.1896,20.1289 L8.68695,19.1922 M6.5163,17.9137833 L6.46313333,18.0080333 L5.7942,17.65085 L5.84446667,17.5570833 C6.01315,17.2458167 6.19391667,16.9877167 6.47956667,17.139 C6.58155,17.1941 6.64051667,17.2574167 6.66565,17.3366833 C6.71833333,17.5053667 6.6033,17.74655 6.5163,17.9137833" id="Fill-12" fill="#646464" sketch:type="MSShapeGroup"></path>
                <path d="M10.9905167,15.5589833 L9.09585,13.98815 L11.7831833,14.5995667 L12.5318667,13.69815 L9.31721667,11.0296667 L8.66326667,11.8223333 L10.55745,13.39365 L7.87398333,12.7735333 L7.12046667,13.6822 L10.3356,16.3473 L10.9905167,15.5589833" id="Fill-13" fill="#646464" sketch:type="MSShapeGroup"></path>
                <path d="M15.6368,11.0436833 L15.0679167,10.3423667 L13.9016333,11.2921167 L13.3951,10.6686167 L14.4594,9.80586667 L13.8852,9.106 L12.8257333,9.96971667 L12.4057167,9.4511 L13.5623333,8.50956667 L12.9924833,7.80873333 L11.0151667,9.42016667 L13.6498167,12.65995 L15.6368,11.0436833" id="Fill-14" fill="#646464" sketch:type="MSShapeGroup"></path>
                <path d="M19.1042333,8.97405 L18.6581167,8.1838 L17.3647167,8.91266667 L15.7590833,6.06051667 L14.8339833,6.58348333 L16.8804167,10.2205667 L19.1042333,8.97405" id="Fill-15" fill="#646464" sketch:type="MSShapeGroup"></path>
                <path d="M22.6108167,7.63038333 L22.301,6.78165 L20.9041667,7.28818333 L19.7900833,4.21128333 L18.79345,4.5733 L20.213,8.49748333 L22.6108167,7.63038333" id="Fill-16" fill="#646464" sketch:type="MSShapeGroup"></path>
                <path d="M26.8153333,6.93921667 C26.8984667,6.93921667 26.9840167,6.93438333 27.0705333,6.92616667 C27.6486,6.87735 28.0729667,6.6961 28.3359,6.38773333 C28.5833667,6.09241667 28.6872833,5.684 28.6437833,5.17553333 L28.4277333,2.5549 L27.3711667,2.63996667 L27.56885,5.02425 C27.6379667,5.86525 27.3006,6.00058333 26.9994833,6.0291 C26.9729,6.0291 26.9468,6.032 26.9226333,6.032 C26.6751667,6.032 26.33635,5.93871667 26.2691667,5.13155 L26.0739,2.7492 L25.01975,2.83668333 L25.2358,5.4578 C25.31555,6.42543333 25.8593,6.93921667 26.8153333,6.93921667" id="Fill-17" fill="#646464" sketch:type="MSShapeGroup"></path>
                <path d="M31.5959833,4.4457 L32.4983667,7.05376667 L33.6607833,7.21133333 L34.2219333,3.0711 L33.2054833,2.93383333 L32.8763333,5.37563333 L31.9749167,2.76805 L30.8105667,2.61 L30.25135,6.75168333 L31.2668333,6.88846667 L31.5959833,4.4457" id="Fill-18" fill="#646464" sketch:type="MSShapeGroup"></path>
                <path d="M37.3568333,3.96575 L36.3476333,3.64578333 L35.0958,7.63376667 L36.10645,7.94938333 L37.3568333,3.96575" id="Fill-19" fill="#646464" sketch:type="MSShapeGroup"></path>
                <path d="M42.5923,6.31233333 L41.6382,5.8319 L39.6231833,7.8822 L40.0702667,5.04261667 L39.0605833,4.52738333 L38.4404667,8.8972 L39.4685167,9.41436667 L42.5923,6.31233333" id="Fill-20" fill="#646464" sketch:type="MSShapeGroup"></path>
                <path d="M43.6372667,12.2834333 L44.19455,11.5748667 L43.0065167,10.6468667 L43.5019333,10.0132167 L44.5778333,10.8571167 L45.1336667,10.1461333 L44.05535,9.30223333 L44.46715,8.77685 L45.6435833,9.69566667 L46.20135,8.98758333 L44.1911667,7.41385 L41.6188667,10.7039 L43.6372667,12.2834333" id="Fill-21" fill="#646464" sketch:type="MSShapeGroup"></path>
                <path d="M45.3656667,14.0350333 L46.57835,12.9712167 L46.6460167,13.0495167 C46.80165,13.2273833 46.8064833,13.3027833 46.6779167,13.5507333 L46.02155,14.7871 L46.7953667,15.66725 L47.6305667,14.0031333 C47.6590833,13.9427167 47.7190167,13.8131833 47.7388333,13.6638333 C48.0965,13.8204333 48.5266667,13.7493833 48.8379333,13.47775 C49.73645,12.6870167 49.0177333,11.8663167 48.4933167,11.2684333 L47.8069833,10.4864 L44.6653167,13.2418833 L45.3656667,14.0350333 M47.8243833,11.8784 L47.8964,11.9605667 C48.0452667,12.1331167 48.1999333,12.3269333 48.1859167,12.4874 C48.1839833,12.5608667 48.1429,12.6299833 48.0626667,12.70055 C47.98485,12.7682167 47.90945,12.8030167 47.8321167,12.8030167 C47.65425,12.8030167 47.46865,12.61935 47.3275167,12.4593667 L47.25695,12.3781667 L47.8243833,11.8784" id="Fill-22" fill="#646464" sketch:type="MSShapeGroup"></path>
                <path d="M49.2584333,17.3772833 C49.0530167,17.4981167 48.79685,17.2931833 48.6798833,17.09695 C48.5498667,16.8751 48.47495,16.5971833 48.4657667,16.2970333 L48.45755,16.07905 L47.502,16.5203333 L47.5696667,16.7339667 C47.6639167,17.0568333 47.7224,17.2521 47.9244333,17.5943 C48.2642167,18.1694667 48.7166167,18.4865333 49.1956,18.4865333 C49.4189,18.4865333 49.6441333,18.4198333 49.8674333,18.2849833 C50.6069333,17.8485333 50.49045,17.1539833 50.4068333,16.6469667 C50.34835,16.2883333 50.3198333,16.066 50.4691833,15.97755 C50.5436167,15.9355 50.6127333,15.9147167 50.6784667,15.9147167 C50.8698667,15.9147167 50.9969833,16.0959667 51.0433833,16.1723333 C51.1647,16.3782333 51.24445,16.6218333 51.2778,16.8731667 L51.3039,17.0674667 L52.17245,16.6740333 L52.14925,16.559 C52.08835,16.2632 51.9684833,15.9674 51.7857833,15.65565 C51.3304833,14.8905333 50.5837333,14.6425833 49.8858,15.0558333 C49.17095,15.4773 49.2739,16.1568667 49.3512333,16.65035 C49.4150333,17.04185 49.4411333,17.2704667 49.2584333,17.3772833" id="Fill-23" fill="#646464" sketch:type="MSShapeGroup"></path>
                <path d="M49.73645,21.1588833 L53.6040833,19.5808 L53.2029167,18.6001167 L49.3377,20.1786833 L49.73645,21.1588833" id="Fill-24" fill="#646464" sketch:type="MSShapeGroup"></path>
                <path d="M53.6185833,22.5310667 L50.4392167,23.31165 L50.6910333,24.3435667 L53.8713667,23.5586333 L54.1362333,24.6272833 L55.0101,24.4122 L54.23145,21.2492667 L53.3532333,21.4638667 L53.6185833,22.5310667" id="Fill-25" fill="#646464" sketch:type="MSShapeGroup"></path>
                <path d="M51.1729167,27.5925333 L51.2318833,28.6510333 L52.8718333,28.5587167 L55.4837667,29.8985167 L55.4223833,28.7486667 L53.8974667,27.9932167 L55.3291,27.0947 L55.26095,25.8525333 L52.8119,27.50215 L51.1729167,27.5925333" id="Fill-26" fill="#646464" sketch:type="MSShapeGroup"></path>
                <path d="M5.1765,37.1528667 L6.04263333,36.9025 L5.67965,35.6434167 L6.31813333,35.4583 L6.70238333,36.7836 L7.56948333,36.5303333 L6.89233333,34.1827833 L2.87535,35.34085 L3.17501667,36.3640667 L4.81303333,35.8899167 L5.1765,37.1528667" id="Fill-27" fill="#646464" sketch:type="MSShapeGroup"></path>
                <path d="M8.89671667,40.61595 C9.0596,40.1335833 9.00836667,39.59805 8.74301667,39.0659 C8.37423333,38.3119 7.76136667,37.8981667 7.02621667,37.8981667 C6.67241667,37.8981667 6.29976667,37.9924167 5.92083333,38.1785 C5.31086667,38.47865 4.89568333,38.9073667 4.72313333,39.4187333 C4.55831667,39.8962667 4.6139,40.4322833 4.8778,40.9663667 C5.2461,41.7145667 5.86041667,42.1254 6.61248333,42.1254 C6.97111667,42.1254 7.3457,42.0306667 7.72125,41.8465167 C8.3143,41.5536167 8.7203,41.1297333 8.89671667,40.61595 M7.2355,40.8581 C6.97015,40.9890833 6.70721667,41.0582 6.47376667,41.0582 C6.11126667,41.0582 5.84833333,40.8924167 5.68641667,40.5681 C5.57815,40.34625 5.55833333,40.1302 5.6289,39.9252667 C5.72653333,39.6372 6.01025,39.3612167 6.40658333,39.1669167 C6.6526,39.04705 6.90683333,38.9808333 7.13738333,38.9808333 C7.50858333,38.9808333 7.77828333,39.1437167 7.93343333,39.4651333 C8.04121667,39.6840833 8.05813333,39.9006167 7.98708333,40.1103833 C7.88703333,40.4003833 7.61298333,40.6763667 7.2355,40.8581" id="Fill-28" fill="#646464" sketch:type="MSShapeGroup"></path>
                <path d="M11.7749667,43.8513833 L9.90446667,45.34005 C9.40035,45.74315 9.03978333,45.7794 8.74978333,45.4135167 C8.6304,45.2632 8.5811,45.11965 8.59946667,44.97465 C8.62411667,44.7668167 8.78796667,44.5444833 9.08811667,44.30475 L10.9562,42.8189833 L10.2911333,41.98475 L8.23358333,43.6179333 C7.80535,43.9582 7.57721667,44.3405167 7.55933333,44.7547333 C7.54,45.1380167 7.70433333,45.5507833 8.04556667,45.9761167 C8.4506,46.4874833 8.8856,46.74365 9.34235,46.74365 C9.6802,46.74365 10.0291667,46.603 10.3810333,46.3236333 L12.4400333,44.68755 L11.7749667,43.8513833" id="Fill-29" fill="#646464" sketch:type="MSShapeGroup"></path>
                <path d="M15.3269833,47.2506667 L13.7658167,49.15645 L14.3603167,46.45655 L13.4376333,45.7049667 L10.7899333,48.9375 L11.59275,49.5880667 L13.1553667,47.6789 L12.5676333,50.3884667 L13.4792,51.1366667 L16.1264167,47.90365 L15.3269833,47.2506667" id="Fill-30" fill="#646464" sketch:type="MSShapeGroup"></path>
                <path d="M18.4116167,49.2270167 L17.3362,48.6856833 L15.4579667,52.4199167 L16.5338667,52.9573833 C17.0515167,53.2183833 17.5039167,53.3435667 17.91765,53.3435667 C18.6402333,53.3435667 19.2076667,52.9486833 19.60255,52.1642333 C20.2241167,50.9264167 19.8253667,49.9384833 18.4116167,49.2270167 M18.618,51.6668833 C18.40195,52.0994667 18.02785,52.3445167 17.5914,52.3445167 C17.41305,52.3445167 17.2356667,52.3010167 17.0761667,52.2198167 L16.8175833,52.0936667 L17.8843,49.9703833 L18.1414333,50.1004 C18.4096833,50.23525 18.6170333,50.4706333 18.7088667,50.75 C18.8031167,51.0409667 18.7721833,51.3585167 18.618,51.6668833" id="Fill-31" fill="#646464" sketch:type="MSShapeGroup"></path>
                <path d="M20.7166333,54.7384667 L23.21595,55.4035333 L23.4489167,54.5340167 L21.9791,54.1396167 L22.1840333,53.3662833 L23.519,53.7220167 L23.7539,52.8529833 L22.4174833,52.4948333 L22.5881,51.8491 L24.0458333,52.2367333 L24.2812167,51.3672167 L21.7910833,50.7007 L20.7166333,54.7384667" id="Fill-32" fill="#646464" sketch:type="MSShapeGroup"></path>
                <path d="M26.87865,51.6900833 L25.67225,51.6209667 L25.4388,55.7931 L26.6398833,55.8617333 C26.7322,55.8675333 26.82355,55.8689833 26.9144167,55.8689833 C28.31415,55.8689833 29.06235,55.2102 29.1367833,53.911 C29.1715833,53.2667167 29.0256167,52.7558333 28.6974333,52.3880167 C28.3194667,51.9670333 27.7235167,51.7379333 26.87865,51.6900833 M26.84095,54.96805 L26.5533667,54.95355 L26.6906333,52.5861833 L26.9738667,52.6011667 C27.5359833,52.6316167 28.08215,53.07145 28.0396167,53.8447833 C27.99225,54.6505 27.3851833,54.9975333 26.84095,54.96805" id="Fill-33" fill="#646464" sketch:type="MSShapeGroup"></path>
                <path d="M32.8144667,51.37495 L32.10445,55.7969667 L33.19775,55.5611 L33.3413,54.6244 L34.68255,54.3305333 L35.1924667,55.1367333 L36.3379667,54.88685 L33.86475,51.1506833 L32.8144667,51.37495 M33.4718,53.6712667 L33.6052,52.5803833 L34.1755333,53.5199833 L33.4718,53.6712667" id="Fill-34" fill="#646464" sketch:type="MSShapeGroup"></path>
                <path d="M36.7836,53.5335167 L37.1456167,54.5374 L38.1504667,54.1753833 L37.7845833,53.1690833 L36.7836,53.5335167" id="Fill-35" fill="#646464" sketch:type="MSShapeGroup"></path>
                <path d="M38.81795,49.3067667 L37.7575167,49.8780667 L39.7507833,53.5523667 L40.8083167,52.9776833 C42.1969333,52.2280333 42.5662,51.22705 41.90645,50.00905 C41.2534667,48.7987833 40.2056,48.5513167 38.81795,49.3067667 M40.5105833,52.1139667 L40.2597333,52.2502667 L39.1287333,50.1675833 L39.382,50.0308 C39.5492333,49.9384833 39.7387,49.8877333 39.9291333,49.8877333 C40.3501167,49.8877333 40.7198667,50.1255333 40.94075,50.5300833 C41.30905,51.2130333 41.0035833,51.8452333 40.5105833,52.1139667" id="Fill-36" fill="#646464" sketch:type="MSShapeGroup"></path>
                <path d="M42.7025,50.6233667 L43.31585,51.5020667 L44.1935833,50.8921 L43.5831333,50.01195 L42.7025,50.6233667" id="Fill-37" fill="#646464" sketch:type="MSShapeGroup"></path>
                <path d="M44.3709667,45.2757667 L44.1853667,46.91475 L45.1027333,47.0399333 L45.1786167,46.3569833 L47.1718833,48.37925 L47.93265,47.62815 L44.9993,44.6532333 L44.3709667,45.2757667" id="Fill-38" fill="#646464" sketch:type="MSShapeGroup"></path>
                <path d="M50.0317667,43.0882 C49.6828,42.8320333 49.2922667,42.7899833 48.8587167,42.9577 C48.8654833,42.54735 48.6523333,42.195 48.3976167,42.00505 C47.87755,41.6232167 47.1825167,41.8387833 46.6730833,42.5265667 C46.1684833,43.20855 46.2144,43.89875 46.7944,44.33085 C47.08295,44.5444833 47.45995,44.5933 47.8214833,44.4637667 C47.7958667,44.91955 47.9423167,45.2607833 48.2651833,45.4976167 C48.5000833,45.6711333 48.7436833,45.7591 48.99405,45.7591 C49.4131,45.7591 49.83215,45.5014833 50.18015,45.0365167 C50.4716,44.63825 50.5996833,44.2390167 50.54555,43.8803833 C50.4981833,43.5715333 50.3266,43.3086 50.0317667,43.0882 L50.0317667,43.0882 Z M48.0452667,43.3931833 C47.8964,43.4874333 47.7407667,43.5676667 47.6035,43.5676667 C47.5377667,43.5676667 47.48025,43.5512333 47.4285333,43.5125667 C47.2231167,43.3588667 47.3251,43.1060833 47.4174167,42.9833167 C47.4870167,42.8856833 47.5745,42.8388 47.67165,42.8388 C47.7407667,42.8388 47.8190667,42.8658667 47.8930167,42.9195167 C48.0186833,43.0157 48.0737833,43.2327167 48.0452667,43.3931833 L48.0452667,43.3931833 Z M49.4793167,44.51935 C49.3377,44.71075 49.0713833,44.7668167 48.8901333,44.6334167 C48.7248333,44.5096833 48.6707,44.3405167 48.7151667,44.0548667 C49.0153167,43.8591167 49.2342667,43.8272167 49.4222833,43.9678667 C49.51025,44.03215 49.5585833,44.1128667 49.57405,44.2051833 C49.5890333,44.30475 49.5547167,44.4168833 49.4793167,44.51935 L49.4793167,44.51935 Z" id="Fill-39" fill="#646464" sketch:type="MSShapeGroup"></path>
                <path d="M51.9254667,39.00355 C51.2014333,38.6420167 50.51365,38.8580667 50.16565,39.5526167 C50.0675333,39.7493333 50.0274167,39.9388 50.0462667,40.1268167 C49.7872,39.9136667 49.5518167,39.5825833 49.7553,39.1732 C49.8587333,38.9648833 49.9955167,38.8271333 50.1617833,38.68165 L50.3024333,38.5608167 L49.5344167,38.0098167 L49.4479,38.0944 C49.2342667,38.3022333 49.0660667,38.5347167 48.9336333,38.7995833 C48.7277333,39.2157333 48.6876167,39.6178667 48.8186,40.0059833 C49.0428667,40.6816833 49.7316167,41.1427833 50.2657,41.40765 C50.7316333,41.6430333 51.1294167,41.7575833 51.4779,41.7575833 C52.0081167,41.7575833 52.4063833,41.4936833 52.6673833,40.9741 C53.0709667,40.1640333 52.7998167,39.4458 51.9254667,39.00355 M51.8872833,40.5850167 C51.82155,40.7222833 51.7157,40.7889833 51.5668333,40.7889833 C51.4653333,40.7889833 51.3478833,40.7575667 51.2260833,40.69425 C51.0206667,40.59275 50.8809833,40.46515 50.8403833,40.3351333 C50.8147667,40.2578 50.8225,40.1819167 50.8635833,40.0958833 C50.9264167,39.9711833 51.0279167,39.9102833 51.1782333,39.9102833 C51.2913333,39.9102833 51.4228,39.9455667 51.5586167,40.0132333 C51.7369667,40.1036167 51.8660167,40.2278333 51.9080667,40.3559167 C51.9341667,40.4327667 51.9254667,40.50865 51.8872833,40.5850167" id="Fill-40" fill="#646464" sketch:type="MSShapeGroup"></path>
                <path d="M53.4039833,34.7874333 C52.56975,34.5365833 51.8964667,34.9131 51.6601167,35.71785 C51.6364333,35.7922833 51.6195167,35.8609167 51.6108167,35.92085 L51.1216833,35.7652167 L51.5470167,34.3282667 L50.71375,34.0832167 L49.9979333,36.4940833 L52.3131,37.2306833 L52.3121333,37.0281667 C52.3106833,36.8039 52.3401667,36.5917167 52.4039667,36.3756667 C52.4634167,36.1765333 52.67705,35.68305 53.1246167,35.8154833 C53.59925,35.9590333 53.4895333,36.4699167 53.4465167,36.6236167 C53.3619333,36.9063667 53.19615,37.1093667 53.0579167,37.2775667 L52.925,37.44045 L53.8994,37.7618667 L53.95885,37.6565 C54.1188333,37.3747167 54.26045,37.0484667 54.3353667,36.7898833 C54.4823,36.3012333 54.4624833,35.8517333 54.28075,35.4902 C54.1086833,35.15235 53.79935,34.9044 53.4039833,34.7874333" id="Fill-41" fill="#646464" sketch:type="MSShapeGroup"></path>
                <g id="Group-45">
                    <mask id="mask-2" sketch:name="Clip 43" fill="white">
                        <use xlink:href="#path-1"></use>
                    </mask>
                    <g id="Clip-43"></g>
                    <path d="M7.74058333,29.21025 C7.74058333,40.8194333 17.18105,50.2623167 28.7883,50.2623167 C40.39555,50.2623167 49.8369833,40.8194333 49.8369833,29.21025 C49.8369833,17.6039667 40.39555,8.16205 28.7883,8.16205 C17.18105,8.16205 7.74058333,17.6039667 7.74058333,29.21025 M28.7883,8.89091667 C39.9929333,8.89091667 49.1095667,18.0080333 49.1095667,29.21025 C49.1095667,40.4153667 39.9929333,49.5315167 28.7883,49.5315167 C17.5822167,49.5315167 8.46751667,40.4153667 8.46751667,29.21025 C8.46751667,18.0080333 17.5822167,8.89091667 28.7883,8.89091667" id="Fill-42" fill="#646464" sketch:type="MSShapeGroup" mask="url(#mask-2)"></path>
                    <path d="M28.7883,0.422916667 C12.9137,0.422916667 0,13.3371 0,29.2126667 C0,45.0834 12.9137,58 28.7883,58 C44.6633833,58 57.5766,45.0834 57.5766,29.2126667 C57.5766,13.3371 44.6633833,0.422916667 28.7883,0.422916667 M28.7883,57.2489 C13.3284,57.2489 0.75255,44.67305 0.75255,29.2126667 C0.75255,13.7537333 13.3284,1.17546667 28.7883,1.17546667 C44.2482,1.17546667 56.8245333,13.7537333 56.8245333,29.2126667 C56.8245333,44.67305 44.2482,57.2489 28.7883,57.2489" id="Fill-44" fill="#646464" sketch:type="MSShapeGroup" mask="url(#mask-2)"></path>
                </g>
                <path d="M85.3476562,36.9257812 L84.890625,38.015625 C83.9765579,38.4765648 83.0820356,38.8105458 82.2070312,39.0175781 C81.3320269,39.2246104 80.3789114,39.328125 79.3476562,39.328125 C78.1367127,39.328125 77.0117239,39.1757828 75.9726562,38.8710938 C74.9335886,38.5664047 74.0253945,38.1308622 73.2480469,37.5644531 C72.4706992,36.998044 71.83594,36.3632848 71.34375,35.6601562 C70.85156,34.9570277 70.4765638,34.1933635 70.21875,33.3691406 C69.9609362,32.5449178 69.8320312,31.6406299 69.8320312,30.65625 C69.8320312,28.16405 70.7011632,26.0996176 72.4394531,24.4628906 C74.1777431,22.8261637 76.5507662,22.0078125 79.5585938,22.0078125 C80.2695348,22.0078125 80.9277313,22.0488277 81.5332031,22.1308594 C82.1386749,22.212891 82.8769488,22.3691395 83.7480469,22.5996094 C84.619145,22.8300793 85.1523428,22.9648436 85.3476562,23.0039062 C85.1757804,23.4335959 85.0468754,23.8554667 84.9609375,24.2695312 C84.8359369,24.9335971 84.7500002,25.7031206 84.703125,26.578125 L83.9648438,26.578125 L83.953125,25.1953125 C83.8749996,24.4296837 83.4511757,23.8593769 82.6816406,23.484375 C81.9121055,23.1093731 80.7851637,22.921875 79.3007812,22.921875 C78.1914007,22.9375001 77.2500039,23.0800768 76.4765625,23.3496094 C75.7031211,23.619142 75.0214873,24.044919 74.4316406,24.6269531 C73.8417939,25.2089873 73.3593769,25.9472612 72.984375,26.8417969 C72.6093731,27.7363326 72.4179688,28.8593682 72.4101562,30.2109375 C72.4101562,32.5781368 73.1328053,34.4824147 74.578125,35.9238281 C76.0234447,37.3652416 77.9335819,38.0859375 80.3085938,38.0859375 C81.3789116,38.0859375 82.3710892,37.9375015 83.2851562,37.640625 C83.9101594,37.437499 84.5312469,37.1171897 85.1484375,36.6796875 L85.3476562,36.9257812 Z M86.8125,33.609375 C86.8125,31.8593663 87.3691351,30.4316462 88.4824219,29.3261719 C89.5957087,28.2206976 91.0234288,27.6679688 92.765625,27.6679688 C94.4062582,27.6679688 95.7421823,28.1835886 96.7734375,29.2148438 C97.8046927,30.2460989 98.3203125,31.5781168 98.3203125,33.2109375 C98.3203125,34.3515682 98.0546902,35.3945265 97.5234375,36.3398438 C96.9921848,37.285161 96.2421923,38.0253879 95.2734375,38.5605469 C94.3046827,39.0957058 93.2382871,39.3632812 92.0742188,39.3632812 C91.1679642,39.3632812 90.4003938,39.210939 89.7714844,38.90625 C89.142575,38.601561 88.6328145,38.2187523 88.2421875,37.7578125 C87.8515605,37.2968727 87.5546885,36.8242212 87.3515625,36.3398438 C86.9921857,35.488277 86.8125,34.5781298 86.8125,33.609375 L86.8125,33.609375 Z M89.0273438,32.7421875 C89.0273438,33.7031298 89.1874984,34.6796825 89.5078125,35.671875 C89.8281266,36.6640675 90.2910126,37.3886696 90.8964844,37.8457031 C91.5019562,38.3027367 92.1601527,38.53125 92.8710938,38.53125 C93.7773483,38.53125 94.5351532,38.1718786 95.1445312,37.453125 C95.7539093,36.7343714 96.0585938,35.6289137 96.0585938,34.1367188 C96.0585938,32.894525 95.8769549,31.8222701 95.5136719,30.9199219 C95.1503888,30.0175736 94.6875028,29.3808612 94.125,29.0097656 C93.5624972,28.63867 92.9414096,28.453125 92.2617188,28.453125 C91.3007764,28.453125 90.5214874,28.8007778 89.9238281,29.4960938 C89.3261689,30.1914097 89.0273438,31.2734302 89.0273438,32.7421875 L89.0273438,32.7421875 Z M99.6679688,39 L99.6679688,38.3320312 C100.550786,38.3164062 101.027343,38.3007813 101.097656,38.2851562 C101.230469,38.2617186 101.330078,38.2246096 101.396484,38.1738281 C101.462891,38.1230466 101.515625,38.0507817 101.554688,37.9570312 C101.632813,37.7773429 101.679687,37.4960957 101.695312,37.1132812 C101.742188,35.0273333 101.765625,33.9375005 101.765625,33.84375 L101.765625,32.4492188 C101.765625,31.8242156 101.753906,31.1523473 101.730469,30.4335938 C101.714844,29.9726539 101.681641,29.6992192 101.630859,29.6132812 C101.580078,29.5273433 101.490235,29.4628908 101.361328,29.4199219 C101.232421,29.3769529 100.722661,29.359375 99.8320312,29.3671875 L99.8320312,28.6992188 C101.410164,28.4804677 102.562496,28.1953143 103.289062,27.84375 C103.445313,27.7656246 103.550781,27.7265625 103.605469,27.7265625 C103.660157,27.7265625 103.703125,27.7460936 103.734375,27.7851562 C103.765625,27.8242189 103.78125,27.8828121 103.78125,27.9609375 C103.78125,28.0156253 103.777344,28.0781246 103.769531,28.1484375 C103.730469,28.6250024 103.707031,29.3632762 103.699219,30.3632812 C104.050783,29.9570292 104.374999,29.5546895 104.671875,29.15625 C104.968751,28.7578105 105.183593,28.5000006 105.316406,28.3828125 C105.550782,28.1796865 105.820311,28.0175787 106.125,27.8964844 C106.429689,27.77539 106.746092,27.7148438 107.074219,27.7148438 C107.402345,27.7148438 107.726561,27.7851555 108.046875,27.9257812 L108.117188,28.0898438 C107.999999,29.1289114 107.933594,30.0429648 107.917969,30.8320312 L107.390625,30.8320312 C107.210937,30.4570294 107.001954,30.1835946 106.763672,30.0117188 C106.525389,29.8398429 106.226564,29.7539062 105.867188,29.7539062 C105.265622,29.7539062 104.753908,30.0019506 104.332031,30.4980469 C103.910154,30.9941431 103.699219,31.7382763 103.699219,32.7304688 L103.699219,33.9375 C103.699219,34.4531276 103.71875,35.3945244 103.757812,36.7617188 C103.765625,37.2460962 103.785156,37.5546868 103.816406,37.6875 C103.847656,37.8203132 103.888672,37.9160153 103.939453,37.9746094 C103.990235,38.0332034 104.074218,38.0820311 104.191406,38.1210938 C104.425782,38.1914066 105.058589,38.2617184 106.089844,38.3320312 L106.089844,39 C104.714837,38.9453122 103.542974,38.9179688 102.574219,38.9179688 C101.574214,38.9179688 100.605473,38.9453122 99.6679688,39 L99.6679688,39 Z M108.925781,39 L108.925781,38.3320312 L110.039062,38.3203125 C110.203126,38.3125 110.330078,38.2832034 110.419922,38.2324219 C110.509766,38.1816404 110.578125,38.1171879 110.625,38.0390625 C110.710938,37.8828117 110.765625,37.6054707 110.789062,37.2070312 C110.789062,37.1054682 110.8125,35.9843857 110.859375,33.84375 L110.859375,32.4492188 C110.859375,31.8242156 110.847656,31.1523473 110.824219,30.4335938 C110.800781,29.9726539 110.763672,29.6992192 110.712891,29.6132812 C110.662109,29.5273433 110.574219,29.4628908 110.449219,29.4199219 C110.324218,29.3769529 109.816411,29.359375 108.925781,29.3671875 L108.925781,28.6992188 C110.503914,28.4804677 111.656246,28.1953143 112.382812,27.84375 C112.539063,27.7656246 112.644531,27.7265625 112.699219,27.7265625 C112.753907,27.7265625 112.796875,27.7460936 112.828125,27.7851562 C112.859375,27.8242189 112.875,27.8828121 112.875,27.9609375 C112.875,28.0156253 112.871094,28.0781246 112.863281,28.1484375 C112.839844,28.4296889 112.816406,29.023433 112.792969,29.9296875 L114.972656,28.0664062 C115.613284,27.8320301 116.218747,27.7148438 116.789062,27.7148438 C117.421878,27.7148438 118.021482,27.8437487 118.587891,28.1015625 C119.1543,28.3593763 119.580077,28.6835918 119.865234,29.0742188 C120.150392,29.4648457 120.339843,29.9570283 120.433594,30.5507812 C120.488282,30.9023455 120.515625,31.8828045 120.515625,33.4921875 L120.515625,35.5664062 C120.515625,36.5820363 120.542968,37.2734357 120.597656,37.640625 C120.636719,37.8750012 120.697265,38.0371089 120.779297,38.1269531 C120.861329,38.2167973 120.98828,38.2734374 121.160156,38.296875 L122.414062,38.3320312 L122.414062,39 C121.648434,38.9453122 121.011721,38.9179688 120.503906,38.9179688 C120.066404,38.9179688 119.339849,38.9453122 118.324219,39 C118.433594,37.0703029 118.488281,35.851565 118.488281,35.34375 L118.488281,33.375 C118.488281,32.1484314 118.441407,31.3437519 118.347656,30.9609375 C118.214843,30.4374974 117.914065,30.0156266 117.445312,29.6953125 C116.97656,29.3749984 116.41016,29.2148438 115.746094,29.2148438 C115.160153,29.2148438 114.625002,29.3535142 114.140625,29.6308594 C113.656248,29.9082045 113.310548,30.2285138 113.103516,30.5917969 C112.896483,30.9550799 112.792969,31.566402 112.792969,32.4257812 L112.792969,33.84375 C112.839844,35.8750102 112.863281,36.9726554 112.863281,37.1367188 C112.878906,37.5273457 112.925781,37.8124991 113.003906,37.9921875 C113.035156,38.0625004 113.082031,38.1230466 113.144531,38.1738281 C113.207032,38.2246096 113.304687,38.2656248 113.4375,38.296875 C113.484375,38.3046875 113.914058,38.3164062 114.726562,38.3320312 L114.726562,39 C113.773433,38.9453122 112.91016,38.9179688 112.136719,38.9179688 C111.480465,38.9179688 110.410164,38.9453122 108.925781,39 L108.925781,39 Z M132.925781,37.1835938 L132.550781,38.0273438 C132.011716,38.3632829 131.617189,38.585937 131.367188,38.6953125 C130.999998,38.8593758 130.58008,38.9980463 130.107422,39.1113281 C129.634763,39.2246099 129.136721,39.28125 128.613281,39.28125 C127.582026,39.28125 126.648442,39.0664084 125.8125,38.6367188 C124.976558,38.2070291 124.326174,37.5644574 123.861328,36.7089844 C123.396482,35.8535113 123.164062,34.8515682 123.164062,33.703125 C123.164062,32.804683 123.287108,31.9941442 123.533203,31.2714844 C123.779298,30.5488245 124.058592,30.0156267 124.371094,29.671875 C124.597657,29.4218737 124.949216,29.1347672 125.425781,28.8105469 C125.902346,28.4863265 126.374998,28.2304697 126.84375,28.0429688 C127.460941,27.785155 128.128903,27.65625 128.847656,27.65625 C129.722661,27.65625 130.513668,27.8554668 131.220703,28.2539062 C131.927738,28.6523457 132.445311,29.1953091 132.773438,29.8828125 C133.101564,30.5703159 133.265625,31.3476519 133.265625,32.2148438 C133.265625,32.4335948 133.25,32.6992172 133.21875,33.0117188 C132.656247,33.1210943 132.152346,33.1914061 131.707031,33.2226562 C130.863277,33.2851566 130.019535,33.3164062 129.175781,33.3164062 L125.414062,33.3164062 C125.429688,34.4335993 125.623045,35.3378872 125.994141,36.0292969 C126.365236,36.7207066 126.87695,37.2304671 127.529297,37.5585938 C128.181644,37.8867204 128.859371,38.0507812 129.5625,38.0507812 C130.039065,38.0507812 130.51367,37.9746101 130.986328,37.8222656 C131.458987,37.6699211 132.042965,37.390627 132.738281,36.984375 L132.925781,37.1835938 Z M125.414062,32.390625 C125.632814,32.4140626 126.046872,32.4374999 126.65625,32.4609375 C127.820318,32.5000002 128.621092,32.5195312 129.058594,32.5195312 C130.097661,32.5195312 130.781248,32.5000002 131.109375,32.4609375 C131.117188,32.2734366 131.121094,32.1289068 131.121094,32.0273438 C131.121094,30.7929626 130.871096,29.8867216 130.371094,29.3085938 C129.871091,28.7304659 129.203129,28.4414062 128.367188,28.4414062 C127.484371,28.4414062 126.77344,28.7578093 126.234375,29.390625 C125.69531,30.0234407 125.421875,31.0234307 125.414062,32.390625 L125.414062,32.390625 Z M134.660156,39 L134.660156,38.3320312 L135.761719,38.3203125 C135.933595,38.3125 136.064453,38.2832034 136.154297,38.2324219 C136.244141,38.1816404 136.3125,38.1171879 136.359375,38.0390625 C136.445313,37.8828117 136.496094,37.6054707 136.511719,37.2070312 C136.519531,37.1054682 136.546875,35.9843857 136.59375,33.84375 L136.59375,28.9804688 C136.59375,27.6757747 136.570313,26.328132 136.523438,24.9375 C136.492187,23.9999953 136.449219,23.476563 136.394531,23.3671875 C136.355469,23.2890621 136.292969,23.2343752 136.207031,23.203125 C136.089843,23.1484372 135.550786,23.1210938 134.589844,23.1210938 L134.589844,22.4296875 C136.355478,22.2109364 137.582028,21.9375016 138.269531,21.609375 C138.371094,21.5624998 138.449218,21.5390625 138.503906,21.5390625 C138.558594,21.5390625 138.601562,21.5566404 138.632812,21.5917969 C138.664063,21.6269533 138.679688,21.6757809 138.679688,21.7382812 C138.679688,21.792969 138.671875,21.8710932 138.65625,21.9726562 L138.644531,22.359375 C138.605469,23.7578195 138.582031,24.9492138 138.574219,25.9335938 L138.550781,27.7617188 L138.550781,33.84375 C138.589844,35.8750102 138.613281,36.9726554 138.621094,37.1367188 C138.628906,37.5273457 138.675781,37.8124991 138.761719,37.9921875 C138.792969,38.0625004 138.839843,38.1230466 138.902344,38.1738281 C138.964844,38.2246096 139.058593,38.2656248 139.183594,38.296875 C139.238282,38.3046875 139.671871,38.3164062 140.484375,38.3320312 L140.484375,39 C139.42187,38.9374997 138.488285,38.90625 137.683594,38.90625 C136.917965,38.90625 135.910163,38.9374997 134.660156,39 L134.660156,39 Z M141.644531,39 L141.644531,38.3320312 L142.746094,38.3203125 C142.91797,38.3125 143.048828,38.2832034 143.138672,38.2324219 C143.228516,38.1816404 143.296875,38.1171879 143.34375,38.0390625 C143.429688,37.8828117 143.480469,37.6054707 143.496094,37.2070312 C143.503906,37.1054682 143.53125,35.9843857 143.578125,33.84375 L143.578125,28.9804688 C143.578125,27.6757747 143.554688,26.328132 143.507812,24.9375 C143.476562,23.9999953 143.433594,23.476563 143.378906,23.3671875 C143.339844,23.2890621 143.277344,23.2343752 143.191406,23.203125 C143.074218,23.1484372 142.535161,23.1210938 141.574219,23.1210938 L141.574219,22.4296875 C143.339853,22.2109364 144.566403,21.9375016 145.253906,21.609375 C145.355469,21.5624998 145.433593,21.5390625 145.488281,21.5390625 C145.542969,21.5390625 145.585937,21.5566404 145.617188,21.5917969 C145.648438,21.6269533 145.664062,21.6757809 145.664062,21.7382812 C145.664062,21.792969 145.65625,21.8710932 145.640625,21.9726562 L145.628906,22.359375 C145.589844,23.7578195 145.566406,24.9492138 145.558594,25.9335938 L145.535156,27.7617188 L145.535156,33.84375 C145.574219,35.8750102 145.597656,36.9726554 145.605469,37.1367188 C145.613281,37.5273457 145.660156,37.8124991 145.746094,37.9921875 C145.777344,38.0625004 145.824218,38.1230466 145.886719,38.1738281 C145.949219,38.2246096 146.042968,38.2656248 146.167969,38.296875 C146.222657,38.3046875 146.656246,38.3164062 147.46875,38.3320312 L147.46875,39 C146.406245,38.9374997 145.47266,38.90625 144.667969,38.90625 C143.90234,38.90625 142.894538,38.9374997 141.644531,39 L141.644531,39 Z M154.382812,23.0976562 L154.382812,22.3476562 C155.656256,22.4101566 156.839838,22.4414062 157.933594,22.4414062 C159.042974,22.4414062 160.144526,22.4101566 161.238281,22.3476562 L161.238281,23.0976562 C160.316402,23.1132813 159.753907,23.1542965 159.550781,23.2207031 C159.347655,23.2871097 159.210938,23.3789057 159.140625,23.4960938 C159.039062,23.6523445 158.976563,24.031247 158.953125,24.6328125 C158.945312,24.7890633 158.929688,25.8984272 158.90625,27.9609375 L158.90625,32.296875 C158.90625,33.9765709 159.013671,35.0839817 159.228516,35.6191406 C159.44336,36.1542996 159.785154,36.5976545 160.253906,36.9492188 C160.613283,37.2148451 161.097653,37.4277336 161.707031,37.5878906 C162.316409,37.7480477 162.99609,37.828125 163.746094,37.828125 C164.621098,37.828125 165.398434,37.7207042 166.078125,37.5058594 C166.757816,37.2910146 167.267576,37.0292984 167.607422,36.7207031 C167.947267,36.4121078 168.201171,36.0664082 168.369141,35.6835938 C168.53711,35.3007793 168.658203,34.775394 168.732422,34.1074219 C168.806641,33.4394498 168.84375,32.5937551 168.84375,31.5703125 L168.84375,27.9609375 C168.84375,26.8984322 168.828125,25.8593801 168.796875,24.84375 C168.78125,24.1015588 168.728516,23.6621101 168.638672,23.5253906 C168.548828,23.3886712 168.402345,23.2871097 168.199219,23.2207031 C167.996093,23.1542965 167.433598,23.1132813 166.511719,23.0976562 L166.511719,22.3476562 C167.800788,22.4101566 168.742185,22.4414062 169.335938,22.4414062 C169.875003,22.4414062 170.847649,22.4101566 172.253906,22.3476562 L172.253906,23.0976562 C171.324214,23.1132813 170.759767,23.1542965 170.560547,23.2207031 C170.361327,23.2871097 170.222657,23.3789057 170.144531,23.4960938 C170.050781,23.6523445 169.992188,24.031247 169.96875,24.6328125 C169.960937,24.7890633 169.945313,25.8984272 169.921875,27.9609375 L169.921875,31.8867188 C169.921875,33.8164159 169.787111,35.1640587 169.517578,35.9296875 C169.248046,36.6953163 168.75391,37.3710908 168.035156,37.9570312 C167.496091,38.3945334 166.802739,38.7343738 165.955078,38.9765625 C165.107418,39.2187512 164.167974,39.3398438 163.136719,39.3398438 C161.933588,39.3398438 160.890629,39.1972671 160.007812,38.9121094 C159.124996,38.6269517 158.453127,38.2519554 157.992188,37.7871094 C157.531248,37.3222633 157.214845,36.8476587 157.042969,36.3632812 C156.824218,35.722653 156.714844,34.648445 156.714844,33.140625 L156.714844,27.9609375 C156.714844,26.8984322 156.703125,25.8593801 156.679688,24.84375 C156.65625,24.1015588 156.59961,23.6621101 156.509766,23.5253906 C156.419921,23.3886712 156.275392,23.2871097 156.076172,23.2207031 C155.876952,23.1542965 155.312505,23.1132813 154.382812,23.0976562 L154.382812,23.0976562 Z M173.027344,39 L173.027344,38.3320312 L174.140625,38.3203125 C174.304688,38.3125 174.43164,38.2832034 174.521484,38.2324219 C174.611329,38.1816404 174.679687,38.1171879 174.726562,38.0390625 C174.8125,37.8828117 174.867187,37.6054707 174.890625,37.2070312 C174.890625,37.1054682 174.914062,35.9843857 174.960938,33.84375 L174.960938,32.4492188 C174.960938,31.8242156 174.949219,31.1523473 174.925781,30.4335938 C174.902344,29.9726539 174.865235,29.6992192 174.814453,29.6132812 C174.763672,29.5273433 174.675782,29.4628908 174.550781,29.4199219 C174.425781,29.3769529 173.917973,29.359375 173.027344,29.3671875 L173.027344,28.6992188 C174.605477,28.4804677 175.757809,28.1953143 176.484375,27.84375 C176.640626,27.7656246 176.746093,27.7265625 176.800781,27.7265625 C176.855469,27.7265625 176.898437,27.7460936 176.929688,27.7851562 C176.960938,27.8242189 176.976562,27.8828121 176.976562,27.9609375 C176.976562,28.0156253 176.972656,28.0781246 176.964844,28.1484375 C176.941406,28.4296889 176.917969,29.023433 176.894531,29.9296875 L179.074219,28.0664062 C179.714847,27.8320301 180.32031,27.7148438 180.890625,27.7148438 C181.523441,27.7148438 182.123044,27.8437487 182.689453,28.1015625 C183.255862,28.3593763 183.681639,28.6835918 183.966797,29.0742188 C184.251955,29.4648457 184.441406,29.9570283 184.535156,30.5507812 C184.589844,30.9023455 184.617188,31.8828045 184.617188,33.4921875 L184.617188,35.5664062 C184.617188,36.5820363 184.644531,37.2734357 184.699219,37.640625 C184.738281,37.8750012 184.798828,38.0371089 184.880859,38.1269531 C184.962891,38.2167973 185.089843,38.2734374 185.261719,38.296875 L186.515625,38.3320312 L186.515625,39 C185.749996,38.9453122 185.113284,38.9179688 184.605469,38.9179688 C184.167967,38.9179688 183.441411,38.9453122 182.425781,39 C182.535157,37.0703029 182.589844,35.851565 182.589844,35.34375 L182.589844,33.375 C182.589844,32.1484314 182.542969,31.3437519 182.449219,30.9609375 C182.316406,30.4374974 182.015627,30.0156266 181.546875,29.6953125 C181.078123,29.3749984 180.511722,29.2148438 179.847656,29.2148438 C179.261716,29.2148438 178.726565,29.3535142 178.242188,29.6308594 C177.75781,29.9082045 177.41211,30.2285138 177.205078,30.5917969 C176.998046,30.9550799 176.894531,31.566402 176.894531,32.4257812 L176.894531,33.84375 C176.941406,35.8750102 176.964844,36.9726554 176.964844,37.1367188 C176.980469,37.5273457 177.027343,37.8124991 177.105469,37.9921875 C177.136719,38.0625004 177.183593,38.1230466 177.246094,38.1738281 C177.308594,38.2246096 177.406249,38.2656248 177.539062,38.296875 C177.585938,38.3046875 178.015621,38.3164062 178.828125,38.3320312 L178.828125,39 C177.874995,38.9453122 177.011723,38.9179688 176.238281,38.9179688 C175.582028,38.9179688 174.511726,38.9453122 173.027344,39 L173.027344,39 Z M190.054688,22.5 C190.421877,22.5 190.732421,22.628905 190.986328,22.8867188 C191.240236,23.1445325 191.367188,23.4570294 191.367188,23.8242188 C191.367188,24.1835955 191.238283,24.4921862 190.980469,24.75 C190.722655,25.0078138 190.414064,25.1367188 190.054688,25.1367188 C189.687498,25.1367188 189.375001,25.0078138 189.117188,24.75 C188.859374,24.4921862 188.730469,24.1835955 188.730469,23.8242188 C188.730469,23.4570294 188.859374,23.1445325 189.117188,22.8867188 C189.375001,22.628905 189.687498,22.5 190.054688,22.5 L190.054688,22.5 Z M187.195312,29.3554688 L187.195312,28.6875 C188.710945,28.5156241 189.98437,28.1875024 191.015625,27.703125 L191.273438,27.890625 C191.210937,29.5546958 191.179688,30.8281206 191.179688,31.7109375 L191.179688,33.84375 C191.21875,35.8750102 191.242187,36.9726554 191.25,37.1367188 C191.257813,37.5273457 191.300781,37.8124991 191.378906,37.9921875 C191.417969,38.0625004 191.46875,38.1230466 191.53125,38.1738281 C191.59375,38.2246096 191.687499,38.2656248 191.8125,38.296875 C191.859375,38.3046875 192.292965,38.3164062 193.113281,38.3320312 L193.113281,39 C191.925775,38.9453122 190.976566,38.9179688 190.265625,38.9179688 C189.640622,38.9179688 188.617195,38.9453122 187.195312,39 L187.195312,38.3320312 L188.308594,38.3203125 C188.472657,38.3125 188.599609,38.2832034 188.689453,38.2324219 C188.779297,38.1816404 188.847656,38.1171879 188.894531,38.0390625 C188.980469,37.8828117 189.035156,37.6054707 189.058594,37.2070312 C189.058594,37.1054682 189.082031,35.9843857 189.128906,33.84375 L189.128906,31.78125 C189.128906,30.6171817 189.089844,29.9257823 189.011719,29.7070312 C188.964844,29.5898432 188.88086,29.5019534 188.759766,29.4433594 C188.638671,29.3847653 188.117192,29.3554688 187.195312,29.3554688 L187.195312,29.3554688 Z M199.628906,39.1171875 C199.324217,38.3203085 199.113282,37.7851576 198.996094,37.5117188 L198.035156,35.2734375 L195.632812,29.6835938 C195.476562,29.3320295 195.343751,29.0976568 195.234375,28.9804688 C195.124999,28.8632807 195.003907,28.7890627 194.871094,28.7578125 C194.761718,28.7265623 194.472659,28.7031251 194.003906,28.6875 L194.003906,27.984375 C195.300788,28.0390628 196.246091,28.0664062 196.839844,28.0664062 C197.496097,28.0664062 198.394526,28.0390628 199.535156,27.984375 L199.535156,28.6875 C198.691402,28.7109376 198.195313,28.7656246 198.046875,28.8515625 C197.898437,28.9375004 197.824219,29.0546868 197.824219,29.203125 C197.824219,29.4375012 197.980467,29.9414024 198.292969,30.7148438 L199.722656,34.2773438 L200.0625,35.0742188 C200.445314,36.0039109 200.707031,36.6249984 200.847656,36.9375 L202.019531,34.2773438 C202.089844,34.121093 202.445309,33.2421955 203.085938,31.640625 C203.460939,30.7109329 203.710937,30.0000025 203.835938,29.5078125 C203.867188,29.3749993 203.882812,29.257813 203.882812,29.15625 C203.882812,29.0234368 203.832032,28.9296878 203.730469,28.875 C203.542968,28.773437 203.042973,28.7109376 202.230469,28.6875 L202.230469,27.984375 C203.394537,28.0390628 204.140623,28.0664062 204.46875,28.0664062 C204.742189,28.0664062 205.488275,28.0390628 206.707031,27.984375 L206.707031,28.6875 C206.222654,28.7109376 205.900391,28.7675777 205.740234,28.8574219 C205.580077,28.9472661 205.421876,29.1328111 205.265625,29.4140625 C205.156249,29.6015634 204.734379,30.445305 204,31.9453125 L202.875,34.3476562 C202.679687,34.7773459 202.003912,36.3671737 200.847656,39.1171875 L199.628906,39.1171875 Z M217.570312,37.1835938 L217.195312,38.0273438 C216.656247,38.3632829 216.26172,38.585937 216.011719,38.6953125 C215.644529,38.8593758 215.224612,38.9980463 214.751953,39.1113281 C214.279295,39.2246099 213.781253,39.28125 213.257812,39.28125 C212.226557,39.28125 211.292973,39.0664084 210.457031,38.6367188 C209.62109,38.2070291 208.970705,37.5644574 208.505859,36.7089844 C208.041013,35.8535113 207.808594,34.8515682 207.808594,33.703125 C207.808594,32.804683 207.931639,31.9941442 208.177734,31.2714844 C208.423829,30.5488245 208.703123,30.0156267 209.015625,29.671875 C209.242189,29.4218737 209.593748,29.1347672 210.070312,28.8105469 C210.546877,28.4863265 211.019529,28.2304697 211.488281,28.0429688 C212.105472,27.785155 212.773434,27.65625 213.492188,27.65625 C214.367192,27.65625 215.1582,27.8554668 215.865234,28.2539062 C216.572269,28.6523457 217.089842,29.1953091 217.417969,29.8828125 C217.746095,30.5703159 217.910156,31.3476519 217.910156,32.2148438 C217.910156,32.4335948 217.894531,32.6992172 217.863281,33.0117188 C217.300778,33.1210943 216.796877,33.1914061 216.351562,33.2226562 C215.507808,33.2851566 214.664067,33.3164062 213.820312,33.3164062 L210.058594,33.3164062 C210.074219,34.4335993 210.267576,35.3378872 210.638672,36.0292969 C211.009767,36.7207066 211.521481,37.2304671 212.173828,37.5585938 C212.826175,37.8867204 213.503903,38.0507812 214.207031,38.0507812 C214.683596,38.0507812 215.158201,37.9746101 215.630859,37.8222656 C216.103518,37.6699211 216.687497,37.390627 217.382812,36.984375 L217.570312,37.1835938 Z M210.058594,32.390625 C210.277345,32.4140626 210.691403,32.4374999 211.300781,32.4609375 C212.46485,32.5000002 213.265623,32.5195312 213.703125,32.5195312 C214.742193,32.5195312 215.42578,32.5000002 215.753906,32.4609375 C215.761719,32.2734366 215.765625,32.1289068 215.765625,32.0273438 C215.765625,30.7929626 215.515627,29.8867216 215.015625,29.3085938 C214.515623,28.7304659 213.84766,28.4414062 213.011719,28.4414062 C212.128902,28.4414062 211.417971,28.7578093 210.878906,29.390625 C210.339841,30.0234407 210.066406,31.0234307 210.058594,32.390625 L210.058594,32.390625 Z M219.257812,39 L219.257812,38.3320312 C220.140629,38.3164062 220.617187,38.3007813 220.6875,38.2851562 C220.820313,38.2617186 220.919922,38.2246096 220.986328,38.1738281 C221.052735,38.1230466 221.105469,38.0507817 221.144531,37.9570312 C221.222657,37.7773429 221.269531,37.4960957 221.285156,37.1132812 C221.332031,35.0273333 221.355469,33.9375005 221.355469,33.84375 L221.355469,32.4492188 C221.355469,31.8242156 221.34375,31.1523473 221.320312,30.4335938 C221.304687,29.9726539 221.271485,29.6992192 221.220703,29.6132812 C221.169922,29.5273433 221.080079,29.4628908 220.951172,29.4199219 C220.822265,29.3769529 220.312504,29.359375 219.421875,29.3671875 L219.421875,28.6992188 C221.000008,28.4804677 222.15234,28.1953143 222.878906,27.84375 C223.035157,27.7656246 223.140625,27.7265625 223.195312,27.7265625 C223.25,27.7265625 223.292969,27.7460936 223.324219,27.7851562 C223.355469,27.8242189 223.371094,27.8828121 223.371094,27.9609375 C223.371094,28.0156253 223.367188,28.0781246 223.359375,28.1484375 C223.320312,28.6250024 223.296875,29.3632762 223.289062,30.3632812 C223.640627,29.9570292 223.964842,29.5546895 224.261719,29.15625 C224.558595,28.7578105 224.773437,28.5000006 224.90625,28.3828125 C225.140626,28.1796865 225.410155,28.0175787 225.714844,27.8964844 C226.019533,27.77539 226.335936,27.7148438 226.664062,27.7148438 C226.992189,27.7148438 227.316405,27.7851555 227.636719,27.9257812 L227.707031,28.0898438 C227.589843,29.1289114 227.523438,30.0429648 227.507812,30.8320312 L226.980469,30.8320312 C226.80078,30.4570294 226.591798,30.1835946 226.353516,30.0117188 C226.115233,29.8398429 225.816408,29.7539062 225.457031,29.7539062 C224.855466,29.7539062 224.343752,30.0019506 223.921875,30.4980469 C223.499998,30.9941431 223.289062,31.7382763 223.289062,32.7304688 L223.289062,33.9375 C223.289062,34.4531276 223.308594,35.3945244 223.347656,36.7617188 C223.355469,37.2460962 223.375,37.5546868 223.40625,37.6875 C223.4375,37.8203132 223.478515,37.9160153 223.529297,37.9746094 C223.580078,38.0332034 223.664062,38.0820311 223.78125,38.1210938 C224.015626,38.1914066 224.648432,38.2617184 225.679688,38.3320312 L225.679688,39 C224.304681,38.9453122 223.132817,38.9179688 222.164062,38.9179688 C221.164058,38.9179688 220.195317,38.9453122 219.257812,39 L219.257812,39 Z M229.277344,35.4609375 L229.980469,35.4609375 C229.988281,35.9140648 230.011719,36.2734362 230.050781,36.5390625 C230.089844,36.8046888 230.15625,37.0644519 230.25,37.3183594 C230.34375,37.5722669 230.48828,37.7871085 230.683594,37.9628906 C230.878907,38.1386728 231.091796,38.2753901 231.322266,38.3730469 C231.552736,38.4707036 231.787108,38.5351561 232.025391,38.5664062 C232.263673,38.5976564 232.624998,38.6132812 233.109375,38.6132812 C233.906254,38.6132812 234.560544,38.4023459 235.072266,37.9804688 C235.583987,37.5585916 235.839844,36.9804724 235.839844,36.2460938 C235.839844,35.9179671 235.759766,35.6289075 235.599609,35.3789062 C235.439452,35.128905 235.208986,34.9335945 234.908203,34.7929688 C234.60742,34.652343 233.960942,34.4687511 232.96875,34.2421875 C231.976558,34.0156239 231.335939,33.851563 231.046875,33.75 C230.609373,33.5859367 230.26172,33.3867199 230.003906,33.1523438 C229.746092,32.9179676 229.541016,32.6210955 229.388672,32.2617188 C229.236327,31.902342 229.160156,31.5117209 229.160156,31.0898438 C229.160156,30.4726532 229.322264,29.9042995 229.646484,29.3847656 C229.970705,28.8652318 230.480465,28.443361 231.175781,28.1191406 C231.871097,27.7949203 232.628902,27.6328125 233.449219,27.6328125 C233.941409,27.6328125 234.511716,27.7011712 235.160156,27.8378906 C235.808597,27.9746101 236.335935,28.1445302 236.742188,28.3476562 C236.6875,29.2148481 236.648438,30.0976518 236.625,30.9960938 L235.957031,30.9960938 C235.917969,30.4257784 235.873047,30.0507821 235.822266,29.8710938 C235.771484,29.6914054 235.703125,29.5312507 235.617188,29.390625 C235.53125,29.2499993 235.382814,29.0996102 235.171875,28.9394531 C234.960936,28.7792961 234.689455,28.6367194 234.357422,28.5117188 C234.025389,28.3867181 233.61719,28.3242188 233.132812,28.3242188 C232.445309,28.3242188 231.89258,28.5273417 231.474609,28.9335938 C231.056639,29.3398458 230.847656,29.8164035 230.847656,30.3632812 C230.847656,30.6679703 230.908203,30.9296864 231.029297,31.1484375 C231.150391,31.3671886 231.312499,31.5449212 231.515625,31.6816406 C231.718751,31.8183601 232.003904,31.9414057 232.371094,32.0507812 L234.316406,32.53125 C235.300786,32.7812512 235.978514,32.9960929 236.349609,33.1757812 C236.720705,33.3554696 237.01953,33.6347637 237.246094,34.0136719 C237.472657,34.39258 237.585938,34.8476536 237.585938,35.3789062 C237.585938,36.433599 237.150395,37.3535117 236.279297,38.1386719 C235.408199,38.9238321 234.242195,39.3164062 232.78125,39.3164062 C232.109372,39.3164062 231.214849,39.2148448 230.097656,39.0117188 C229.480466,38.8945307 229.148438,38.8125002 229.101562,38.765625 C229.070312,38.7421874 229.054688,38.7031253 229.054688,38.6484375 C229.054688,38.5937497 229.0625,38.5273441 229.078125,38.4492188 C229.148438,38.1132796 229.195312,37.7851579 229.21875,37.4648438 C229.242188,37.1445296 229.261719,36.4765676 229.277344,35.4609375 L229.277344,35.4609375 Z M241.746094,22.5 C242.113283,22.5 242.423827,22.628905 242.677734,22.8867188 C242.931642,23.1445325 243.058594,23.4570294 243.058594,23.8242188 C243.058594,24.1835955 242.929689,24.4921862 242.671875,24.75 C242.414061,25.0078138 242.105471,25.1367188 241.746094,25.1367188 C241.378904,25.1367188 241.066408,25.0078138 240.808594,24.75 C240.55078,24.4921862 240.421875,24.1835955 240.421875,23.8242188 C240.421875,23.4570294 240.55078,23.1445325 240.808594,22.8867188 C241.066408,22.628905 241.378904,22.5 241.746094,22.5 L241.746094,22.5 Z M238.886719,29.3554688 L238.886719,28.6875 C240.402351,28.5156241 241.675776,28.1875024 242.707031,27.703125 L242.964844,27.890625 C242.902343,29.5546958 242.871094,30.8281206 242.871094,31.7109375 L242.871094,33.84375 C242.910156,35.8750102 242.933594,36.9726554 242.941406,37.1367188 C242.949219,37.5273457 242.992187,37.8124991 243.070312,37.9921875 C243.109375,38.0625004 243.160156,38.1230466 243.222656,38.1738281 C243.285157,38.2246096 243.378906,38.2656248 243.503906,38.296875 C243.550781,38.3046875 243.984371,38.3164062 244.804688,38.3320312 L244.804688,39 C243.617182,38.9453122 242.667972,38.9179688 241.957031,38.9179688 C241.332028,38.9179688 240.308601,38.9453122 238.886719,39 L238.886719,38.3320312 L240,38.3203125 C240.164063,38.3125 240.291015,38.2832034 240.380859,38.2324219 C240.470704,38.1816404 240.539062,38.1171879 240.585938,38.0390625 C240.671875,37.8828117 240.726562,37.6054707 240.75,37.2070312 C240.75,37.1054682 240.773437,35.9843857 240.820312,33.84375 L240.820312,31.78125 C240.820312,30.6171817 240.78125,29.9257823 240.703125,29.7070312 C240.65625,29.5898432 240.572266,29.5019534 240.451172,29.4433594 C240.330078,29.3847653 239.808598,29.3554688 238.886719,29.3554688 L238.886719,29.3554688 Z M245.882812,29.8125 L245.882812,29.3203125 C246.664066,29.023436 247.285154,28.7578137 247.746094,28.5234375 C247.746094,26.6640532 247.722656,25.4765651 247.675781,24.9609375 C248.488285,24.6796861 249.148435,24.3789079 249.65625,24.0585938 L249.9375,24.2929688 C249.851562,24.9414095 249.757813,26.3710827 249.65625,28.5820312 C250.281253,28.5898438 250.656249,28.59375 250.78125,28.59375 C250.851563,28.59375 251.253903,28.5859376 251.988281,28.5703125 C252.394533,28.5625 252.699218,28.5468751 252.902344,28.5234375 L252.984375,28.6054688 L252.738281,29.6953125 C252.246091,29.6875 251.792971,29.6835938 251.378906,29.6835938 C250.964842,29.6835938 250.390629,29.6875 249.65625,29.6953125 L249.585938,34.4648438 C249.5625,35.6289121 249.570312,36.3242176 249.609375,36.5507812 C249.648438,36.7773449 249.722656,36.9746085 249.832031,37.1425781 C249.941407,37.3105477 250.083983,37.445312 250.259766,37.546875 C250.435548,37.648438 250.734373,37.7265622 251.15625,37.78125 C251.476564,37.78125 251.736327,37.7675783 251.935547,37.7402344 C252.134767,37.7128905 252.386717,37.6445318 252.691406,37.5351562 L252.832031,37.9921875 C252.464842,38.2812514 252.109377,38.5820297 251.765625,38.8945312 C251.468749,39.0039068 251.191408,39.0761717 250.933594,39.1113281 C250.67578,39.1464846 250.378908,39.1640625 250.042969,39.1640625 C249.628904,39.1640625 249.298829,39.117188 249.052734,39.0234375 C248.806639,38.929687 248.582032,38.798829 248.378906,38.6308594 C248.17578,38.4628898 248.007813,38.2500013 247.875,37.9921875 C247.742187,37.7343737 247.65625,37.3281278 247.617188,36.7734375 C247.625,36.2421848 247.640625,35.6601594 247.664062,35.0273438 C247.671875,34.9023431 247.675781,34.7656257 247.675781,34.6171875 L247.675781,29.7539062 L247.195312,29.7539062 C246.804686,29.7539062 246.36719,29.7734373 245.882812,29.8125 L245.882812,29.8125 Z M253.699219,45.2695312 L254.296875,43.4648438 L254.578125,43.4648438 C254.726563,43.5898444 254.853515,43.6894528 254.958984,43.7636719 C255.064454,43.837891 255.177734,43.8945311 255.298828,43.9335938 C255.419922,43.9726564 255.597655,43.9921875 255.832031,43.9921875 C256.07422,43.9921875 256.310546,43.9394537 256.541016,43.8339844 C256.771486,43.7285151 256.986327,43.5625011 257.185547,43.3359375 C257.384767,43.1093739 257.621092,42.7187528 257.894531,42.1640625 C258.308596,41.3281208 258.679686,40.4765668 259.007812,39.609375 C258.757811,38.9062465 258.457033,38.1171919 258.105469,37.2421875 L256.242188,32.625 C255.687497,31.2499931 255.234377,30.1953162 254.882812,29.4609375 C254.742187,29.1718736 254.591798,28.9785161 254.431641,28.8808594 C254.271484,28.7832026 253.914065,28.7031253 253.359375,28.640625 L253.359375,27.984375 C254.32813,28.0390628 255.285152,28.0664062 256.230469,28.0664062 C257.152348,28.0664062 258.039058,28.0390628 258.890625,27.984375 L258.890625,28.640625 C258.085933,28.6953128 257.625001,28.7460935 257.507812,28.7929688 C257.304686,28.8710941 257.203125,29.0117177 257.203125,29.2148438 C257.203125,29.3398444 257.269531,29.5976543 257.402344,29.9882812 C257.707033,30.9492236 257.996092,31.7695279 258.269531,32.4492188 L259.007812,34.2773438 C259.453127,35.3710992 259.828123,36.2578091 260.132812,36.9375 L260.753906,35.5546875 C260.996095,35.0078098 261.421872,33.9687577 262.03125,32.4375 C262.640628,30.9062423 262.996093,29.9609393 263.097656,29.6015625 C263.128906,29.4765619 263.144531,29.367188 263.144531,29.2734375 C263.144531,29.1249993 263.083985,29.009766 262.962891,28.9277344 C262.841796,28.8457027 262.371098,28.7656254 261.550781,28.6875 L261.550781,27.984375 C262.457036,28.0390628 263.257809,28.0664062 263.953125,28.0664062 C264.656254,28.0664062 265.351559,28.0390628 266.039062,27.984375 L265.921875,28.6875 C265.523436,28.7031251 265.214845,28.7890617 264.996094,28.9453125 C264.777343,29.1015633 264.447268,29.6269487 264.005859,30.5214844 C263.564451,31.4160201 262.7461,33.1757681 261.550781,35.8007812 L258.84375,42.1289062 C258.406248,43.1523489 258.027345,43.8828103 257.707031,44.3203125 C257.386717,44.7578147 257.003908,45.0898426 256.558594,45.3164062 C256.113279,45.5429699 255.625003,45.65625 255.09375,45.65625 C254.835936,45.65625 254.603517,45.6269534 254.396484,45.5683594 C254.189452,45.5097653 253.957033,45.410157 253.699219,45.2695312 L253.699219,45.2695312 Z" id="Cornell-University" fill="#646464" sketch:type="MSShapeGroup"></path>
            </g>
        </g>
    </g>
</svg>