<?xml version="1.0" encoding="UTF-8" standalone="no"?>
<svg width="188px" height="54px" viewBox="0 0 188 54" version="1.1" xmlns="http://www.w3.org/2000/svg" xmlns:xlink="http://www.w3.org/1999/xlink" xmlns:sketch="http://www.bohemiancoding.com/sketch/ns">
    <!-- Generator: Sketch 3.3.3 (12072) - http://www.bohemiancoding.com/sketch -->
    <title>ucdavis_ip</title>
    <desc>Created with Sketch.</desc>
    <defs></defs>
    <g id="Page-1" stroke="none" stroke-width="1" fill="none" fill-rule="evenodd" sketch:type="MSPage">
        <g id="landing" sketch:type="MSArtboardGroup" transform="translate(-227.000000, -500.000000)" fill="#5E5E5E">
            <g id="ucdavis_ip" sketch:type="MSLayerGroup" transform="translate(227.000000, 500.000000)">
                <path d="M69.323915,12.0320498 L70.5872122,8.67758998 L70.8053832,8.86849135 C71.5796283,9.50295765 72.6306888,10.043377 73.6220577,10.0647832 C74.5087046,10.0851366 74.9419049,9.84826453 74.823918,9.09343211 C74.7369987,8.5302029 74.1034302,8.43089208 73.7079298,8.35298748 L72.8411802,8.17893035 C71.1544567,7.86134628 69.7354727,6.81489799 69.7354727,4.83289264 C69.7354727,1.83461826 72.3050032,0.154054594 74.8898929,0.154054594 C76.24744,0.154054594 77.4943308,0.501467004 78.6602364,1.26437062 L77.5651927,4.23737864 C76.9637389,3.8018849 76.0547514,3.18952666 74.9042049,3.14776699 C74.5258092,3.1333792 73.6580123,3.33305361 73.9362239,4.21737611 C74.0559562,4.59391501 74.5928313,4.75218067 74.9230549,4.83289264 L75.9025553,5.07011566 C77.7299554,5.49859097 79.0532933,6.54433741 79.0532933,8.68566118 C79.0532933,11.6990252 76.4673563,13.1900912 73.8995712,13.1900912 C72.3999512,13.1900912 70.6647065,12.760914 69.323915,12.0320498" id="Fill-1" sketch:type="MSShapeGroup"></path>
                <path d="M63.9928635,0.359343746 L68.393983,0.359343746 L68.393983,13.0005935 L63.9928635,13.0005935 L63.9928635,0.359343746 Z" id="Fill-2" sketch:type="MSShapeGroup"></path>
                <path d="M59.0307828,0.359343746 L63.5383697,0.359343746 L58.9340895,13.0005935 L55.2764967,13.0005935 L50.6872266,0.359343746 L55.1791052,0.359343746 L57.1056421,7.98767806 L59.0307828,0.359343746" id="Fill-3" sketch:type="MSShapeGroup"></path>
                <path d="M40.0108117,13.0005935 L44.5836753,13.0005935 L44.9317017,11.4130241 L48.1937941,11.4130241 L48.6273435,13.0005935 L53.2026506,13.0005935 L48.9202162,0.359343746 L44.1228982,0.359343746 L40.0108117,13.0005935 L40.0108117,13.0005935 Z M46.570253,4.00822682 L46.570253,4.00822682 C46.650889,4.54618967 47.4380498,8.41474968 47.4380498,8.41474968 L45.7080413,8.41474968 L46.570253,4.00822682 L46.570253,4.00822682 Z" id="Fill-4" sketch:type="MSShapeGroup"></path>
                <path d="M33.1344116,9.37101112 L33.4300769,9.37101112 C34.8801285,9.37101112 35.9559732,8.49581258 35.9559732,6.84648093 C35.9559732,5.07011566 35.0026533,4.07946391 33.4098306,4.07946391 L33.1344116,4.07946391 L33.1344116,9.37101112 L33.1344116,9.37101112 Z M28.7039699,0.359343746 L33.212255,0.359343746 C37.2349787,0.359343746 40.3085714,2.21607007 40.3085714,6.86297425 C40.3085714,10.6062552 37.8036195,13.0005935 34.2856562,13.0005935 L28.7039699,12.9935751 L28.7039699,0.359343746 L28.7039699,0.359343746 Z" id="Fill-5" sketch:type="MSShapeGroup"></path>
                <path d="M26.0723043,0.755885184 L26.3068818,2.83053384 C26.3620354,3.3232278 26.6419924,4.50443 26.2960605,4.34616435 C26.079984,4.24860813 25.9019564,3.71310173 25.7256743,3.23760293 C25.6356133,2.995467 25.2073001,1.85356803 25.0952474,1.77004868 C24.5531362,1.36262868 23.2018724,0.903272267 22.2879979,0.899061207 C19.5156556,0.888533558 17.6819722,2.94458337 17.6819722,6.5927646 C17.6819722,9.20958717 18.9281648,12.3485811 22.0981018,12.3485811 C23.2336381,12.3485811 25.4090646,11.9888864 26.0007443,10.3641193 C26.2688328,9.62893851 26.5138824,8.97517152 26.6908627,9.17414408 C26.8228125,9.31872379 26.6514174,9.90757028 26.5721777,10.2248034 C26.198669,11.7306081 26.1787718,12.1875081 26.0604358,12.2454102 C24.6285361,12.9690106 22.7913619,13.2069354 21.1838782,13.2069354 C16.0720449,13.2069354 14.3074781,10.208661 14.3074781,7.21143943 C14.3074781,2.01007908 17.4857929,-0.181426481 22.4115699,0.0431633601 C23.6577625,0.0898359364 24.9053514,0.313022091 26.0723043,0.755885184" id="Fill-6" sketch:type="MSShapeGroup"></path>
                <path d="M10.9794107,0.986791614 L10.1604842,0.699386802 C9.8868105,0.450583369 10.221223,0.381451808 10.221223,0.381451808 C10.221223,0.381451808 11.4042333,0.602181511 14.3511123,0.350921627 C14.3511123,0.350921627 14.6069832,0.402156184 14.430352,0.61060363 L13.4634182,1.0271476 C12.8336895,1.30367384 12.8336895,1.14505727 12.8336895,1.83882932 L12.8281043,8.28139947 C12.8281043,13.3195813 7.7305831,13.2069354 6.73781789,13.2069354 C6.26412507,13.2069354 1.58863378,13.2069354 1.58863378,9.16186183 L1.58863378,2.34240186 C1.58863378,1.15347939 1.71534748,1.18471141 1.32229065,1.04539553 L0.139629425,0.599374138 C0.139629425,0.599374138 -0.0614369469,0.314074856 0.296363454,0.33232278 C1.26294815,0.381451808 2.66203498,0.589548333 5.95310053,0.350921627 C5.95310053,0.350921627 6.23934085,0.42075503 6.05084112,0.629202476 L5.06715183,0.907483326 C4.31803996,1.24506993 4.41682778,0.986791614 4.39727966,1.75987196 L4.42101666,8.48423217 C4.42101666,10.132862 5.26472746,12.1741731 7.9194319,12.1741731 C11.5323433,12.1741731 11.5662034,9.03202082 11.5662034,8.33368679 L11.5728358,1.67284339 C11.611583,1.04539553 11.5323433,1.22401463 10.9794107,0.986791614" id="Fill-7" sketch:type="MSShapeGroup"></path>
                <path d="M6.09238088,21.6188777 C6.00790507,21.5037754 5.91156077,21.4030609 5.80404611,21.3167342 C5.69618238,21.2304075 5.58028996,21.1577667 5.45636885,21.0988119 C5.33209866,21.039857 5.20189422,20.99529 5.06575553,20.9651107 C4.92926777,20.9349315 4.79173278,20.9198418 4.65245243,20.9198418 C4.40146854,20.9198418 4.17247629,20.9651107 3.96512659,21.0556485 C3.75812597,21.1461863 3.5807966,21.2707635 3.43348756,21.429731 C3.28617851,21.5890494 3.17168238,21.7753888 3.08999917,21.9891 C3.00796688,22.2031622 2.96712528,22.4333668 2.96712528,22.6800647 C2.96712528,22.9323774 3.00796688,23.1639856 3.08999917,23.3748895 C3.17168238,23.5861444 3.28757481,23.7679218 3.43767644,23.9198708 C3.587429,24.0721708 3.76755095,24.1911332 3.97734416,24.2778109 C4.18748645,24.3641376 4.42066759,24.407301 4.67688758,24.407301 C4.81058276,24.407301 4.94357978,24.3915095 5.07587866,24.3599266 C5.20817754,24.3283436 5.33489125,24.2830747 5.45636885,24.2241199 C5.57784645,24.165165 5.69234257,24.0946298 5.79985723,24.0125141 C5.90772096,23.9300476 6.00511249,23.8370533 6.09238088,23.7328296 L6.09238088,25.7109748 C5.95624219,25.7520326 5.82778312,25.7909849 5.70805088,25.8281826 C5.58796958,25.8650294 5.47068086,25.8966124 5.35618473,25.9225806 C5.24168861,25.9485488 5.12614526,25.9692531 5.01025283,25.9843428 C4.89436041,25.9994324 4.77253374,26.0068017 4.64442374,26.0068017 C4.20249661,26.0068017 3.77907038,25.9260898 3.37414505,25.7643149 C2.96921972,25.60254 2.60164526,25.3723354 2.27177074,25.0733502 C1.92269718,24.7554152 1.66612811,24.3943169 1.50276168,23.9897042 C1.33904618,23.5854425 1.25736297,23.1460886 1.25736297,22.6716426 C1.25736297,22.2357979 1.3362536,21.8178503 1.49438392,21.4174487 C1.65251424,21.0173981 1.88429909,20.6608617 2.18973845,20.3481905 C2.34542526,20.189223 2.51577316,20.046047 2.70113122,19.9186624 C2.88648928,19.7912779 3.08231955,19.6828431 3.28827295,19.593709 C3.49422636,19.5045749 3.7075103,19.4368471 3.92847387,19.3901745 C4.14943743,19.3435019 4.37005192,19.3203411 4.59101549,19.3203411 C4.85561325,19.3203411 5.11078602,19.3484148 5.35618473,19.4045623 C5.60158345,19.4607097 5.84698216,19.5396671 6.09238088,19.6410834 L6.09238088,21.6188777" id="Fill-9" sketch:type="MSShapeGroup"></path>
                <path d="M10.8261675,19.2792832 C11.1288142,19.2792832 11.4255268,19.3154282 11.715956,19.3880689 C12.0060361,19.4607097 12.2811061,19.5642316 12.5401186,19.6986346 C12.7991312,19.8330376 13.0378975,19.996567 13.2560685,20.1899249 C13.4742395,20.3832827 13.661692,20.601205 13.818426,20.8440428 C13.9751601,21.0865296 14.0980339,21.3504227 14.1866986,21.635371 C14.2750142,21.9206703 14.3193466,22.2235157 14.3193466,22.5442581 C14.3193466,23.0597619 14.2327763,23.5321024 14.0596359,23.9609287 C13.8864954,24.3901058 13.6445874,24.7589244 13.3335628,25.0673846 C13.0228874,25.3754937 12.6539166,25.616226 12.2269997,25.7888794 C11.8004318,25.9615329 11.3333713,26.0482105 10.8261675,26.0482105 C10.4879152,26.0482105 10.1667675,26.0089073 9.86272442,25.9310027 C9.55868135,25.8527472 9.27767713,25.7411541 9.02006084,25.5958725 C8.76244455,25.45024 8.52926341,25.2744283 8.32051742,25.0673846 C8.11177143,24.8603408 7.93479114,24.626627 7.78887839,24.3662431 C7.64261657,24.1055084 7.53021488,23.8226655 7.45132425,23.5170128 C7.37208455,23.2113601 7.33263924,22.8871085 7.33263924,22.5442581 C7.33263924,22.2235157 7.37697158,21.9206703 7.46563627,21.635371 C7.55430095,21.3504227 7.67752392,21.0865296 7.83565425,20.8440428 C7.99378457,20.601205 8.18123707,20.3832827 8.39836083,20.1899249 C8.61513551,19.996567 8.8528546,19.8330376 9.11221626,19.6986346 C9.37122884,19.5642316 9.64594974,19.4607097 9.93637894,19.3880689 C10.2268081,19.3154282 10.5231716,19.2792832 10.8261675,19.2792832 L10.8261675,19.2792832 Z M10.8261675,20.878784 C10.5804197,20.878784 10.3500311,20.9247547 10.1346527,21.0166962 C9.91927434,21.1082868 9.73042554,21.2318112 9.56810633,21.3865676 C9.40578713,21.541675 9.27767713,21.7199432 9.18377634,21.9213722 C9.08952648,22.1228012 9.04240155,22.3333542 9.04240155,22.5526802 C9.04240155,22.82675 9.08952648,23.0797645 9.18377634,23.3113727 C9.27767713,23.542981 9.40578713,23.7430063 9.56810633,23.9117996 C9.73042554,24.080242 9.91927434,24.2118376 10.1346527,24.3065865 C10.3500311,24.4009844 10.5804197,24.4483588 10.8261675,24.4483588 C11.0715662,24.4483588 11.3026529,24.4009844 11.5194275,24.3065865 C11.7362022,24.2118376 11.925051,24.080242 12.0859739,23.9117996 C12.2468968,23.7430063 12.3743087,23.542981 12.4685586,23.3113727 C12.5624593,23.0797645 12.6095843,22.82675 12.6095843,22.5526802 C12.6095843,22.3333542 12.5624593,22.1228012 12.4685586,21.9213722 C12.3743087,21.7199432 12.2468968,21.541675 12.0859739,21.3865676 C11.925051,21.2318112 11.7362022,21.1082868 11.5194275,21.0166962 C11.3026529,20.9247547 11.0715662,20.878784 10.8261675,20.878784 L10.8261675,20.878784 Z" id="Fill-10" sketch:type="MSShapeGroup"></path>
                <path d="M17.3699004,24.4402876 L19.3414679,24.4402876 L19.3414679,25.8383594 L15.7292547,25.8383594 L15.7292547,19.4887835 L17.3699004,19.4887835 L17.3699004,24.4402876" id="Fill-11" sketch:type="MSShapeGroup"></path>
                <path d="M22.4562513,24.4402876 L24.4278188,24.4402876 L24.4278188,25.8383594 L20.8159546,25.8383594 L20.8159546,19.4887835 L22.4562513,19.4887835 L22.4562513,24.4402876" id="Fill-12" sketch:type="MSShapeGroup"></path>
                <path d="M27.5426022,20.8872061 L27.5426022,21.9480422 L29.3958337,21.9480422 L29.3958337,23.346114 L27.5426022,23.346114 L27.5426022,24.4402876 L29.4981123,24.4402876 L29.4981123,25.8383594 L25.9023055,25.8383594 L25.9023055,19.4887835 L29.4981123,19.4887835 L29.4981123,20.8872061 L27.5426022,20.8872061" id="Fill-13" sketch:type="MSShapeGroup"></path>
                <path d="M37.5871939,22.2933491 C37.5816088,22.5239046 37.5721838,22.7470908 37.5585699,22.9639603 C37.544956,23.180479 37.5156338,23.3920847 37.4706034,23.5991285 C37.4255729,23.8061722 37.3613433,24.0090049 37.2782638,24.2076266 C37.1951843,24.4065991 37.0824336,24.6045189 36.9407097,24.8020878 C36.785372,25.0186064 36.6122315,25.2056477 36.4212882,25.3632115 C36.230345,25.5211262 36.0243916,25.6506163 35.803428,25.7520326 C35.5828135,25.853449 35.3496324,25.9281953 35.1038846,25.9762716 C34.8584859,26.0239969 34.6036622,26.0482105 34.3390644,26.0482105 C33.8426818,26.0482105 33.3881881,25.9671476 32.974885,25.8053727 C32.5615819,25.6435979 32.206574,25.4154988 31.9091634,25.1207246 C31.6121018,24.8259505 31.3810151,24.4729233 31.2159033,24.0616432 C31.0507915,23.6507139 30.9684101,23.1955686 30.9684101,22.696558 C30.9684101,22.1810542 31.0514896,21.7129247 31.2179977,21.2921697 C31.3841567,20.8714147 31.618036,20.5120709 31.9192865,20.2148403 C32.2208861,19.9172588 32.5814791,19.6870542 33.0014145,19.5238756 C33.42135,19.3606971 33.886316,19.2792832 34.3963125,19.2792832 C35.0452403,19.2792832 35.6138811,19.4263194 36.102235,19.7210936 C36.5902398,20.0158677 36.97073,20.4608364 37.2433565,21.0556485 L35.684743,21.7094155 C35.627495,21.5588701 35.5552367,21.4216598 35.4679683,21.2981354 C35.3806999,21.1749619 35.2798177,21.0686326 35.1653216,20.9794985 C35.0508254,20.8903644 34.9227154,20.8219347 34.7809916,20.7738584 C34.6389186,20.7261331 34.4849772,20.7019195 34.3184691,20.7019195 C34.0486352,20.7019195 33.8112652,20.7608743 33.6067081,20.878784 C33.402151,20.9966937 33.231105,21.1507483 33.09357,21.3412987 C32.9556859,21.5318492 32.8520111,21.7466132 32.7825454,21.984889 C32.7130798,22.2235157 32.6781724,22.4635461 32.6781724,22.7046292 C32.6781724,22.9513271 32.7144761,23.1934631 32.7867343,23.4306861 C32.8589925,23.6675582 32.9651109,23.8802167 33.1057875,24.0679598 C33.2461151,24.2557028 33.4206519,24.4065991 33.6293979,24.5202977 C33.8381439,24.6339963 34.0772593,24.6908456 34.3470931,24.6908456 C34.5244225,24.6908456 34.6902324,24.6676848 34.8441739,24.6210122 C34.9984644,24.5743397 35.1332068,24.5052081 35.2490992,24.4132666 C35.3653407,24.3216761 35.4599396,24.2069247 35.5335942,24.0700653 C35.6072487,23.9328549 35.6522792,23.7724837 35.6686856,23.5889517 L34.3268469,23.5889517 L34.3268469,22.2933491 L37.5871939,22.2933491" id="Fill-14" sketch:type="MSShapeGroup"></path>
                <path d="M40.6168034,20.8872061 L40.6168034,21.9480422 L42.4700349,21.9480422 L42.4700349,23.346114 L40.6168034,23.346114 L40.6168034,24.4402876 L42.5723135,24.4402876 L42.5723135,25.8383594 L38.9765067,25.8383594 L38.9765067,19.4887835 L42.5723135,19.4887835 L42.5723135,20.8872061 L40.6168034,20.8872061" id="Fill-15" sketch:type="MSShapeGroup"></path>
                <path d="M49.4626765,21.1549593 C49.678753,21.1549593 49.8906407,21.1809275 50.0983395,21.2328639 C50.3053401,21.2844494 50.5015194,21.3584939 50.6865284,21.4546464 C50.8715374,21.550448 51.0422344,21.6673049 51.1979212,21.805568 C51.3532589,21.9431293 51.4873032,22.0989385 51.5993558,22.2722938 C51.7114084,22.4456491 51.7990259,22.634094 51.8622082,22.8376285 C51.9253905,23.0411631 51.9571562,23.2569799 51.9571562,23.4864826 C51.9571562,23.8545994 51.8953702,24.1918351 51.7717981,24.4978388 C51.647877,24.8041933 51.4754347,25.0677355 51.2530748,25.2881143 C51.031064,25.5081421 50.7678626,25.6800937 50.4631213,25.8029163 C50.1583801,25.9264407 49.8250149,25.9882029 49.4626765,25.9882029 C49.2214667,25.9882029 48.9921253,25.9604801 48.7750016,25.9043326 C48.5575288,25.8485361 48.3571605,25.7692278 48.1731988,25.6650041 C47.9895861,25.5614822 47.8227289,25.4355013 47.6736745,25.2881143 C47.5249692,25.1400253 47.3982555,24.9733376 47.2938825,24.7869982 C47.1902076,24.6010097 47.1095716,24.3988789 47.0533708,24.1809565 C46.9968209,23.9623323 46.9685459,23.731075 46.9685459,23.4864826 C46.9685459,23.2569799 47.0003116,23.0411631 47.0634939,22.8376285 C47.1266762,22.634094 47.2149918,22.4456491 47.3277426,22.2722938 C47.4404934,22.0989385 47.5745376,21.9431293 47.7291772,21.805568 C47.8841659,21.6673049 48.0538156,21.550448 48.2388246,21.4546464 C48.4241827,21.3584939 48.6200129,21.2844494 48.8277117,21.2328639 C49.0350614,21.1809275 49.2466,21.1549593 49.4626765,21.1549593 L49.4626765,21.1549593 Z M49.4626765,22.2972092 C49.2874416,22.2972092 49.1230279,22.3298449 48.9690865,22.3954673 C48.8154941,22.4614406 48.6804027,22.549171 48.5648593,22.6597113 C48.4489669,22.7706025 48.3571605,22.8976361 48.2901384,23.041514 C48.2227672,23.1853919 48.1896052,23.3359372 48.1896052,23.4920974 C48.1896052,23.6882626 48.2227672,23.8686363 48.2901384,24.0339204 C48.3571605,24.1995554 48.4489669,24.3420295 48.5648593,24.4627466 C48.6804027,24.5831127 48.8154941,24.6771597 48.9690865,24.7445367 C49.1230279,24.8122645 49.2874416,24.845953 49.4626765,24.845953 C49.6379114,24.845953 49.8030232,24.8122645 49.9576628,24.7445367 C50.1130006,24.6771597 50.2473939,24.5831127 50.3622391,24.4627466 C50.4774334,24.3420295 50.5681925,24.1995554 50.6355637,24.0339204 C50.7025858,23.8686363 50.7364459,23.6882626 50.7364459,23.4920974 C50.7364459,23.3359372 50.7025858,23.1853919 50.6355637,23.041514 C50.5681925,22.8976361 50.4774334,22.7706025 50.3622391,22.6597113 C50.2473939,22.549171 50.1130006,22.4614406 49.9576628,22.3954673 C49.8030232,22.3298449 49.6379114,22.2972092 49.4626765,22.2972092 L49.4626765,22.2972092 Z" id="Fill-16" sketch:type="MSShapeGroup"></path>
                <path d="M53.906732,22.3031749 L53.906732,23.0604638 L55.1948135,23.0604638 L55.1948135,24.0591867 L53.906732,24.0591867 L53.906732,25.8383594 L52.7352412,25.8383594 L52.7352412,21.3048029 L55.3260651,21.3048029 L55.3260651,22.3031749 L53.906732,22.3031749" id="Fill-17" sketch:type="MSShapeGroup"></path>
                <path d="M61.0777502,24.7361145 L60.6438518,25.8383594 L58.9012765,25.8383594 L61.3311776,19.4887835 L63.1229722,19.4887835 L65.5036539,25.8383594 L63.75305,25.8383594 L63.3397469,24.7361145 L61.0777502,24.7361145 L61.0777502,24.7361145 Z M62.2272494,21.4504353 L62.210843,21.4504353 L61.5315458,23.4738494 L62.8978198,23.4738494 L62.2272494,21.4504353 L62.2272494,21.4504353 Z" id="Fill-18" sketch:type="MSShapeGroup"></path>
                <path d="M73.039454,22.2933491 C73.0342179,22.5239046 73.0244438,22.7470908 73.0108299,22.9639603 C72.9972161,23.180479 72.9678939,23.3920847 72.9228634,23.5991285 C72.8778329,23.8061722 72.8139524,24.0090049 72.7308729,24.2076266 C72.6474443,24.4065991 72.5350427,24.6045189 72.3933188,24.8020878 C72.237632,25.0186064 72.0644915,25.2056477 71.8735483,25.3632115 C71.6829541,25.5211262 71.4770007,25.6506163 71.2560371,25.7520326 C71.0350736,25.853449 70.8018924,25.9281953 70.5564937,25.9762716 C70.311095,26.0239969 70.0559222,26.0482105 69.7916735,26.0482105 C69.2952909,26.0482105 68.8404481,25.9671476 68.427145,25.8053727 C68.014191,25.6435979 67.6588341,25.4154988 67.3617725,25.1207246 C67.0643618,24.8259505 66.8332751,24.4729233 66.6681633,24.0616432 C66.5034006,23.6507139 66.4206701,23.1955686 66.4206701,22.696558 C66.4206701,22.1810542 66.5040987,21.7129247 66.6702577,21.2921697 C66.8367658,20.8714147 67.0706451,20.5120709 67.3718956,20.2148403 C67.6731461,19.9172588 68.0337391,19.6870542 68.4540236,19.5238756 C68.8739591,19.3606971 69.3389251,19.2792832 69.8489216,19.2792832 C70.4978494,19.2792832 71.0664902,19.4263194 71.554495,19.7210936 C72.0428489,20.0158677 72.4233391,20.4608364 72.6959656,21.0556485 L71.1373521,21.7094155 C71.0801041,21.5588701 71.0078458,21.4216598 70.9205774,21.2981354 C70.833309,21.1749619 70.7324268,21.0686326 70.6179307,20.9794985 C70.5034345,20.8903644 70.3753245,20.8219347 70.2332516,20.7738584 C70.0915277,20.7261331 69.9375863,20.7019195 69.7710782,20.7019195 C69.5012443,20.7019195 69.2638743,20.7608743 69.0593172,20.878784 C68.8547601,20.9966937 68.683714,21.1507483 68.54583,21.3412987 C68.408295,21.5318492 68.3046202,21.7466132 68.2351545,21.984889 C68.1653398,22.2235157 68.1307815,22.4635461 68.1307815,22.7046292 C68.1307815,22.9513271 68.1667361,23.1934631 68.2389943,23.4306861 C68.3112526,23.6675582 68.41772,23.8802167 68.5580476,24.0679598 C68.6987242,24.2557028 68.873261,24.4065991 69.0816579,24.5202977 C69.2904039,24.6339963 69.5298684,24.6908456 69.7997022,24.6908456 C69.9770316,24.6908456 70.1424925,24.6676848 70.296783,24.6210122 C70.4507244,24.5743397 70.5858159,24.5052081 70.7017083,24.4132666 C70.8176007,24.3216761 70.9121997,24.2069247 70.9862033,24.0700653 C71.0595087,23.9328549 71.1045392,23.7724837 71.1209457,23.5889517 L69.7791069,23.5889517 L69.7791069,22.2933491 L73.039454,22.2933491" id="Fill-19" sketch:type="MSShapeGroup"></path>
                <path d="M80.0167363,25.8383594 L77.9711652,25.8383594 L76.4247694,23.3955939 L76.4045231,23.3955939 L76.4045231,25.8383594 L74.7642264,25.8383594 L74.7642264,19.4887835 L77.2185626,19.4887835 C77.5295872,19.4887835 77.8193182,19.5273848 78.0877558,19.6038857 C78.3565425,19.6807376 78.5890254,19.7986472 78.7852048,19.9576147 C78.9817332,20.1165822 79.1356746,20.3187131 79.2473782,20.5643582 C79.3594308,20.8096525 79.4152826,21.1023211 79.4152826,21.4423641 C79.4152826,21.6616902 79.3852622,21.8704885 79.3252216,22.0694611 C79.2651809,22.2680827 79.1765162,22.4470528 79.0592275,22.6060203 C78.9422879,22.7649878 78.7974224,22.8993907 78.6256782,23.0088783 C78.453934,23.1187168 78.2563583,23.1941649 78.0326022,23.2352227 L80.0167363,25.8383594 L80.0167363,25.8383594 Z M76.4045231,22.3347578 L76.5640497,22.3347578 C76.6977449,22.3347578 76.8328364,22.3256339 76.968975,22.3077369 C77.1054628,22.2901908 77.2279876,22.2529931 77.3372476,22.1968456 C77.4461586,22.1406982 77.5348233,22.061039 77.6028926,21.9582189 C77.671311,21.8553989 77.7051712,21.7178376 77.7051712,21.5451842 C77.7051712,21.3721798 77.671311,21.2339167 77.6028926,21.129693 C77.5348233,21.0254693 77.4461586,20.9454591 77.3372476,20.8889607 C77.2279876,20.8328133 77.1054628,20.7959665 76.968975,20.7780695 C76.8328364,20.7601725 76.6977449,20.7513995 76.5640497,20.7513995 L76.4045231,20.7513995 L76.4045231,22.3347578 L76.4045231,22.3347578 Z" id="Fill-20" sketch:type="MSShapeGroup"></path>
                <path d="M81.4423527,19.4887835 L83.0826494,19.4887835 L83.0826494,25.8383594 L81.4423527,25.8383594 L81.4423527,19.4887835 Z" id="Fill-21" sketch:type="MSShapeGroup"></path>
                <path d="M89.4874511,21.6188777 C89.4029753,21.5037754 89.3069801,21.4030609 89.1991164,21.3167342 C89.0916017,21.2304075 88.9757093,21.1577667 88.8514391,21.0988119 C88.727518,21.039857 88.5973135,20.99529 88.4608258,20.9651107 C88.324338,20.9349315 88.186803,20.9198418 88.0475227,20.9198418 C87.7968879,20.9198418 87.5675465,20.9651107 87.3605459,21.0556485 C87.1531962,21.1461863 86.9758668,21.2707635 86.8285578,21.429731 C86.6812488,21.5890494 86.5667526,21.7753888 86.4850694,21.9891 C86.4030371,22.2031622 86.3621955,22.4333668 86.3621955,22.6800647 C86.3621955,22.9323774 86.4030371,23.1639856 86.4850694,23.3748895 C86.5667526,23.5861444 86.682645,23.7679218 86.8327467,23.9198708 C86.9828483,24.0721708 87.1626212,24.1911332 87.3727635,24.2778109 C87.5825567,24.3641376 87.8157378,24.407301 88.0723069,24.407301 C88.205653,24.407301 88.33865,24.3915095 88.4709489,24.3599266 C88.6032478,24.3283436 88.7299615,24.2830747 88.8514391,24.2241199 C88.9729167,24.165165 89.0874128,24.0946298 89.1949275,24.0125141 C89.3027912,23.9300476 89.4001827,23.8370533 89.4874511,23.7328296 L89.4874511,25.7109748 C89.3513124,25.7520326 89.2232024,25.7909849 89.1031211,25.8281826 C88.9830398,25.8650294 88.8657511,25.8966124 88.751255,25.9225806 C88.6367588,25.9485488 88.5215646,25.9692531 88.4056722,25.9843428 C88.2897797,25.9994324 88.167604,26.0068017 88.039494,26.0068017 C87.5975669,26.0068017 87.1741406,25.9260898 86.7692153,25.7643149 C86.36429,25.60254 85.9967155,25.3723354 85.666841,25.0733502 C85.3177674,24.7554152 85.0615474,24.3943169 84.8978319,23.9897042 C84.7341164,23.5854425 84.6524332,23.1460886 84.6524332,22.6716426 C84.6524332,22.2357979 84.7313238,21.8178503 84.8894542,21.4174487 C85.0479336,21.0173981 85.2797184,20.6608617 85.5851578,20.3481905 C85.7404955,20.189223 85.9108434,20.046047 86.0965505,19.9186624 C86.2819086,19.7912779 86.4773898,19.6828431 86.6833432,19.593709 C86.8892966,19.5045749 87.1025805,19.4368471 87.3235441,19.3901745 C87.5445077,19.3435019 87.7654712,19.3203411 87.9864348,19.3203411 C88.2510326,19.3203411 88.5058563,19.3484148 88.751255,19.4045623 C88.9966537,19.4607097 89.2420524,19.5396671 89.4874511,19.6410834 L89.4874511,21.6188777" id="Fill-22" sketch:type="MSShapeGroup"></path>
                <path d="M96.9262087,19.4887835 L96.9262087,23.0583582 C96.9262087,23.2639983 96.9213217,23.466831 96.9118967,23.6668563 C96.9024717,23.8672326 96.8759421,24.062345 96.8323079,24.2528955 C96.7883247,24.4434459 96.7223498,24.6273288 96.6336851,24.8041933 C96.5450204,24.9807069 96.4231937,25.145991 96.2675069,25.2996947 C96.1366043,25.4312903 95.987899,25.5414797 95.82174,25.6306138 C95.6552319,25.7197479 95.4806951,25.7923886 95.2981296,25.8485361 C95.1152151,25.9046836 94.9277626,25.9453905 94.7357721,25.969955 C94.5434326,25.9945195 94.3559801,26.0068017 94.1730655,26.0068017 C93.9877075,26.0068017 93.7988587,25.9945195 93.6065192,25.969955 C93.4141796,25.9453905 93.2274253,25.9046836 93.0462561,25.8485361 C92.8647378,25.7923886 92.6908992,25.7197479 92.5247402,25.6306138 C92.3582321,25.5414797 92.2095268,25.4312903 92.0786242,25.2996947 C91.9204938,25.145991 91.7972709,24.9807069 91.7086062,24.8041933 C91.6199415,24.6273288 91.5536175,24.4434459 91.5099833,24.2528955 C91.4663491,24.062345 91.4398196,23.8672326 91.4303946,23.6668563 C91.4209696,23.466831 91.4160825,23.2639983 91.4160825,23.0583582 L91.4160825,19.4887835 L93.0563792,19.4887835 L93.0563792,22.8323647 C93.0563792,22.9692241 93.05987,23.1078382 93.0665024,23.247505 C93.0734838,23.3875227 93.088494,23.5208729 93.1115328,23.6486084 C93.1349208,23.775993 93.1701772,23.8953063 93.2180003,24.0061976 C93.2658234,24.1174397 93.3311001,24.2139432 93.4141796,24.2960588 C93.4976082,24.3785254 93.6005849,24.4427441 93.7231097,24.4894166 C93.8459836,24.5360892 93.9960852,24.55925 94.1730655,24.55925 C94.3476023,24.55925 94.4970058,24.5360892 94.6209269,24.4894166 C94.7451971,24.4427441 94.8481738,24.3785254 94.929857,24.2960588 C95.0118893,24.2139432 95.0764679,24.1174397 95.124291,24.0061976 C95.1721141,23.8953063 95.2080687,23.775993 95.2325038,23.6486084 C95.257288,23.5208729 95.2722982,23.3875227 95.2775343,23.247505 C95.2831195,23.1078382 95.2859121,22.9692241 95.2859121,22.8323647 L95.2859121,19.4887835 L96.9262087,19.4887835" id="Fill-23" sketch:type="MSShapeGroup"></path>
                <path d="M100.594274,24.4402876 L102.565841,24.4402876 L102.565841,25.8383594 L98.953977,25.8383594 L98.953977,19.4887835 L100.594274,19.4887835 L100.594274,24.4402876" id="Fill-24" sketch:type="MSShapeGroup"></path>
                <path d="M106.107891,25.8383594 L104.467245,25.8383594 L104.467245,20.8872061 L103.109349,20.8872061 L103.109349,19.4887835 L107.465787,19.4887835 L107.465787,20.8872061 L106.107891,20.8872061 L106.107891,25.8383594" id="Fill-25" sketch:type="MSShapeGroup"></path>
                <path d="M114.45389,19.4887835 L114.45389,23.0583582 C114.45389,23.2639983 114.449003,23.466831 114.439578,23.6668563 C114.429804,23.8672326 114.403275,24.062345 114.359641,24.2528955 C114.316006,24.4434459 114.250031,24.6273288 114.161367,24.8041933 C114.072702,24.9807069 113.950526,25.145991 113.795189,25.2996947 C113.664286,25.4312903 113.515581,25.5414797 113.349422,25.6306138 C113.182914,25.7197479 113.008377,25.7923886 112.825811,25.8485361 C112.642897,25.9046836 112.455444,25.9453905 112.263105,25.969955 C112.071114,25.9945195 111.883662,26.0068017 111.700747,26.0068017 C111.515389,26.0068017 111.32654,25.9945195 111.134201,25.969955 C110.941861,25.9453905 110.755107,25.9046836 110.573938,25.8485361 C110.39242,25.7923886 110.218581,25.7197479 110.052073,25.6306138 C109.885914,25.5414797 109.737208,25.4312903 109.606306,25.2996947 C109.448176,25.145991 109.324603,24.9807069 109.236288,24.8041933 C109.147623,24.6273288 109.081299,24.4434459 109.037665,24.2528955 C108.994031,24.062345 108.967501,23.8672326 108.958076,23.6668563 C108.948302,23.466831 108.943764,23.2639983 108.943764,23.0583582 L108.943764,19.4887835 L110.584061,19.4887835 L110.584061,22.8323647 C110.584061,22.9692241 110.587552,23.1078382 110.594184,23.247505 C110.601166,23.3875227 110.616176,23.5208729 110.639215,23.6486084 C110.662602,23.775993 110.697859,23.8953063 110.745682,24.0061976 C110.793505,24.1174397 110.858782,24.2139432 110.941861,24.2960588 C111.02529,24.3785254 111.128267,24.4427441 111.250791,24.4894166 C111.373665,24.5360892 111.523418,24.55925 111.700747,24.55925 C111.875284,24.55925 112.024687,24.5360892 112.148609,24.4894166 C112.272879,24.4427441 112.375856,24.3785254 112.457539,24.2960588 C112.539222,24.2139432 112.60415,24.1174397 112.651973,24.0061976 C112.699796,23.8953063 112.73575,23.775993 112.760185,23.6486084 C112.78497,23.5208729 112.79998,23.3875227 112.805216,23.247505 C112.810801,23.1078382 112.813594,22.9692241 112.813594,22.8323647 L112.813594,19.4887835 L114.45389,19.4887835" id="Fill-26" sketch:type="MSShapeGroup"></path>
                <path d="M121.73382,25.8383594 L119.688598,25.8383594 L118.142202,23.3955939 L118.121955,23.3955939 L118.121955,25.8383594 L116.48131,25.8383594 L116.48131,19.4887835 L118.935995,19.4887835 C119.24667,19.4887835 119.536401,19.5273848 119.805188,19.6038857 C120.073626,19.6807376 120.306109,19.7986472 120.502637,19.9576147 C120.698816,20.1165822 120.853107,20.3187131 120.96481,20.5643582 C121.076863,20.8096525 121.132715,21.1023211 121.132715,21.4423641 C121.132715,21.6616902 121.102695,21.8704885 121.042654,22.0694611 C120.982613,22.2680827 120.893949,22.4470528 120.77666,22.6060203 C120.659371,22.7649878 120.514855,22.8993907 120.34311,23.0088783 C120.171366,23.1187168 119.973442,23.1941649 119.750034,23.2352227 L121.73382,25.8383594 L121.73382,25.8383594 Z M118.121955,22.3347578 L118.281482,22.3347578 C118.415177,22.3347578 118.54992,22.3256339 118.686407,22.3077369 C118.822546,22.2901908 118.94542,22.2529931 119.05468,22.1968456 C119.163591,22.1406982 119.252256,22.061039 119.320325,21.9582189 C119.388743,21.8553989 119.422603,21.7178376 119.422603,21.5451842 C119.422603,21.3721798 119.388743,21.2339167 119.320325,21.129693 C119.252256,21.0254693 119.163591,20.9454591 119.05468,20.8889607 C118.94542,20.8328133 118.822546,20.7959665 118.686407,20.7780695 C118.54992,20.7601725 118.415177,20.7513995 118.281482,20.7513995 L118.121955,20.7513995 L118.121955,22.3347578 L118.121955,22.3347578 Z" id="Fill-27" sketch:type="MSShapeGroup"></path>
                <path d="M125.052462,24.7361145 L124.618913,25.8383594 L122.876337,25.8383594 L125.306238,19.4887835 L127.098033,19.4887835 L129.478715,25.8383594 L127.727762,25.8383594 L127.314808,24.7361145 L125.052462,24.7361145 L125.052462,24.7361145 Z M126.201961,21.4504353 L126.185555,21.4504353 L125.506607,23.4738494 L126.872881,23.4738494 L126.201961,21.4504353 L126.201961,21.4504353 Z" id="Fill-28" sketch:type="MSShapeGroup"></path>
                <path d="M132.572903,24.4402876 L134.544819,24.4402876 L134.544819,25.8383594 L130.932606,25.8383594 L130.932606,19.4887835 L132.572903,19.4887835 L132.572903,24.4402876" id="Fill-29" sketch:type="MSShapeGroup"></path>
                <path d="M2.57092678,34.8773986 L2.26129853,35.6641649 L1.01720036,35.6641649 L2.75244504,31.1306084 L4.03145057,31.1306084 L5.73108974,35.6641649 L4.48140639,35.6641649 L4.18609015,34.8773986 L2.57092678,34.8773986 L2.57092678,34.8773986 Z M3.3919478,32.5311366 L3.38042837,32.5311366 L2.89521612,33.975881 L3.87087673,33.975881 L3.3919478,32.5311366 L3.3919478,32.5311366 Z" id="Fill-30" sketch:type="MSShapeGroup"></path>
                <path d="M6.30426853,31.1306084 L7.4757594,31.1306084 L9.6253544,33.9021874 L9.63687382,33.9021874 L9.63687382,31.1306084 L10.8083647,31.1306084 L10.8083647,35.6641649 L9.63687382,35.6641649 L7.49042049,32.8862693 L7.4757594,32.8862693 L7.4757594,35.6641649 L6.30426853,35.6641649 L6.30426853,31.1306084" id="Fill-31" sketch:type="MSShapeGroup"></path>
                <path d="M11.8161401,31.1306084 L13.4777302,31.1306084 C13.6861271,31.1306084 13.8878917,31.1569275 14.0823256,31.2099167 C14.2771087,31.2625549 14.4600232,31.3376522 14.6300221,31.4345065 C14.80037,31.5313609 14.9557077,31.6485687 15.0960353,31.7854282 C15.2360138,31.9226385 15.355746,32.0749385 15.455232,32.2433809 C15.5547179,32.4118233 15.6318632,32.5936007 15.6873659,32.7883622 C15.7432176,32.9827728 15.7707945,33.1856055 15.7707945,33.3975621 C15.7707945,33.6088169 15.7432176,33.8120006 15.6873659,34.0067621 C15.6318632,34.2015236 15.5543688,34.383301 15.4538357,34.5510415 C15.3533025,34.7198348 15.2332212,34.8724857 15.0928936,35.0096961 C14.9529151,35.1462046 14.7982755,35.2630615 14.6286258,35.3602668 C14.4593251,35.4571211 14.2771087,35.5318675 14.0823256,35.5845057 C13.8878917,35.6378458 13.6861271,35.6641649 13.4777302,35.6641649 L11.8161401,35.6641649 L11.8161401,31.1306084 L11.8161401,31.1306084 Z M12.9872819,34.6657929 L13.2532759,34.6657929 C13.4285109,34.6657929 13.5939717,34.6415793 13.7510548,34.5920993 C13.9077889,34.5436722 14.0446257,34.4671712 14.1626126,34.3632984 C14.2805994,34.2597766 14.3748493,34.1281809 14.444664,33.9685116 C14.5144787,33.8088423 14.5500842,33.6186427 14.5500842,33.3975621 C14.5500842,33.1940276 14.5179694,33.012952 14.4547871,32.8553882 C14.3919539,32.6981753 14.3032892,32.5655269 14.1891421,32.457794 C14.0753442,32.3500611 13.9399036,32.2682963 13.7828205,32.2124998 C13.6260865,32.1570542 13.4536442,32.1289804 13.2647954,32.1289804 L12.9872819,32.1289804 L12.9872819,34.6657929 L12.9872819,34.6657929 Z" id="Fill-32" sketch:type="MSShapeGroup"></path>
                <path d="M21.4467306,30.7130117 L21.4467306,31.7738478 L23.2999621,31.7738478 L23.2999621,33.1719195 L21.4467306,33.1719195 L21.4467306,34.2660931 L23.4022407,34.2660931 L23.4022407,35.6641649 L19.8064339,35.6641649 L19.8064339,29.314589 L23.4022407,29.314589 L23.4022407,30.7130117 L21.4467306,30.7130117" id="Fill-33" sketch:type="MSShapeGroup"></path>
                <path d="M25.2453491,29.314589 L26.8856457,29.314589 L29.8964052,33.196835 L29.9128117,33.196835 L29.9128117,29.314589 L31.5534574,29.314589 L31.5534574,35.6641649 L29.9128117,35.6641649 L26.9062411,31.7738478 L26.8856457,31.7738478 L26.8856457,35.6641649 L25.2453491,35.6641649 L25.2453491,29.314589" id="Fill-34" sketch:type="MSShapeGroup"></path>
                <path d="M36.0743091,33.1719195 L37.6081383,29.314589 L39.3919042,29.314589 L36.6960091,35.6641649 L35.4197962,35.6641649 L32.7647427,29.314589 L34.5523484,29.314589 L36.0743091,33.1719195" id="Fill-35" sketch:type="MSShapeGroup"></path>
                <path d="M40.6077275,29.314589 L42.2480241,29.314589 L42.2480241,35.6641649 L40.6077275,35.6641649 L40.6077275,29.314589 Z" id="Fill-36" sketch:type="MSShapeGroup"></path>
                <path d="M49.3980979,35.6641649 L47.3525268,35.6641649 L45.80648,33.2213995 L45.7858847,33.2213995 L45.7858847,35.6641649 L44.145588,35.6641649 L44.145588,29.314589 L46.5999242,29.314589 C46.9109488,29.314589 47.2006798,29.3531904 47.4691174,29.4296913 C47.737904,29.5065431 47.970387,29.6244528 48.1665664,29.7834203 C48.3630948,29.9423878 48.5170362,30.1445186 48.6290888,30.3901638 C48.7407924,30.635458 48.7966442,30.9281266 48.7966442,31.2681697 C48.7966442,31.4874957 48.7666238,31.6962941 48.7065832,31.8952666 C48.6465425,32.0938883 48.5578778,32.2728583 48.4405891,32.4318258 C48.3236495,32.5907933 48.1787839,32.7251963 48.0070398,32.8346838 C47.8352956,32.9445223 47.6377199,33.0199705 47.4139638,33.0610283 L49.3980979,35.6641649 L49.3980979,35.6641649 Z M45.7858847,32.1605634 L45.9454113,32.1605634 C46.0791065,32.1605634 46.2141979,32.1514394 46.3503366,32.1335424 C46.4868244,32.1159963 46.6093492,32.0787986 46.7186092,32.0226512 C46.8275202,31.9665037 46.9161849,31.8868445 46.9846033,31.7840245 C47.0526726,31.6812044 47.0868818,31.5436432 47.0868818,31.3709897 C47.0868818,31.1979854 47.0526726,31.0597222 46.9846033,30.9554985 C46.9161849,30.8512748 46.8275202,30.7709137 46.7186092,30.7147663 C46.6093492,30.6586188 46.4868244,30.6217721 46.3503366,30.6038751 C46.2141979,30.585978 46.0791065,30.577205 45.9454113,30.577205 L45.7858847,30.577205 L45.7858847,32.1605634 L45.7858847,32.1605634 Z" id="Fill-37" sketch:type="MSShapeGroup"></path>
                <path d="M53.6763435,29.1050888 C53.9789903,29.1050888 54.2753537,29.1412337 54.5657829,29.2138745 C54.8562121,29.2865153 55.130933,29.3900371 55.3902947,29.5244401 C55.6493072,29.6588431 55.8880736,29.8223726 56.1062445,30.0157304 C56.3240664,30.2090882 56.511868,30.4270106 56.668602,30.6698483 C56.8253361,30.9123352 56.94821,31.1762282 57.0365256,31.4611766 C57.1251903,31.7464759 57.1695226,32.0493212 57.1695226,32.3700636 C57.1695226,32.8855675 57.0829524,33.357908 56.9098119,33.7867342 C56.7366714,34.2159114 56.4947634,34.58473 56.1837389,34.8931901 C55.8730634,35.2016502 55.5040926,35.4420315 55.0771757,35.614685 C54.6506078,35.7873384 54.1835474,35.874016 53.6763435,35.874016 C53.3380912,35.874016 53.0169435,35.8347128 52.7129004,35.7568082 C52.4088574,35.6785527 52.1278532,35.5669596 51.8702369,35.4216781 C51.6126206,35.2760456 51.3794394,35.1002339 51.1706934,34.8931901 C50.9619475,34.6861463 50.7846181,34.4524325 50.6387053,34.1920487 C50.4927926,33.9313139 50.3803909,33.6484711 50.3015003,33.3428183 C50.2222606,33.0371656 50.1828153,32.712914 50.1828153,32.3700636 C50.1828153,32.0493212 50.2271476,31.7464759 50.3158123,31.4611766 C50.4041279,31.1762282 50.5276999,30.9123352 50.6858303,30.6698483 C50.8439606,30.4270106 51.0314131,30.2090882 51.2481878,30.0157304 C51.4653115,29.8223726 51.7030306,29.6588431 51.9620432,29.5244401 C52.2214049,29.3900371 52.4961258,29.2865153 52.786555,29.2138745 C53.0769842,29.1412337 53.3733476,29.1050888 53.6763435,29.1050888 L53.6763435,29.1050888 Z M53.6763435,30.7045896 C53.4309448,30.7045896 53.2002071,30.7505603 52.9848287,30.8425018 C52.7694504,30.9340923 52.5806016,31.0576167 52.4182824,31.2123732 C52.2559631,31.3674805 52.1278532,31.5457487 52.0339524,31.7471777 C51.9397025,31.9486067 51.8925776,32.1591597 51.8925776,32.3784857 C51.8925776,32.6525555 51.9397025,32.90557 52.0339524,33.1371783 C52.1278532,33.3687865 52.2559631,33.5688119 52.4182824,33.7376052 C52.5806016,33.9060476 52.7694504,34.0376432 52.9848287,34.132392 C53.2002071,34.2267899 53.4309448,34.2741643 53.6763435,34.2741643 C53.9217422,34.2741643 54.1528289,34.2267899 54.3696036,34.132392 C54.5863782,34.0376432 54.775227,33.9060476 54.93615,33.7376052 C55.0970729,33.5688119 55.2244847,33.3687865 55.3187346,33.1371783 C55.4126354,32.90557 55.4597603,32.6525555 55.4597603,32.3784857 C55.4597603,32.1591597 55.4126354,31.9486067 55.3187346,31.7471777 C55.2244847,31.5457487 55.0970729,31.3674805 54.93615,31.2123732 C54.775227,31.0576167 54.5863782,30.9340923 54.3696036,30.8425018 C54.1528289,30.7505603 53.9217422,30.7045896 53.6763435,30.7045896 L53.6763435,30.7045896 Z" id="Fill-38" sketch:type="MSShapeGroup"></path>
                <path d="M58.9145413,29.314589 L60.5551871,29.314589 L63.5659466,33.196835 L63.5820039,33.196835 L63.5820039,29.314589 L65.2226497,29.314589 L65.2226497,35.6641649 L63.5820039,35.6641649 L60.5754334,31.7738478 L60.5551871,31.7738478 L60.5551871,35.6641649 L58.9145413,35.6641649 L58.9145413,29.314589" id="Fill-39" sketch:type="MSShapeGroup"></path>
                <path d="M67.7974163,29.314589 L69.4132778,29.314589 L70.6975194,32.7072993 L72.0515758,29.314589 L73.6880326,29.314589 L74.6410035,35.6641649 L73.0007068,35.6641649 L72.5385334,32.0082634 L72.5221269,32.0082634 L71.0043551,35.6641649 L70.354031,35.6641649 L68.901885,32.0082634 L68.8854786,32.0082634 L68.3576793,35.6641649 L66.7254114,35.6641649 L67.7974163,29.314589" id="Fill-40" sketch:type="MSShapeGroup"></path>
                <path d="M77.8064025,30.7130117 L77.8064025,31.7738478 L79.659285,31.7738478 L79.659285,33.1719195 L77.8064025,33.1719195 L77.8064025,34.2660931 L79.7615635,34.2660931 L79.7615635,35.6641649 L76.1657568,35.6641649 L76.1657568,29.314589 L79.7615635,29.314589 L79.7615635,30.7130117 L77.8064025,30.7130117" id="Fill-41" sketch:type="MSShapeGroup"></path>
                <path d="M81.6046719,29.314589 L83.2453177,29.314589 L86.2560772,33.196835 L86.2721345,33.196835 L86.2721345,29.314589 L87.9127803,29.314589 L87.9127803,35.6641649 L86.2721345,35.6641649 L83.265564,31.7738478 L83.2453177,31.7738478 L83.2453177,35.6641649 L81.6046719,35.6641649 L81.6046719,29.314589" id="Fill-42" sketch:type="MSShapeGroup"></path>
                <path d="M92.2350091,35.6641649 L90.5947125,35.6641649 L90.5947125,30.7130117 L89.2368163,30.7130117 L89.2368163,29.314589 L93.5932544,29.314589 L93.5932544,30.7130117 L92.2350091,30.7130117 L92.2350091,35.6641649" id="Fill-43" sketch:type="MSShapeGroup"></path>
                <path d="M96.125783,34.5619201 L95.6922337,35.6641649 L93.9496585,35.6641649 L96.3795595,29.314589 L98.171005,29.314589 L100.552036,35.6641649 L98.8010828,35.6641649 L98.3877797,34.5619201 L96.125783,34.5619201 L96.125783,34.5619201 Z M97.2752823,31.2762409 L97.2588758,31.2762409 L96.5799278,33.299655 L97.9462017,33.299655 L97.2752823,31.2762409 L97.2752823,31.2762409 Z" id="Fill-44" sketch:type="MSShapeGroup"></path>
                <path d="M103.646224,34.2660931 L105.617791,34.2660931 L105.617791,35.6641649 L102.005927,35.6641649 L102.005927,29.314589 L103.646224,29.314589 L103.646224,34.2660931" id="Fill-45" sketch:type="MSShapeGroup"></path>
                <path d="M114.169745,30.9474273 C114.017199,30.8210955 113.848248,30.7196792 113.662541,30.6428274 C113.477183,30.5663264 113.283447,30.5277251 113.081682,30.5277251 C113.005235,30.5277251 112.926345,30.5386036 112.844661,30.5607117 C112.762629,30.5824688 112.68688,30.6154555 112.617414,30.6593207 C112.547949,30.7031859 112.490701,30.7586315 112.44567,30.8260084 C112.40064,30.8930345 112.378299,30.9705882 112.378299,31.0583186 C112.378299,31.1516637 112.402734,31.230972 112.451954,31.2969453 C112.500824,31.3625676 112.562261,31.4187151 112.635915,31.4653876 C112.70957,31.5120602 112.78846,31.5510125 112.873285,31.5825955 C112.957761,31.6141784 113.035255,31.6408485 113.106466,31.6629565 L113.523609,31.7903411 C113.744573,31.8559634 113.949828,31.9349208 114.139026,32.0268622 C114.328922,32.1184528 114.492987,32.2332042 114.632267,32.3700636 C114.771198,32.507274 114.880807,32.6697507 114.961443,32.8574937 C115.04173,33.0452368 115.082223,33.268072 115.082223,33.5256485 C115.082223,33.6818086 115.071751,33.8390215 115.051504,33.9965853 C115.030909,34.1541491 114.995653,34.307151 114.945037,34.4552399 C114.89477,34.6029779 114.82705,34.7436975 114.742574,34.8766968 C114.658098,35.0096961 114.553027,35.1293603 114.42771,35.2363914 C114.179519,35.4476463 113.899213,35.5995953 113.586792,35.6929405 C113.27472,35.7862856 112.957761,35.8326073 112.635915,35.8326073 C112.237622,35.8326073 111.849103,35.7690905 111.47001,35.641355 C111.090916,35.5139705 110.73905,35.3364041 110.41476,35.1090069 L111.118143,33.7765575 C111.221818,33.8670953 111.329682,33.9520183 111.441386,34.0316775 C111.553089,34.1109858 111.670378,34.1808192 111.793252,34.2411777 C111.915777,34.3015362 112.042839,34.3489107 112.173742,34.383301 C112.304644,34.4173404 112.439387,34.4345355 112.578667,34.4345355 C112.673964,34.4345355 112.76961,34.4222533 112.864908,34.3976888 C112.960554,34.3727733 113.045728,34.3345229 113.120778,34.2822355 C113.19548,34.2302991 113.256219,34.163624 113.302646,34.0829121 C113.349073,34.0022001 113.372111,33.9053457 113.372111,33.7930508 C113.372111,33.6779485 113.336855,33.5803923 113.265993,33.501084 C113.194782,33.4214248 113.108212,33.3536969 113.005933,33.2975495 C112.903655,33.241402 112.795442,33.1954313 112.680946,33.1596373 C112.56645,33.1241942 112.465567,33.0940149 112.378299,33.0690995 C112.118937,32.995055 111.884709,32.9185541 111.674567,32.8388949 C111.464424,32.7595866 111.28535,32.654661 111.136644,32.5244691 C110.987939,32.3942772 110.872745,32.2303968 110.791062,32.0328279 C110.709029,31.83561 110.668188,31.5832973 110.668188,31.2762409 C110.668188,30.9554985 110.721945,30.6635317 110.829809,30.4003405 C110.937672,30.1371493 111.088123,29.9129104 111.281859,29.7279747 C111.475595,29.543039 111.705285,29.399512 111.971279,29.2980957 C112.236924,29.1966793 112.528052,29.1461466 112.844661,29.1461466 C113.002792,29.1461466 113.168951,29.1584289 113.343487,29.1829934 C113.518024,29.2075579 113.691165,29.2426501 113.862909,29.287919 C114.035002,29.3331878 114.202557,29.3879316 114.366273,29.4525012 C114.529988,29.5167199 114.682534,29.5886588 114.824257,29.668318 L114.169745,30.9474273" id="Fill-46" sketch:type="MSShapeGroup"></path>
                <path d="M121.151216,31.4446833 C121.066391,31.329581 120.970396,31.2288665 120.862532,31.1425397 C120.755017,31.056213 120.639125,30.9835723 120.514855,30.9246174 C120.390934,30.8656626 120.260729,30.8210955 120.124241,30.7909163 C119.987754,30.760737 119.850219,30.7456474 119.711287,30.7456474 C119.460303,30.7456474 119.230962,30.7909163 119.023961,30.8814541 C118.816612,30.9719918 118.639282,31.096569 118.491973,31.2555365 C118.344664,31.4148549 118.230168,31.6011943 118.148485,31.8149056 C118.066802,32.0289678 118.025611,32.2591724 118.025611,32.5058703 C118.025611,32.7581829 118.066802,32.9897912 118.148485,33.2006951 C118.230168,33.4119499 118.346061,33.5937273 118.496162,33.7456764 C118.646264,33.8979764 118.826037,34.0172897 119.036179,34.1036164 C119.245972,34.1899432 119.479153,34.2331065 119.735722,34.2331065 C119.869418,34.2331065 120.002066,34.217315 120.134364,34.1857321 C120.266663,34.1541491 120.393377,34.1088803 120.514855,34.0499254 C120.636332,33.9909706 120.750828,33.9204353 120.858692,33.8383197 C120.966207,33.7558531 121.063598,33.6628589 121.151216,33.5586351 L121.151216,35.5367804 C121.014728,35.5778382 120.886618,35.6167905 120.766537,35.6539882 C120.646455,35.690835 120.529167,35.7224179 120.414671,35.7483861 C120.300174,35.7743543 120.18498,35.7950587 120.069088,35.8101483 C119.953195,35.8252379 119.83102,35.8326073 119.70291,35.8326073 C119.260982,35.8326073 118.837556,35.7518953 118.432631,35.5901204 C118.027706,35.4283456 117.660131,35.198141 117.330257,34.8991558 C116.981183,34.5812208 116.724963,34.2201224 116.561248,33.8155098 C116.397532,33.4112481 116.315849,32.9718942 116.315849,32.4974481 C116.315849,32.0616035 116.394739,31.6436558 116.553219,31.2432543 C116.711349,30.8432036 116.943134,30.4866672 117.248573,30.1739961 C117.403911,30.0150286 117.574259,29.8718525 117.759966,29.744468 C117.945324,29.6170834 118.140805,29.5086487 118.346759,29.4195146 C118.552712,29.3303805 118.765996,29.2626526 118.98696,29.21598 C119.207923,29.1693074 119.428887,29.1461466 119.64985,29.1461466 C119.914099,29.1461466 120.169272,29.1742203 120.414671,29.2303678 C120.660069,29.2865153 120.905468,29.3654726 121.151216,29.466889 L121.151216,31.4446833" id="Fill-47" sketch:type="MSShapeGroup"></path>
                <path d="M123.0034,29.314589 L124.643697,29.314589 L124.643697,35.6641649 L123.0034,35.6641649 L123.0034,29.314589 Z" id="Fill-48" sketch:type="MSShapeGroup"></path>
                <path d="M128.181906,30.7130117 L128.181906,31.7738478 L130.035138,31.7738478 L130.035138,33.1719195 L128.181906,33.1719195 L128.181906,34.2660931 L130.137416,34.2660931 L130.137416,35.6641649 L126.54161,35.6641649 L126.54161,29.314589 L130.137416,29.314589 L130.137416,30.7130117 L128.181906,30.7130117" id="Fill-49" sketch:type="MSShapeGroup"></path>
                <path d="M132.144589,29.314589 L133.784886,29.314589 L136.795646,33.196835 L136.812052,33.196835 L136.812052,29.314589 L138.452349,29.314589 L138.452349,35.6641649 L136.812052,35.6641649 L133.805132,31.7738478 L133.784886,31.7738478 L133.784886,35.6641649 L132.144589,35.6641649 L132.144589,29.314589" id="Fill-50" sketch:type="MSShapeGroup"></path>
                <path d="M144.693784,31.4446833 C144.609308,31.329581 144.512964,31.2288665 144.405449,31.1425397 C144.297586,31.056213 144.181693,30.9835723 144.057423,30.9246174 C143.933502,30.8656626 143.803297,30.8210955 143.66681,30.7909163 C143.530671,30.760737 143.392787,30.7456474 143.253856,30.7456474 C143.002872,30.7456474 142.773879,30.7909163 142.56653,30.8814541 C142.35918,30.9719918 142.181851,31.096569 142.034891,31.2555365 C141.887582,31.4148549 141.773086,31.6011943 141.691053,31.8149056 C141.60937,32.0289678 141.568528,32.2591724 141.568528,32.5058703 C141.568528,32.7581829 141.60937,32.9897912 141.691053,33.2006951 C141.773086,33.4119499 141.888978,33.5937273 142.038731,33.7456764 C142.188832,33.8979764 142.368954,34.0172897 142.578747,34.1036164 C142.78889,34.1899432 143.022071,34.2331065 143.278291,34.2331065 C143.411986,34.2331065 143.544983,34.217315 143.677282,34.1857321 C143.809581,34.1541491 143.936294,34.1088803 144.057423,34.0499254 C144.178901,33.9909706 144.293397,33.9204353 144.40126,33.8383197 C144.509124,33.7558531 144.606516,33.6628589 144.693784,33.5586351 L144.693784,35.5367804 C144.557296,35.5778382 144.429186,35.6167905 144.309105,35.6539882 C144.189024,35.690835 144.072084,35.7224179 143.957239,35.7483861 C143.842743,35.7743543 143.727548,35.7950587 143.611656,35.8101483 C143.495764,35.8252379 143.373937,35.8326073 143.245478,35.8326073 C142.8039,35.8326073 142.380474,35.7518953 141.975548,35.5901204 C141.570274,35.4283456 141.203048,35.198141 140.872825,34.8991558 C140.523751,34.5812208 140.267531,34.2201224 140.103816,33.8155098 C139.940449,33.4112481 139.858417,32.9718942 139.858417,32.4974481 C139.858417,32.0616035 139.937657,31.6436558 140.095787,31.2432543 C140.253917,30.8432036 140.485702,30.4866672 140.791142,30.1739961 C140.946479,30.0150286 141.117176,29.8718525 141.302534,29.744468 C141.487892,29.6170834 141.683723,29.5086487 141.889676,29.4195146 C142.095629,29.3303805 142.308913,29.2626526 142.529877,29.21598 C142.750491,29.1693074 142.971455,29.1461466 143.192419,29.1461466 C143.457016,29.1461466 143.71184,29.1742203 143.957239,29.2303678 C144.202987,29.2865153 144.448385,29.3654726 144.693784,29.466889 L144.693784,31.4446833" id="Fill-51" sketch:type="MSShapeGroup"></path>
                <path d="M148.18068,30.7130117 L148.18068,31.7738478 L150.033911,31.7738478 L150.033911,33.1719195 L148.18068,33.1719195 L148.18068,34.2660931 L150.13619,34.2660931 L150.13619,35.6641649 L146.540383,35.6641649 L146.540383,29.314589 L150.13619,29.314589 L150.13619,30.7130117 L148.18068,30.7130117" id="Fill-52" sketch:type="MSShapeGroup"></path>
                <path d="M155.354142,30.9474273 C155.201247,30.8210955 155.032296,30.7196792 154.846938,30.6428274 C154.661231,30.5663264 154.467844,30.5277251 154.266079,30.5277251 C154.189632,30.5277251 154.110392,30.5386036 154.028709,30.5607117 C153.947026,30.5824688 153.871277,30.6154555 153.801811,30.6593207 C153.731997,30.7031859 153.674749,30.7586315 153.629718,30.8260084 C153.585037,30.8930345 153.562347,30.9705882 153.562347,31.0583186 C153.562347,31.1516637 153.586782,31.230972 153.636001,31.2969453 C153.685221,31.3625676 153.746309,31.4187151 153.819963,31.4653876 C153.893618,31.5120602 153.972857,31.5510125 154.057333,31.5825955 C154.141809,31.6141784 154.219652,31.6408485 154.290514,31.6629565 L154.707657,31.7903411 C154.928621,31.8559634 155.133876,31.9349208 155.323423,32.0268622 C155.51297,32.1184528 155.677384,32.2332042 155.816315,32.3700636 C155.955246,32.507274 156.065204,32.6697507 156.14584,32.8574937 C156.226127,33.0452368 156.266271,33.268072 156.266271,33.5256485 C156.266271,33.6818086 156.256148,33.8390215 156.235552,33.9965853 C156.215306,34.1541491 156.1797,34.307151 156.129434,34.4552399 C156.078818,34.6029779 156.011447,34.7436975 155.926622,34.8766968 C155.842146,35.0096961 155.737075,35.1293603 155.611758,35.2363914 C155.363567,35.4476463 155.08326,35.5995953 154.771189,35.6929405 C154.458768,35.7862856 154.141809,35.8326073 153.819963,35.8326073 C153.422019,35.8326073 153.033151,35.7690905 152.654058,35.641355 C152.275313,35.5139705 151.923447,35.3364041 151.598808,35.1090069 L152.30254,33.7765575 C152.406215,33.8670953 152.51373,33.9520183 152.625783,34.0316775 C152.737486,34.1109858 152.854775,34.1808192 152.9773,34.2411777 C153.100174,34.3015362 153.226887,34.3489107 153.35779,34.383301 C153.488692,34.4173404 153.623784,34.4345355 153.762715,34.4345355 C153.858361,34.4345355 153.953658,34.4222533 154.049305,34.3976888 C154.144602,34.3727733 154.229776,34.3345229 154.304826,34.2822355 C154.379877,34.2302991 154.440616,34.163624 154.486694,34.0829121 C154.533121,34.0022001 154.556508,33.9053457 154.556508,33.7930508 C154.556508,33.6779485 154.520903,33.5803923 154.450041,33.501084 C154.379179,33.4214248 154.292609,33.3536969 154.19033,33.2975495 C154.088052,33.241402 153.97949,33.1954313 153.864994,33.1596373 C153.750498,33.1241942 153.649615,33.0940149 153.562347,33.0690995 C153.303334,32.995055 153.068757,32.9185541 152.858615,32.8388949 C152.648821,32.7595866 152.469398,32.654661 152.320692,32.5244691 C152.172336,32.3942772 152.057142,32.2303968 151.975109,32.0328279 C151.893426,31.83561 151.852585,31.5832973 151.852585,31.2762409 C151.852585,30.9554985 151.906342,30.6635317 152.014206,30.4003405 C152.12172,30.1371493 152.27252,29.9129104 152.465907,29.7279747 C152.659643,29.543039 152.889333,29.399512 153.155327,29.2980957 C153.421321,29.1966793 153.712449,29.1461466 154.028709,29.1461466 C154.18684,29.1461466 154.353348,29.1584289 154.527884,29.1829934 C154.702421,29.2075579 154.875562,29.2426501 155.047306,29.287919 C155.21905,29.3331878 155.386954,29.3879316 155.550321,29.4525012 C155.714036,29.5167199 155.866931,29.5886588 156.008654,29.668318 L155.354142,30.9474273" id="Fill-53" sketch:type="MSShapeGroup"></path>
                <rect id="Rectangle-43" sketch:type="MSShapeGroup" x="0" y="39.5072464" width="156.384956" height="0.84057971"></rect>
                <rect id="Rectangle-43-Copy" sketch:type="MSShapeGroup" x="0" y="15.1304348" width="156.384956" height="0.84057971"></rect>
                <path d="M4.09778761,43.4112024 L1.63911504,43.4112024 L1.63911504,52.8695652 L4.09778761,52.8695652 L4.09778761,43.4112024 Z M5.70345133,52.8695652 L8.16212389,52.8695652 L8.16212389,47.0741227 L8.18721239,47.0741227 L12.6905973,52.8695652 L15.1492699,52.8695652 L15.1492699,43.4112024 L12.6905973,43.4112024 L12.6905973,49.1941006 L12.6655088,49.1941006 L8.16212389,43.4112024 L5.70345133,43.4112024 L5.70345133,52.8695652 Z M20.518208,45.4935475 L22.5503761,45.4935475 L22.5503761,43.4112024 L16.0273673,43.4112024 L16.0273673,45.4935475 L18.0595354,45.4935475 L18.0595354,52.8695652 L20.518208,52.8695652 L20.518208,45.4935475 Z M28.8225,45.4935475 L28.8225,43.4112024 L23.4410177,43.4112024 L23.4410177,52.8695652 L28.8225,52.8695652 L28.8225,50.7872201 L25.8996903,50.7872201 L25.8996903,49.1564679 L28.671969,49.1564679 L28.671969,47.0741227 L25.8996903,47.0741227 L25.8996903,45.4935475 L28.8225,45.4935475 Z M35.2326106,48.9933927 C36.5748451,48.7550519 37.3024115,47.6260696 37.3024115,46.3214679 C37.3024115,44.301844 35.8849115,43.4112024 34.0158186,43.4112024 L30.340354,43.4112024 L30.340354,52.8695652 L32.7990265,52.8695652 L32.7990265,49.2317334 L32.824115,49.2317334 L35.1448009,52.8695652 L38.2055973,52.8695652 L35.2326106,48.9933927 Z M32.7990265,45.2928396 L33.0373673,45.2928396 C33.8401991,45.2928396 34.743385,45.4433705 34.743385,46.4719988 C34.743385,47.5006272 33.8401991,47.6511581 33.0373673,47.6511581 L32.7990265,47.6511581 L32.7990265,45.2928396 Z M38.8704425,52.8695652 L41.329115,52.8695652 L41.329115,47.0741227 L41.3542035,47.0741227 L45.8575885,52.8695652 L48.3162611,52.8695652 L48.3162611,43.4112024 L45.8575885,43.4112024 L45.8575885,49.1941006 L45.8325,49.1941006 L41.329115,43.4112024 L38.8704425,43.4112024 L38.8704425,52.8695652 Z M55.7173673,51.2262688 L56.3320354,52.8695652 L58.9537832,52.8695652 L55.3912168,43.4112024 L52.7067478,43.4112024 L49.0689159,52.8695652 L51.6781195,52.8695652 L52.3304204,51.2262688 L55.7173673,51.2262688 Z M55.0525221,49.3446316 L53.0078097,49.3446316 L54.0238938,46.3340121 L54.0489823,46.3340121 L55.0525221,49.3446316 Z M62.7296018,45.4935475 L64.7617699,45.4935475 L64.7617699,43.4112024 L58.2387611,43.4112024 L58.2387611,45.4935475 L60.2709292,45.4935475 L60.2709292,52.8695652 L62.7296018,52.8695652 L62.7296018,45.4935475 Z M68.1110841,43.4112024 L65.6524115,43.4112024 L65.6524115,52.8695652 L68.1110841,52.8695652 L68.1110841,43.4112024 Z M74.4710177,43.0975962 C71.7489159,43.0975962 69.2400664,45.1046758 69.2400664,47.9647643 C69.2400664,51.0255608 71.4353097,53.1831714 74.4710177,53.1831714 C77.5067257,53.1831714 79.701969,51.0255608 79.701969,47.9647643 C79.701969,45.1046758 77.1931195,43.0975962 74.4710177,43.0975962 L74.4710177,43.0975962 Z M74.4710177,45.4810033 C75.9386947,45.4810033 77.1429425,46.6727068 77.1429425,47.9773086 C77.1429425,49.6080608 75.9386947,50.7997643 74.4710177,50.7997643 C73.0033407,50.7997643 71.7990929,49.6080608 71.7990929,47.9773086 C71.7990929,46.6727068 73.0033407,45.4810033 74.4710177,45.4810033 L74.4710177,45.4810033 Z M80.8434956,52.8695652 L83.3021681,52.8695652 L83.3021681,47.0741227 L83.3272566,47.0741227 L87.8306416,52.8695652 L90.2893142,52.8695652 L90.2893142,43.4112024 L87.8306416,43.4112024 L87.8306416,49.1941006 L87.8055531,49.1941006 L83.3021681,43.4112024 L80.8434956,43.4112024 L80.8434956,52.8695652 Z M97.6904204,51.2262688 L98.3050885,52.8695652 L100.926836,52.8695652 L97.3642699,43.4112024 L94.6798009,43.4112024 L91.041969,52.8695652 L93.6511726,52.8695652 L94.3034735,51.2262688 L97.6904204,51.2262688 Z M97.0255752,49.3446316 L94.9808628,49.3446316 L95.9969469,46.3340121 L96.0220354,46.3340121 L97.0255752,49.3446316 Z M104.150708,43.4112024 L101.692035,43.4112024 L101.692035,52.8695652 L107.098606,52.8695652 L107.098606,50.7872201 L104.150708,50.7872201 L104.150708,43.4112024 Z M112.204115,52.8695652 L114.662788,52.8695652 L114.662788,49.7335033 L116.055199,49.7335033 C118.200265,49.7335033 119.404513,48.7550519 119.404513,46.5221758 C119.404513,44.352021 117.999558,43.4112024 115.967389,43.4112024 L112.204115,43.4112024 L112.204115,52.8695652 Z M114.662788,45.3931935 L115.076748,45.3931935 C116.030111,45.3931935 116.845487,45.4057378 116.845487,46.5974413 C116.845487,47.7515121 115.967389,47.7515121 115.076748,47.7515121 L114.662788,47.7515121 L114.662788,45.3931935 Z M125.388119,48.9933927 C126.730354,48.7550519 127.45792,47.6260696 127.45792,46.3214679 C127.45792,44.301844 126.04042,43.4112024 124.171327,43.4112024 L120.495863,43.4112024 L120.495863,52.8695652 L122.954535,52.8695652 L122.954535,49.2317334 L122.979624,49.2317334 L125.30031,52.8695652 L128.361106,52.8695652 L125.388119,48.9933927 Z M122.954535,45.2928396 L123.192876,45.2928396 C123.995708,45.2928396 124.898894,45.4433705 124.898894,46.4719988 C124.898894,47.5006272 123.995708,47.6511581 123.192876,47.6511581 L122.954535,47.6511581 L122.954535,45.2928396 Z M133.780221,43.0975962 C131.058119,43.0975962 128.54927,45.1046758 128.54927,47.9647643 C128.54927,51.0255608 130.744513,53.1831714 133.780221,53.1831714 C136.815929,53.1831714 139.011173,51.0255608 139.011173,47.9647643 C139.011173,45.1046758 136.502323,43.0975962 133.780221,43.0975962 L133.780221,43.0975962 Z M133.780221,45.4810033 C135.247898,45.4810033 136.452146,46.6727068 136.452146,47.9773086 C136.452146,49.6080608 135.247898,50.7997643 133.780221,50.7997643 C132.312544,50.7997643 131.108296,49.6080608 131.108296,47.9773086 C131.108296,46.6727068 132.312544,45.4810033 133.780221,45.4810033 L133.780221,45.4810033 Z M144.706261,47.5884369 L144.706261,49.5202511 L146.713341,49.5202511 C146.612987,50.6116006 145.797611,51.1635475 144.73135,51.1635475 C143.113142,51.1635475 142.235044,49.670782 142.235044,48.203105 C142.235044,46.7605165 143.075509,45.2175741 144.693717,45.2175741 C145.684712,45.2175741 146.399735,45.819698 146.738429,46.7228838 L149.071659,45.7444325 C148.256283,43.9756935 146.750973,43.0975962 144.806615,43.0975962 C141.758363,43.0975962 139.676018,45.1172201 139.676018,48.1905608 C139.676018,51.1635475 141.745819,53.1831714 144.718805,53.1831714 C146.299381,53.1831714 147.691792,52.6186803 148.620066,51.3266227 C149.460531,50.1474634 149.560885,48.9683042 149.585973,47.5884369 L144.706261,47.5884369 Z M155.607212,48.9933927 C156.949447,48.7550519 157.677013,47.6260696 157.677013,46.3214679 C157.677013,44.301844 156.259513,43.4112024 154.39042,43.4112024 L150.714956,43.4112024 L150.714956,52.8695652 L153.173628,52.8695652 L153.173628,49.2317334 L153.198717,49.2317334 L155.519403,52.8695652 L158.580199,52.8695652 L155.607212,48.9933927 Z M153.173628,45.2928396 L153.411969,45.2928396 C154.214801,45.2928396 155.117987,45.4433705 155.117987,46.4719988 C155.117987,47.5006272 154.214801,47.6511581 153.411969,47.6511581 L153.173628,47.6511581 L153.173628,45.2928396 Z M165.040487,51.2262688 L165.655155,52.8695652 L168.276903,52.8695652 L164.714336,43.4112024 L162.029867,43.4112024 L158.392035,52.8695652 L161.001239,52.8695652 L161.65354,51.2262688 L165.040487,51.2262688 Z M164.375642,49.3446316 L162.330929,49.3446316 L163.347013,46.3340121 L163.372102,46.3340121 L164.375642,49.3446316 Z M168.477611,52.8695652 L170.923739,52.8695652 L171.714027,47.4253617 L171.739115,47.4253617 L173.90927,52.8695652 L174.887721,52.8695652 L177.15823,47.4253617 L177.183319,47.4253617 L177.873252,52.8695652 L180.331925,52.8695652 L178.901881,43.4112024 L176.455752,43.4112024 L174.423584,48.4665342 L172.504314,43.4112024 L170.083274,43.4112024 L168.477611,52.8695652 Z M187.544867,43.9380608 C186.704403,43.4613794 185.537788,43.1603174 184.584425,43.1603174 C182.690243,43.1603174 181.32292,44.4147422 181.32292,46.3340121 C181.32292,48.1654723 182.339004,48.5668882 183.881947,49.0059369 C184.408805,49.1564679 185.374712,49.3948086 185.374712,50.0847422 C185.374712,50.7495873 184.760044,51.038105 184.183009,51.038105 C183.342544,51.038105 182.614978,50.5990564 182.00031,50.0596537 L180.946593,52.0416449 C181.9125,52.7190342 183.079115,53.1204502 184.270819,53.1204502 C185.224181,53.1204502 186.215177,52.857021 186.955288,52.2298086 C187.707942,51.5900519 187.933739,50.6241449 187.933739,49.6833263 C187.933739,48.152928 186.917655,47.4880829 185.600509,47.0992112 L184.973296,46.9110475 C184.546792,46.7730608 183.881947,46.5598086 183.881947,46.0078617 C183.881947,45.4810033 184.484071,45.2175741 184.935664,45.2175741 C185.537788,45.2175741 186.114823,45.468459 186.566416,45.8447865 L187.544867,43.9380608 Z" id="INTERNATIONAL-PROGRA" sketch:type="MSShapeGroup"></path>
            </g>
        </g>
    </g>
</svg>