<?xml version="1.0" encoding="UTF-8" standalone="no"?>
<svg width="190px" height="54px" viewBox="0 0 190 54" version="1.1" xmlns="http://www.w3.org/2000/svg" xmlns:xlink="http://www.w3.org/1999/xlink" xmlns:sketch="http://www.bohemiancoding.com/sketch/ns">
    <!-- Generator: Sketch 3.3.3 (12072) - http://www.bohemiancoding.com/sketch -->
    <title>walmart</title>
    <desc>Created with Sketch.</desc>
    <defs></defs>
    <g id="Page-1" stroke="none" stroke-width="1" fill="none" fill-rule="evenodd" sketch:type="MSPage">
        <g id="landing" sketch:type="MSArtboardGroup" transform="translate(-783.000000, -501.000000)" fill="#717171">
            <g id="walmart" sketch:type="MSLayerGroup" transform="translate(783.000000, 501.000000)">
                <path d="M4.04632027,48.4666825 C4.56032368,48.7294826 5.35074957,48.9932548 6.16480409,48.9932548 C7.04294719,48.9932548 7.50775128,48.6300009 7.50775128,48.0775051 C7.50775128,47.5496367 7.10638842,47.2498955 6.09003407,46.8853455 C4.68558773,46.393446 3.77054514,45.6173595 3.77054514,44.3859906 C3.77054514,42.9417244 4.97431005,41.8370568 6.96752981,41.8370568 C7.92109029,41.8370568 8.6234753,42.0386125 9.12517888,42.2657676 L8.69856899,43.8091914 C8.36,43.645873 7.75763203,43.4060801 6.93030664,43.4060801 C6.10265758,43.4060801 5.70194208,43.784564 5.70194208,44.2220241 C5.70194208,44.7625302 6.17775128,45.0003789 7.269523,45.4148317 C8.76103918,45.9679756 9.46374787,46.7460064 9.46374787,47.9375179 C9.46374787,49.3571567 8.37262351,50.5749158 6.05216354,50.5749158 C5.0869506,50.5749158 4.13436116,50.313736 3.6579046,50.0483435 L4.04632027,48.4666825" id="Fill-1" sketch:type="MSShapeGroup"></path>
                <path d="M15.9088586,48.9433519 C15.9088586,49.5337609 15.9341056,50.0982464 15.9968995,50.4365488 L14.2788075,50.4365488 L14.166167,49.8211884 L14.1282964,49.8211884 C13.7266099,50.313736 13.1006133,50.5749158 12.3733049,50.5749158 C11.1310221,50.5749158 10.391414,49.6718039 10.391414,48.6922175 C10.391414,47.0985668 11.8211073,46.3325257 13.9910562,46.3445153 L13.9910562,46.2560512 C13.9910562,45.9307105 13.8146508,45.4663548 12.8746848,45.4663548 C12.2464225,45.4663548 11.582879,45.6795761 11.1818399,45.9307105 L10.8303237,44.7003137 C11.2569336,44.4611689 12.0968825,44.1591594 13.2129302,44.1591594 C15.2563203,44.1591594 15.9088586,45.3662251 15.9088586,46.8091951 L15.9088586,48.9433519 L15.9088586,48.9433519 Z M14.0535264,47.5363508 C13.0497956,47.5243612 12.2723169,47.763506 12.2723169,48.5036236 C12.2723169,48.9932548 12.5982624,49.2327236 13.0248722,49.2327236 C13.5010051,49.2327236 13.8903918,48.9187245 14.0159796,48.528899 C14.0405792,48.4294174 14.0535264,48.3156778 14.0535264,48.2029103 L14.0535264,47.5363508 L14.0535264,47.5363508 Z" id="Fill-2" sketch:type="MSShapeGroup"></path>
                <path d="M18.6805281,44.2984986 L19.5081772,47.1478215 C19.6586882,47.6643484 19.7716525,48.1530075 19.8593697,48.6413425 L19.8969165,48.6413425 C19.9972572,48.1390735 20.097598,47.67569 20.2354855,47.1478215 L21.0249404,44.2984986 L23.0320784,44.2984986 L20.7494889,50.4365488 L18.8436627,50.4365488 L16.6115673,44.2984986 L18.6805281,44.2984986" id="Fill-3" sketch:type="MSShapeGroup"></path>
                <path d="M25.1897274,47.9764032 C25.2512266,48.7660996 26.029029,49.1445835 26.9201193,49.1445835 C27.5713629,49.1445835 28.0983135,49.0554713 28.6126405,48.8940972 L28.8634923,50.1870346 C28.2358773,50.4365488 27.4719932,50.5749158 26.6433731,50.5749158 C24.5611414,50.5749158 23.37,49.3571567 23.37,47.4365451 C23.37,45.8814558 24.3365077,44.1591594 26.4679387,44.1591594 C28.4491823,44.1591594 29.2020613,45.7035554 29.2020613,47.2223518 C29.2020613,47.5496367 29.1638671,47.8396565 29.1389438,47.9764032 L25.1897274,47.9764032 L25.1897274,47.9764032 Z M27.4341227,46.670504 C27.4341227,46.2074445 27.2327939,45.4281176 26.3552981,45.4281176 C25.5522487,45.4281176 25.2266269,46.1568936 25.1761329,46.670504 L27.4341227,46.670504 L27.4341227,46.670504 Z" id="Fill-4" sketch:type="MSShapeGroup"></path>
                <path d="M32.8761499,46.2560512 C32.8761499,45.4909822 32.8509029,44.8377085 32.8253322,44.2984986 L34.4307836,44.2984986 L34.5185009,45.1270802 L34.5563714,45.1270802 C34.8201704,44.7375788 35.3590971,44.1591594 36.4126746,44.1591594 C37.2021295,44.1591594 37.8294208,44.5612986 38.0928961,45.2016105 L38.1178194,45.2016105 C38.3434242,44.8743256 38.619523,44.6377731 38.907598,44.4611689 C39.2464906,44.2599373 39.6226065,44.1591594 40.0744634,44.1591594 C41.2523339,44.1591594 42.1427768,44.9890373 42.1427768,46.8218328 L42.1427768,50.4365488 L40.287121,50.4365488 L40.287121,47.0985668 C40.287121,46.2074445 39.9987223,45.6915657 39.3847019,45.6915657 C38.9451448,45.6915657 38.6321465,45.9932511 38.5065588,46.3578011 C38.4563884,46.495196 38.4308177,46.6964276 38.4308177,46.8464602 L38.4308177,50.4365488 L36.5754855,50.4365488 L36.5754855,46.9964928 C36.5754855,46.2194341 36.299063,45.6915657 35.6979898,45.6915657 C35.208586,45.6915657 34.9208348,46.0687535 34.8075468,46.3814564 C34.7441056,46.532137 34.7318058,46.7087413 34.7318058,46.8590979 L34.7318058,50.4365488 L32.8761499,50.4365488 L32.8761499,46.2560512" id="Fill-5" sketch:type="MSShapeGroup"></path>
                <path d="M49.7172061,47.2991503 C49.7172061,49.5454265 48.1240545,50.5749158 46.4820273,50.5749158 C44.6891652,50.5749158 43.3089949,49.3953939 43.3089949,47.4125659 C43.3089949,45.4281176 44.6140716,44.1591594 46.5820443,44.1591594 C48.4629472,44.1591594 49.7172061,45.4543652 49.7172061,47.2991503 L49.7172061,47.2991503 Z M45.2782624,47.3616909 C45.2782624,48.4167797 45.7168484,49.2071241 46.5321976,49.2071241 C47.2714821,49.2071241 47.748586,48.4666825 47.748586,47.3616909 C47.748586,46.443997 47.3973935,45.5175538 46.5321976,45.5175538 C45.6165077,45.5175538 45.2782624,46.4566347 45.2782624,47.3616909 L45.2782624,47.3616909 Z" id="Fill-6" sketch:type="MSShapeGroup"></path>
                <path d="M50.8954003,46.2560512 C50.8954003,45.4909822 50.8708007,44.8377085 50.846201,44.2984986 L52.5005281,44.2984986 L52.5888927,45.1384218 L52.6254685,45.1384218 C52.877615,44.7485963 53.5042589,44.1591594 54.5196422,44.1591594 C55.7745486,44.1591594 56.7148382,44.9890373 56.7148382,46.7959092 L56.7148382,50.4365488 L54.8080409,50.4365488 L54.8080409,47.0350541 C54.8080409,46.2440615 54.5322658,45.7035554 53.8428279,45.7035554 C53.3158773,45.7035554 53.0025554,46.0687535 52.877615,46.4200177 C52.8267973,46.5447748 52.8018739,46.7223511 52.8018739,46.8973352 L52.8018739,50.4365488 L50.8954003,50.4365488 L50.8954003,46.2560512" id="Fill-7" sketch:type="MSShapeGroup"></path>
                <path d="M59.7114651,47.9764032 C59.7742589,48.7660996 60.5517376,49.1445835 61.4425043,49.1445835 C62.0947189,49.1445835 62.6206985,49.0554713 63.1350256,48.8940972 L63.3868484,50.1870346 C62.7582624,50.4365488 61.9934072,50.5749158 61.1664055,50.5749158 C59.0844974,50.5749158 57.893356,49.3571567 57.893356,47.4365451 C57.893356,45.8814558 58.8592164,44.1591594 60.990971,44.1591594 C62.9722147,44.1591594 63.7244463,45.7035554 63.7244463,47.2223518 C63.7244463,47.5496367 63.6875468,47.8396565 63.6616525,47.9764032 L59.7114651,47.9764032 L59.7114651,47.9764032 Z M61.956184,46.670504 C61.956184,46.2074445 61.7561499,45.4281176 60.8780068,45.4281176 C60.0749574,45.4281176 59.7486882,46.1568936 59.6994889,46.670504 L61.956184,46.670504 L61.956184,46.670504 Z" id="Fill-8" sketch:type="MSShapeGroup"></path>
                <path d="M66.220017,44.2984986 L67.135707,47.3124361 C67.2360477,47.67569 67.3609881,48.127732 67.4357581,48.4540448 L67.4733049,48.4540448 C67.5613458,48.127732 67.6620102,47.6643484 67.7500511,47.3124361 L68.5022828,44.2984986 L70.546644,44.2984986 L69.1163032,48.3409533 C68.2391312,50.7761474 67.649063,51.7554098 66.9605963,52.3697981 C66.2947871,52.9478934 65.5930494,53.1484769 65.1165928,53.2110175 L64.71523,51.5927395 C64.9537819,51.5541782 65.2541567,51.4427069 65.542879,51.2667507 C65.8316014,51.1147739 66.144276,50.8143847 66.3329813,50.4990894 C66.3957751,50.4122455 66.433322,50.313736 66.433322,50.2236516 C66.433322,50.1624072 66.4203748,50.0616294 66.3449574,49.9109487 L64.1008859,44.2984986 L66.220017,44.2984986" id="Fill-9" sketch:type="MSShapeGroup"></path>
                <path d="M72.3103748,50.5749158 C71.6694889,50.5749158 71.2069506,50.0862567 71.2069506,49.4193732 C71.2069506,48.7434165 71.6694889,48.2534612 72.3349744,48.2534612 C73.00046,48.2534612 73.4513458,48.7294826 73.4513458,49.4193732 C73.4513458,50.0862567 73.00046,50.5749158 72.3223509,50.5749158 L72.3103748,50.5749158" id="Fill-10" sketch:type="MSShapeGroup"></path>
                <path d="M77.7064395,41.9744517 L79.6255366,41.9744517 L79.6255366,48.8305844 L82.9866269,48.8305844 L82.9866269,50.4365488 L77.7064395,50.4365488 L77.7064395,41.9744517" id="Fill-11" sketch:type="MSShapeGroup"></path>
                <path d="M86.2713288,42.5907842 C86.2713288,43.1193007 85.8702896,43.5467154 85.243322,43.5467154 C84.640954,43.5467154 84.2405622,43.1193007 84.2531857,42.5907842 C84.2405622,42.0386125 84.640954,41.6257798 85.2556218,41.6257798 C85.8702896,41.6257798 86.259029,42.0386125 86.2713288,42.5907842 L86.2713288,42.5907842 Z M84.3020613,44.2984986 L86.2085349,44.2984986 L86.2085349,50.4362248 L84.3020613,50.4362248 L84.3020613,44.2984986 Z" id="Fill-12" sketch:type="MSShapeGroup"></path>
                <path d="M89.4068143,44.2984986 L90.2341397,47.1478215 C90.3830324,47.6643484 90.4979387,48.1530075 90.5850085,48.6413425 L90.6222317,48.6413425 C90.721925,48.1390735 90.8235605,47.67569 90.9620954,47.1478215 L91.7525213,44.2984986 L93.7593356,44.2984986 L91.4764225,50.4365488 L89.5683305,50.4365488 L87.3375298,44.2984986 L89.4068143,44.2984986" id="Fill-13" sketch:type="MSShapeGroup"></path>
                <path d="M95.9160136,47.9764032 C95.9784838,48.7660996 96.7562862,49.1445835 97.6454344,49.1445835 C98.2982964,49.1445835 98.8249233,49.0554713 99.3389267,48.8940972 L99.5894549,50.1870346 C98.9621635,50.4365488 98.1973083,50.5749158 97.370954,50.5749158 C95.289046,50.5749158 94.0966099,49.3571567 94.0966099,47.4365451 C94.0966099,45.8814558 95.0631175,44.1591594 97.1942249,44.1591594 C99.1757922,44.1591594 99.9289949,45.7035554 99.9289949,47.2223518 C99.9289949,47.5496367 99.8908007,47.8396565 99.8636116,47.9764032 L95.9160136,47.9764032 L95.9160136,47.9764032 Z M98.1613799,46.670504 C98.1613799,46.2074445 97.9610221,45.4281176 97.0812606,45.4281176 C96.2775639,45.4281176 95.9525894,46.1568936 95.9040375,46.670504 L98.1613799,46.670504 L98.1613799,46.670504 Z" id="Fill-14" sketch:type="MSShapeGroup"></path>
                <path d="M103.603083,41.5240298 L105.507939,41.5240298 L105.507939,45.0269505 L105.533833,45.0269505 C105.897973,44.498434 106.537888,44.1591594 107.390784,44.1591594 C108.856405,44.1591594 109.936525,45.3788628 109.921959,47.2618852 C109.921959,49.4705723 108.518807,50.5749158 107.114685,50.5749158 C106.400647,50.5749158 105.708944,50.313736 105.270034,49.5839878 L105.244787,49.5839878 L105.169046,50.4365488 L103.552589,50.4365488 C103.576542,50.0363539 103.603083,49.2952642 103.603083,48.6047254 L103.603083,41.5240298 L103.603083,41.5240298 Z M105.507939,47.8257226 C105.507939,47.9511278 105.52121,48.0655155 105.545809,48.1662933 C105.670426,48.6789316 106.109659,49.068109 106.662828,49.068109 C107.478177,49.068109 107.979557,48.4407589 107.979557,47.3364154 C107.979557,46.3814564 107.552624,45.6293492 106.662828,45.6293492 C106.14753,45.6293492 105.670426,46.0175544 105.545809,46.5713464 C105.52121,46.6837899 105.507939,46.7959092 105.507939,46.9239068 L105.507939,47.8257226 L105.507939,47.8257226 Z" id="Fill-15" sketch:type="MSShapeGroup"></path>
                <path d="M112.60753,47.9764032 C112.67,48.7660996 113.447155,49.1445835 114.336627,49.1445835 C114.989165,49.1445835 115.515792,49.0554713 116.029796,48.8940972 L116.280971,50.1870346 C115.654651,50.4365488 114.887853,50.5749158 114.059881,50.5749158 C111.978944,50.5749158 110.78845,49.3571567 110.78845,47.4365451 C110.78845,45.8814558 111.753986,44.1591594 113.886712,44.1591594 C115.867956,44.1591594 116.619216,45.7035554 116.619216,47.2223518 C116.619216,47.5496367 116.581993,47.8396565 116.557394,47.9764032 L112.60753,47.9764032 L112.60753,47.9764032 Z M114.849983,46.670504 C114.849983,46.2074445 114.64833,45.4281176 113.774072,45.4281176 C112.97167,45.4281176 112.644753,46.1568936 112.593935,46.670504 L114.849983,46.670504 L114.849983,46.670504 Z" id="Fill-16" sketch:type="MSShapeGroup"></path>
                <path d="M120.142147,42.6283734 L120.142147,44.2984986 L121.511312,44.2984986 L121.511312,45.7035554 L120.142147,45.7035554 L120.142147,47.9261763 C120.142147,48.667266 120.318552,49.0058925 120.895026,49.0058925 C121.158177,49.0058925 121.273083,48.9932548 121.460818,48.9553416 L121.472794,50.4002558 C121.221942,50.4990894 120.769761,50.5749158 120.229216,50.5749158 C119.61552,50.5749158 119.102487,50.350353 118.801465,50.0363539 C118.449949,49.6718039 118.274191,49.0813949 118.274191,48.2161961 L118.274191,45.7035554 L117.459489,45.7035554 L117.459489,44.2984986 L118.274191,44.2984986 L118.274191,43.142956 L120.142147,42.6283734" id="Fill-17" sketch:type="MSShapeGroup"></path>
                <path d="M124.996371,42.6283734 L124.996371,44.2984986 L126.361005,44.2984986 L126.361005,45.7035554 L124.996371,45.7035554 L124.996371,47.9261763 C124.996371,48.667266 125.172129,49.0058925 125.746985,49.0058925 C126.010784,49.0058925 126.123748,48.9932548 126.312777,48.9553416 L126.324106,50.4002558 C126.073901,50.4990894 125.623339,50.5749158 125.082794,50.5749158 C124.469744,50.5749158 123.954446,50.350353 123.653424,50.0363539 C123.302555,49.6718039 123.127121,49.0813949 123.127121,48.2161961 L123.127121,45.7035554 L122.311124,45.7035554 L122.311124,44.2984986 L123.127121,44.2984986 L123.127121,43.142956 L124.996371,42.6283734" id="Fill-18" sketch:type="MSShapeGroup"></path>
                <path d="M129.183169,47.9764032 C129.245963,48.7660996 130.024089,49.1445835 130.916797,49.1445835 C131.566746,49.1445835 132.093049,49.0554713 132.606729,48.8940972 L132.85661,50.1870346 C132.231261,50.4365488 131.468024,50.5749158 130.63908,50.5749158 C128.557819,50.5749158 127.366678,49.3571567 127.366678,47.4365451 C127.366678,45.8814558 128.332862,44.1591594 130.464617,44.1591594 C132.443918,44.1591594 133.198092,45.7035554 133.198092,47.2223518 C133.198092,47.5496367 133.160221,47.8396565 133.13368,47.9764032 L129.183169,47.9764032 L129.183169,47.9764032 Z M131.429506,46.670504 C131.429506,46.2074445 131.228501,45.4281176 130.351652,45.4281176 C129.547308,45.4281176 129.22201,46.1568936 129.170545,46.670504 L131.429506,46.670504 L131.429506,46.670504 Z" id="Fill-19" sketch:type="MSShapeGroup"></path>
                <path d="M134.587649,46.3189158 C134.587649,45.4148317 134.56402,44.826367 134.539421,44.2984986 L136.182743,44.2984986 L136.245537,45.4281176 L136.296031,45.4281176 C136.609029,44.535051 137.360613,44.1591594 137.949063,44.1591594 C138.124174,44.1591594 138.212862,44.1591594 138.350426,44.1844349 L138.350426,45.9932511 C138.212862,45.9543658 138.049727,45.9307105 137.836099,45.9307105 C137.134361,45.9307105 136.658876,46.3072502 136.533612,46.8973352 C136.509012,47.0237125 136.496388,47.1737451 136.496388,47.3244258 L136.496388,50.4365488 L134.587649,50.4365488 L134.587649,46.3189158" id="Fill-20" sketch:type="MSShapeGroup"></path>
                <path d="M140.312572,50.5749158 C139.672981,50.5749158 139.211414,50.0862567 139.211414,49.4193732 C139.211414,48.7434165 139.672981,48.2534612 140.337819,48.2534612 C141.002334,48.2534612 141.453867,48.7294826 141.453867,49.4193732 C141.453867,50.0862567 141.002334,50.5749158 140.325196,50.5749158 L140.312572,50.5749158" id="Fill-21" sketch:type="MSShapeGroup"></path>
                <path d="M167.25632,15.3208223 C168.314753,15.3208223 169.186099,14.7705948 169.303918,14.058021 L170.350051,2.22488929 C170.350051,1.05508878 168.981533,0.0939728948 167.259557,0.0939728948 C165.540818,0.0939728948 164.174242,1.05508878 164.174242,2.22488929 L165.218109,14.058021 C165.333339,14.7705948 166.205656,15.3208223 167.260204,15.3208223 L167.25632,15.3208223" id="Fill-22" sketch:type="MSShapeGroup"></path>
                <path d="M160.86753,19.0178456 C161.398688,18.1011238 161.357581,17.0696903 160.798586,16.6124635 L151.083015,9.79067946 C150.073782,9.2057792 148.558313,9.91025187 147.698296,11.4021526 C146.836337,12.8927571 146.989114,14.5580216 147.998024,15.1425978 L158.754549,20.1568619 C159.428126,20.4076723 160.343492,19.9274384 160.871414,19.0110407 L160.86753,19.0178456" id="Fill-23" sketch:type="MSShapeGroup"></path>
                <path d="M173.649642,19.0110407 C174.179506,19.9274384 175.091959,20.4076723 175.765537,20.1568619 L186.52368,15.1425978 C187.536797,14.5580216 187.682129,12.8927571 186.825673,11.4021526 C185.962095,9.91025187 184.445009,9.2057792 183.437717,9.79067946 L173.721823,16.6124635 C173.166065,17.0696903 173.124957,18.1011238 173.653526,19.0178456 L173.649642,19.0110407" id="Fill-24" sketch:type="MSShapeGroup"></path>
                <path d="M167.25632,30.1014625 C168.314753,30.1014625 169.186099,30.6487736 169.303918,31.3606993 L170.350051,43.1935069 C170.350051,44.3649277 168.981533,45.3237752 167.259557,45.3237752 C165.540818,45.3237752 164.174242,44.3649277 164.174242,43.1935069 L165.218109,31.3606993 C165.333339,30.6487736 166.205656,30.1014625 167.260204,30.1014625 L167.25632,30.1014625" id="Fill-25" sketch:type="MSShapeGroup"></path>
                <path d="M173.649642,26.4057353 C174.179506,25.4877174 175.091959,25.011048 175.765537,25.2647748 L186.52368,30.2735301 C187.536797,30.8600506 187.682129,32.5266112 186.825673,34.018512 C185.962095,35.505552 184.445009,36.212617 183.437717,35.6290129 L173.721823,28.8127376 C173.166065,28.3500021 173.124957,27.3198648 173.653526,26.4037911 L173.649642,26.4057353" id="Fill-26" sketch:type="MSShapeGroup"></path>
                <path d="M160.86753,26.4037911 C161.398688,27.3198648 161.357581,28.3500021 160.798586,28.8127376 L151.083015,35.6290129 C150.073782,36.212617 148.558313,35.505552 147.698296,34.018512 C146.836337,32.5266112 146.989114,30.8600506 147.998024,30.2735301 L158.754549,25.2647748 C159.428126,25.011048 160.343492,25.4877174 160.872061,26.4057353 L160.86753,26.4037911" id="Fill-27" sketch:type="MSShapeGroup"></path>
                <path d="M111.293714,24.0700228 C111.293714,19.6011256 109.38724,15.6704663 102.944719,15.6704663 C99.6367121,15.6704663 97.0110221,16.6007979 95.578092,17.4290556 L96.627138,21.0204404 C97.9360988,20.1934789 100.023833,19.508773 101.998279,19.508773 C105.266474,19.5006718 105.802487,21.3606871 105.802487,22.5534947 L105.802487,22.8357375 C98.6770017,22.82472 94.1749404,25.2936147 94.1749404,30.3260253 C94.1749404,33.3982908 96.4678876,36.27775 100.454651,36.27775 C102.905554,36.27775 104.957359,35.2984876 106.184429,33.7291402 L106.305809,33.7291402 C106.305809,33.7291402 107.11954,37.1371159 111.605417,35.833809 C111.369455,34.4151424 111.293714,32.9031509 111.293714,31.082021 L111.293714,24.0700228 L111.293714,24.0700228 Z M105.974361,28.7897305 C105.974361,29.1536324 105.942317,29.5288759 105.8423,29.8571329 C105.430256,31.2229804 104.016422,32.3778748 102.249455,32.3778748 C100.775741,32.3778748 99.6053152,31.5405439 99.6053152,29.7696409 C99.6053152,27.0612773 102.583816,26.3120865 105.974361,26.3299089 L105.974361,28.7897305 L105.974361,28.7897305 Z" id="Fill-28" sketch:type="MSShapeGroup"></path>
                <path d="M0.29746167,9.58588336 C0.29746167,9.58588336 4.95229983,28.6827958 5.6951448,31.7822811 C6.56195911,35.4002376 8.12468484,36.7317363 12.6293356,35.833809 L15.5363032,23.9929003 C16.2726746,21.0521967 16.7672572,18.9556291 17.2408007,15.9643746 L17.3239864,15.9643746 C17.6567291,18.9854411 18.1309199,21.06127 18.7371721,24.0035937 C18.7371721,24.0035937 19.9202215,29.3781952 20.5261499,32.2012706 C21.1336968,35.0236979 22.824276,36.8017299 27.236678,35.833809 L34.1627768,9.58588336 L28.5708859,9.58588336 L26.2060818,20.9339205 C25.5703748,24.2369057 24.9939012,26.8182439 24.5491652,29.8399586 L24.4698637,29.8399586 C24.0652641,26.8474079 23.5512606,24.3691159 22.9048722,21.1510303 L20.4426405,9.58588336 L14.6167291,9.58588336 L11.9832709,20.8597143 C11.2371891,24.2855124 10.5390119,27.051556 10.095247,29.9708725 L10.0152981,29.9708725 C9.56085179,27.2220034 8.95524702,23.7453303 8.29979557,20.4293833 C8.29979557,20.4293833 6.73512777,12.3652127 6.18616695,9.58588336 L0.29746167,9.58588336" id="Fill-29" sketch:type="MSShapeGroup"></path>
                <path d="M50.0541567,24.0700228 C50.0541567,19.6011256 48.1476831,15.6704663 41.7064566,15.6704663 C38.3978024,15.6704663 35.7714651,16.6007979 34.3398296,17.4290556 L35.3875809,21.0204404 C36.6978365,20.1934789 38.7836286,19.508773 40.759046,19.508773 C44.029506,19.5006718 44.5645486,21.3606871 44.5645486,22.5534947 L44.5645486,22.8357375 C37.438092,22.82472 32.936678,25.2936147 32.936678,30.3260253 C32.936678,33.3982908 35.2283305,36.27775 39.2128279,36.27775 C41.6656729,36.27775 43.7168313,35.2984876 44.946167,33.7291402 L45.0665758,33.7291402 C45.0665758,33.7291402 45.880954,37.1371159 50.366184,35.833809 C50.1305451,34.4151424 50.0541567,32.9031509 50.0541567,31.082021 L50.0541567,24.0700228 L50.0541567,24.0700228 Z M44.7357751,28.7897305 C44.7357751,29.1536324 44.7043782,29.5288759 44.6037138,29.8571329 C44.1916695,31.2229804 42.7781601,32.3778748 41.0108688,32.3778748 C39.5374787,32.3778748 38.3670528,31.5405439 38.3670528,29.7696409 C38.3670528,27.0612773 41.34523,26.3120865 44.7357751,26.3299089 L44.7357751,28.7897305 L44.7357751,28.7897305 Z" id="Fill-30" sketch:type="MSShapeGroup"></path>
                <path d="M58.9291312,30.2608923 L58.9291312,9.58588336 L53.6055707,9.58588336 L53.6055707,35.833809 L58.9291312,35.833809 L58.9291312,30.2608923" id="Fill-31" sketch:type="MSShapeGroup"></path>
                <path d="M128.587598,9.58588336 L128.587598,28.9491603 C128.587598,31.6183146 129.089625,33.4890233 130.163271,34.63128 C131.101295,35.6306332 132.646218,36.27775 134.497666,36.27775 C136.071721,36.27775 137.620528,35.9786569 138.350426,35.7064596 L138.281806,31.5418401 C137.738671,31.6753464 137.113969,31.7822811 136.259455,31.7822811 C134.445877,31.7822811 133.837683,30.6192855 133.837683,28.2226527 L133.837683,20.8146721 L138.474395,20.8146721 L138.474395,15.792631 L133.837683,15.792631 L133.837683,9.58588336 L128.587598,9.58588336" id="Fill-32" sketch:type="MSShapeGroup"></path>
                <path d="M114.843833,16.1153793 L114.843833,35.833809 L120.336031,35.833809 L120.336031,25.7372316 C120.336031,25.1921888 120.369046,24.7171396 120.455145,24.2819479 C120.861363,22.1665857 122.477496,20.8146721 124.796661,20.8146721 C125.433339,20.8146721 125.888756,20.8836936 126.381721,20.9553074 L126.381721,15.792631 C125.968382,15.7093516 125.685809,15.6704663 125.171482,15.6704663 C123.121942,15.6704663 120.790153,16.99516 119.811346,19.8347617 L119.662129,19.8347617 L119.662129,16.1153793 L114.843833,16.1153793" id="Fill-33" sketch:type="MSShapeGroup"></path>
                <path d="M62.6582453,16.1153793 L62.6582453,35.833809 L68.0102896,35.833809 L68.0102896,24.2699583 C68.0102896,23.7278319 68.0724361,23.1545972 68.2614651,22.6558928 C68.7049063,21.491601 69.786644,20.1296422 71.5141227,20.1296422 C73.6737138,20.1296422 74.6842419,21.957901 74.6842419,24.595623 L74.6842419,35.833809 L80.0307836,35.833809 L80.0307836,24.1302951 C80.0307836,23.6124721 80.1016695,22.9893346 80.253799,22.5317838 C80.693356,21.207414 81.8595741,20.1296422 83.4653492,20.1296422 C85.6547189,20.1296422 86.705707,21.9254966 86.705707,25.0295185 L86.705707,35.833809 L92.0558092,35.833809 L92.0558092,24.2203795 C92.0558092,18.0959391 88.9497785,15.6704663 85.4430324,15.6704663 C83.890017,15.6704663 82.6642419,16.0606158 81.5559625,16.7414332 C80.6244123,17.3140198 79.7902896,18.1270474 79.0613629,19.1973662 L78.982385,19.1973662 C78.1362862,17.0726067 76.1466269,15.6704663 73.554276,15.6704663 C70.2226405,15.6704663 68.7259455,17.3606822 67.8180239,18.794903 L67.7387223,18.794903 L67.7387223,16.1153793 L62.6582453,16.1153793" id="Fill-34" sketch:type="MSShapeGroup"></path>
                <path d="M188.800767,34.6351686 C189.325451,34.6351686 189.732964,35.0431406 189.732964,35.5512423 C189.732964,36.0710096 189.325451,36.4734728 188.795264,36.4734728 C188.270579,36.4734728 187.852061,36.0710096 187.852061,35.5512423 C187.852061,35.0431406 188.270579,34.6351686 188.795264,34.6351686 L188.800767,34.6351686 L188.800767,34.6351686 Z M188.789761,34.8192258 C188.388075,34.8192258 188.086405,35.1491031 188.086405,35.5512423 C188.086405,35.9592143 188.388075,36.2832587 188.800767,36.2832587 C189.202777,36.2887675 189.498296,35.9592143 189.498296,35.5512423 C189.498296,35.1491031 189.202777,34.8192258 188.795264,34.8192258 L188.789761,34.8192258 L188.789761,34.8192258 Z M188.650256,36.0262915 L188.438245,36.0262915 L188.438245,35.1154025 C188.522078,35.0988762 188.638927,35.0820259 188.789761,35.0820259 C188.96293,35.0820259 189.040937,35.1102178 189.107939,35.1546118 C189.157785,35.1934972 189.196951,35.2664072 189.196951,35.3503347 C189.196951,35.4562972 189.118944,35.534392 189.007598,35.5680926 L189.007598,35.5794341 C189.09661,35.607302 189.14678,35.6795639 189.174617,35.8027008 C189.202777,35.9423639 189.219608,35.9984236 189.241618,36.0262915 L189.012777,36.0262915 C188.98494,35.9925908 188.968109,35.9144961 188.940596,35.8085336 C188.923765,35.7077557 188.867768,35.6633617 188.75092,35.6633617 L188.650256,35.6633617 L188.650256,36.0262915 L188.650256,36.0262915 Z M188.655758,35.5123569 L188.756099,35.5123569 C188.873595,35.5123569 188.968109,35.4731476 188.968109,35.3782025 C188.968109,35.294275 188.906934,35.2385394 188.77293,35.2385394 C188.717257,35.2385394 188.678092,35.2440481 188.655758,35.2495569 L188.655758,35.5123569 L188.655758,35.5123569 Z" id="Fill-35" sketch:type="MSShapeGroup"></path>
            </g>
        </g>
    </g>
</svg>