<?xml version="1.0" encoding="UTF-8" standalone="no"?>
<svg width="226px" height="49px" viewBox="0 0 226 49" version="1.1" xmlns="http://www.w3.org/2000/svg" xmlns:xlink="http://www.w3.org/1999/xlink" xmlns:sketch="http://www.bohemiancoding.com/sketch/ns">
    <!-- Generator: Sketch 3.3.3 (12072) - http://www.bohemiancoding.com/sketch -->
    <title>cornell_colored</title>
    <desc>Created with Sketch.</desc>
    <defs>
        <path id="path-1" d="M0,0.357291667 L48.7352494,0.357291667 L48.7352494,48.9755 L0,48.9755"></path>
    </defs>
    <g id="Page-1" stroke="none" stroke-width="1" fill="none" fill-rule="evenodd" sketch:type="MSPage">
        <g id="cornell_colored" sketch:type="MSLayerGroup">
            <path d="M18.6326702,37.6124 C21.408506,39.796575 24.1430213,40.9513417 24.2588005,40.9987083 L24.4703122,41.0881333 L24.6822331,40.9974833 C24.7980122,40.94685 27.523118,39.7761583 30.2903624,37.6156667 C34.0169783,34.7058833 35.9864512,31.3938917 35.9864512,28.0345333 L35.9831783,12.6754833 L12.9296265,12.6771167 L12.9288082,27.7691167 C12.9288082,31.268125 14.9003267,34.6707667 18.6326702,37.6124 L18.6326702,37.6124 Z M23.9454195,32.9043167 C23.8267765,32.863075 23.6958602,32.83245 23.5326238,32.83245 L23.5064406,32.83245 C22.9451367,32.83245 22.5257953,32.8712417 22.0802705,32.91085 C21.6408825,32.951275 21.1855391,32.992925 20.5174566,33.0072167 C20.2110305,33.01375 19.9352879,33.0113 19.72664,33.0072167 L19.72664,25.7846167 L19.8219634,25.7846167 C20.1001607,25.7870667 20.4413614,25.7846167 20.8680669,25.7768583 C21.2305416,25.7670583 21.6273818,25.7241833 22.0876346,25.6751833 C22.3404668,25.6474167 22.6100727,25.6200583 22.9119985,25.5935167 C23.3906614,25.54125 23.8316859,25.627 23.8316859,25.627 C23.8766884,25.6372083 23.9085993,25.6510917 23.9454195,25.6633417 L23.9454195,32.9043167 L23.9454195,32.9043167 Z M34.8937087,28.0345333 C34.8937087,34.32205 27.1577795,38.5842333 24.8794258,39.7018417 L24.8794258,33.9815 C24.9227919,33.9406667 24.9620668,33.899425 24.9935685,33.8630833 C25.1077112,33.730375 25.1793061,33.6511583 25.3977728,33.6499333 C25.924302,33.6576917 26.3207331,33.683825 26.7723945,33.725475 C27.2044185,33.76345 27.6920819,33.8091833 28.3879841,33.8242917 C29.0736586,33.8414417 29.60837,33.811225 29.6304622,33.8091833 L30.0183019,33.7887667 L30.0178928,31.6523667 L30.9248976,31.6523667 L30.9248976,30.5123 L30.0174836,30.5123 L30.0170745,28.443275 L30.9248976,28.443275 L30.9248976,27.3048417 L30.0166654,27.3048417 L30.0158472,24.9806083 L29.6173705,24.971625 C29.4704988,24.9675417 29.3027622,24.9675417 29.103933,24.9683583 C28.8257357,24.9646833 28.495581,24.9683583 28.0770578,24.9585583 C27.7509943,24.9516167 27.3680639,24.910375 26.9262212,24.8630083 C26.6692979,24.83565 26.392328,24.8066583 26.1047211,24.7809333 C25.4853231,24.7098833 24.9387473,24.8225833 24.9060182,24.83075 C24.8961995,24.8327917 24.8892446,24.8360583 24.8794258,24.8385083 L24.8794258,22.6433083 L34.8928905,22.6433083 L34.8937087,28.0345333 L34.8937087,28.0345333 Z M24.8794258,32.9398417 L24.8794258,25.6988667 C24.9326106,25.6739583 24.9956141,25.64905 25.0819371,25.62945 C25.0868464,25.6278167 25.5307347,25.537575 26.0220801,25.59515 C26.3150055,25.6200583 26.5862478,25.6474167 26.8398983,25.677225 C27.2997419,25.7241833 27.696173,25.7670583 28.0574203,25.7768583 C28.4219406,25.7846167 28.7238664,25.7846167 28.9787442,25.7846167 L29.19762,25.7846167 L29.1984382,33.0072167 C28.9901994,33.0113 28.715275,33.0153833 28.4076216,33.0072167 C27.7403573,32.992925 27.2850139,32.951275 26.8456258,32.912075 C26.3956009,32.8700167 25.9918057,32.831225 25.3953181,32.83245 C25.1838064,32.83245 25.0197518,32.8785917 24.8794258,32.9398417 L24.8794258,32.9398417 Z M14.0207325,13.7669583 L34.8920723,13.7645083 L34.8924814,21.55265 L14.0203233,21.55265 L14.0207325,13.7669583 L14.0207325,13.7669583 Z M14.0199142,22.6433083 L23.9454195,22.6433083 L23.9454195,24.8168667 C23.7834105,24.7882833 23.3288853,24.7221333 22.8297667,24.7801167 C22.5343866,24.8066583 22.2594623,24.83565 22.0021298,24.8630083 C21.5586507,24.910375 21.1777659,24.9516167 20.8484295,24.9585583 C20.4303154,24.9683583 20.0972969,24.9687667 19.8219634,24.9683583 C19.6243615,24.9683583 19.4545794,24.9683583 19.3072985,24.971625 L18.9075945,24.9806083 L18.9075945,27.0790333 L17.9273583,27.0790333 L17.9273583,28.2195083 L18.9075945,28.2195083 L18.9075945,30.3179333 L17.9273583,30.3179333 L17.9273583,31.4547333 L18.9075945,31.4547333 L18.9075945,33.7887667 L19.2937978,33.8091833 C19.3167081,33.811225 19.8489649,33.8385833 20.5379122,33.8242917 C21.2329963,33.8091833 21.7214779,33.76345 22.1535019,33.725475 C22.5977993,33.6854583 22.9819569,33.6499333 23.5064406,33.6499333 C23.7122247,33.6474833 23.7809558,33.7115917 23.8918256,33.8512417 C23.9069628,33.870025 23.9270094,33.8916667 23.9454195,33.9124917 L23.9454195,39.6516167 C21.538195,38.4703083 14.0195051,34.2579417 14.0195051,27.7691167 L14.0199142,22.6433083 L14.0199142,22.6433083 Z" id="Fill-1" fill="#B31B1B" sketch:type="MSShapeGroup"></path>
            <path d="M22.7344432,14.5464667 L16.9094836,14.5464667 L16.9094836,14.9539833 C16.9074381,16.2239 16.9058016,18.3709167 16.914393,18.469325 C16.9418036,18.9095083 17.2339107,19.3080417 17.8046242,19.6873833 C18.5078905,20.1581917 19.5564487,20.7711 19.600633,20.7972333 L19.8002804,20.9140167 L20.0015643,20.8033583 C20.0494306,20.777225 21.1806297,20.1618667 21.887578,19.6873833 C22.7139875,19.1377667 22.7278974,18.6363333 22.733625,18.469325 C22.7405799,18.378675 22.7385343,16.5076917 22.7344432,14.9539833 L22.7344432,14.5464667 L22.7344432,14.5464667 Z M17.7289382,15.362725 L21.9174433,15.362725 C21.9178524,15.7024583 21.9182615,16.0671 21.9182615,16.4215333 L17.7277109,16.4215333 C17.72812,16.0671 17.7285291,15.7028667 17.7289382,15.362725 L17.7289382,15.362725 Z M21.9153978,18.4464583 C21.9100793,18.6494 21.6490648,18.8645917 21.4322346,19.008325 C20.9298431,19.3456083 20.173392,19.7743583 19.8145994,19.9752583 C19.4729895,19.7706833 18.7639956,19.3456083 18.2616041,19.0079167 C17.9339041,18.7906833 17.7399843,18.574675 17.7293473,18.4158333 C17.72812,18.3562167 17.7273017,17.871525 17.7273017,17.2390167 L21.9186707,17.2390167 C21.9186707,17.8756083 21.9178524,18.3692833 21.9153978,18.4464583 L21.9153978,18.4464583 Z" id="Fill-2" fill="#B31B1B" sketch:type="MSShapeGroup"></path>
            <path d="M32.6472659,14.3737417 L26.6917991,14.3737417 L26.6917991,14.7816667 C26.6905718,16.3774333 26.6905718,18.2961917 26.6962994,18.3954167 C26.7294376,18.8384583 27.0268632,19.2455667 27.6082136,19.63185 C28.3274353,20.1136833 29.4013586,20.7425167 29.4475884,20.7694667 L29.6468267,20.88625 L29.849338,20.7743667 C29.8976134,20.7498667 31.0590869,20.1198083 31.7848544,19.63185 C32.6325378,19.0679417 32.6444021,18.5558917 32.6472659,18.3864333 C32.6534026,18.2961917 32.6517662,16.3758 32.6480841,14.7812583 L32.6472659,14.3737417 L32.6472659,14.3737417 Z M31.8286296,18.3696917 C31.8237202,18.5799833 31.5553417,18.8021167 31.3303292,18.9548333 C30.811164,19.3002833 30.0268933,19.7425083 29.6611457,19.946675 C29.3125809,19.7400583 28.5827222,19.3002833 28.0643753,18.9548333 C27.904821,18.8474417 27.5308911,18.5730417 27.5132993,18.3341667 C27.512481,18.3121167 27.5120719,18.2361667 27.5116628,18.1193833 L29.5756409,16.631825 L31.8314934,18.13245 C31.8306752,18.2569917 31.8298569,18.3407 31.8286296,18.3696917 L31.8286296,18.3696917 Z M29.55764,15.6359 L27.5092081,17.11325 C27.5083899,16.5260667 27.5083899,15.8180167 27.5096172,15.1908167 L31.8286296,15.1908167 C31.8306752,15.8298583 31.8331298,16.55465 31.8331298,17.1520417 L29.55764,15.6359 L29.55764,15.6359 Z" id="Fill-3" fill="#B31B1B" sketch:type="MSShapeGroup"></path>
            <path d="M25.942303,27.3166833 L26.3317792,27.3558833 C26.5968848,27.3865083 26.8255793,27.4085583 27.0248176,27.4134583 L28.2292481,27.4481667 L28.2480673,26.6286417 L27.0448642,26.595975 C26.8648542,26.5923 26.65907,26.57025 26.4193295,26.544525 L26.0212619,26.5045083 C25.9148924,26.493075 25.8130231,26.4910333 25.7197452,26.4951167 L25.7553381,27.31015 C25.8113866,27.3072917 25.873981,27.31015 25.942303,27.3166833" id="Fill-4" fill="#B31B1B" sketch:type="MSShapeGroup"></path>
            <path d="M27.0510009,28.861 C26.8795823,28.8556917 26.6823895,28.8336417 26.4577861,28.8103667 C26.3223695,28.79485 26.1783615,28.7797417 26.0318989,28.766675 C25.9275749,28.75565 25.8293876,28.7540167 25.7373371,28.75565 L25.7504287,29.5731333 C25.8085228,29.5710917 25.873981,29.5731333 25.9500762,29.5804833 C26.1010391,29.594775 26.2405468,29.6090667 26.3710541,29.62295 C26.6218407,29.6494917 26.8407165,29.67195 27.0321816,29.6776667 C27.2829683,29.680525 27.649125,29.6923667 27.9215946,29.697675 L28.236203,29.70625 L28.2550222,28.8912167 L27.9416412,28.8810083 C27.6699898,28.8748833 27.3013784,28.8638583 27.0510009,28.861" id="Fill-5" fill="#B31B1B" sketch:type="MSShapeGroup"></path>
            <path d="M27.05141,31.1219417 C26.8763094,31.1158167 26.6774801,31.0949917 26.4475583,31.0692667 C26.3137782,31.0545667 26.1746795,31.040275 26.0335353,31.0272083 C25.9247111,31.015775 25.8248874,31.0121 25.7324277,31.015775 L25.7569745,31.8312167 C25.8130231,31.8312167 25.8756175,31.8312167 25.9500762,31.8402 C26.0944933,31.853675 26.2319554,31.8700083 26.3587806,31.880625 C26.6144767,31.9096167 26.8366253,31.932075 27.0309543,31.9382 L27.3701095,31.9463667 C27.7170378,31.9557583 28.1024228,31.9647417 28.2370212,31.9680083 L28.2533858,31.1497083 C28.1179692,31.14685 27.7342206,31.1395 27.3926107,31.1288833 L27.05141,31.1219417" id="Fill-6" fill="#B31B1B" sketch:type="MSShapeGroup"></path>
            <path d="M21.8757137,27.4036583 C22.0753612,27.4003917 22.3040557,27.3754833 22.5687522,27.3460833 C22.6914863,27.333425 22.8215844,27.3203583 22.9602739,27.3048417 C23.0240956,27.3007583 23.0891447,27.2962667 23.1460115,27.2987167 L23.1582849,26.4804167 C23.0740075,26.4804167 22.9799114,26.4840917 22.8841788,26.493075 C22.7397617,26.505325 22.6051633,26.5208417 22.4799745,26.5355417 C22.2430978,26.559225 22.0393592,26.5841333 21.8573036,26.5857667 L20.6541005,26.6168 L20.6733288,27.4351 L21.8757137,27.4036583" id="Fill-7" fill="#B31B1B" sketch:type="MSShapeGroup"></path>
            <path d="M22.4873386,28.79485 C22.2500527,28.820575 22.0438594,28.8434417 21.8638494,28.8479333 L20.6606463,28.879375 L20.6794655,29.6972667 L21.8822596,29.665825 C22.0839526,29.660925 22.3114197,29.6352 22.5761162,29.6074333 L22.9602739,29.5674167 C23.0220501,29.5625167 23.083008,29.5596583 23.1394657,29.5621083 L23.176695,28.7454417 C23.0915994,28.7413583 22.9938212,28.7454417 22.8894973,28.7540167 L22.4873386,28.79485" id="Fill-8" fill="#B31B1B" sketch:type="MSShapeGroup"></path>
            <path d="M22.4881568,31.0545667 C22.2500527,31.0811083 22.0446777,31.1052 21.8241654,31.1084667 C21.4432806,31.118675 20.8402472,31.1374583 20.6622828,31.14195 L20.67742,31.9582083 C20.8562026,31.9529 21.4641454,31.936975 21.8834869,31.92595 C22.0831343,31.9206417 22.3114197,31.895325 22.5769345,31.86715 L22.9745929,31.8275417 C23.0351417,31.8206 23.0956905,31.819375 23.1509208,31.8206 L23.1636034,31.00475 C23.0768713,31.0023 22.9807296,31.00475 22.8907246,31.0129167 L22.4881568,31.0545667" id="Fill-9" fill="#B31B1B" sketch:type="MSShapeGroup"></path>
            <path d="M3.69306854,24.8087 C4.71667079,24.8087 5.34425106,24.1549583 5.42034619,23.0197917 C5.43139226,22.7968417 5.41502772,22.5498 5.35938826,22.246 L5.34015993,22.1463667 L4.49534032,22.1386083 L4.57429925,22.3117417 C4.63484806,22.4469 4.67085006,22.7319167 4.6569402,22.9707917 C4.61889263,23.56165 4.17377703,23.9226167 3.54660587,23.8797417 C2.90879775,23.8393167 2.50377528,23.4264917 2.53773171,22.8503333 C2.55041423,22.6633167 2.58232509,22.4562917 2.73778826,22.225175 L2.84333958,22.0618417 L2.00956604,21.93975 L1.97070025,22.02305 C1.86473983,22.2480417 1.79273583,22.5351 1.77759863,22.788675 C1.70436729,23.9757 2.36099463,24.7303 3.53596891,24.8038 C3.58874457,24.8066583 3.64152022,24.8087 3.69306854,24.8087" id="Fill-10" fill="#B31B1B" sketch:type="MSShapeGroup"></path>
            <path d="M3.82684869,20.7988667 C4.05349763,20.86175 4.27441898,20.894825 4.48306692,20.894825 C5.25997366,20.894825 5.83477828,20.4419833 6.06060899,19.6522667 C6.19479825,19.1806417 6.15675069,18.733925 5.9497392,18.3656083 C5.72349938,17.9564583 5.3123402,17.6636833 4.76535531,17.508925 C4.54688864,17.4468583 4.33455868,17.4162333 4.1336839,17.4162333 C3.35145868,17.4162333 2.77460849,17.8686667 2.55123246,18.6571583 C2.2607618,19.6718667 2.7508799,20.4913917 3.82684869,20.7988667 M3.2860005,18.8645917 C3.40955281,18.4244083 3.78430087,18.332125 4.07722622,18.332125 C4.21550662,18.332125 4.36606042,18.354175 4.51375044,18.3954167 C4.87131573,18.4983167 5.15033121,18.6845167 5.2763382,18.9095083 C5.36511586,19.0679417 5.38107129,19.2463833 5.32625006,19.4440167 C5.19942484,19.885425 4.8312226,19.9777083 4.54361573,19.9777083 C4.39797129,19.9777083 4.242099,19.954025 4.07804444,19.9082917 C3.61329139,19.7755833 3.12603708,19.4236 3.2860005,18.8645917" id="Fill-11" fill="#B31B1B" sketch:type="MSShapeGroup"></path>
            <path d="M7.35299888,16.2141 L6.14734107,15.5705667 L6.18620687,15.49625 C6.29953134,15.28065 6.38708165,15.2994333 6.57322834,15.3218917 L7.74942996,15.47175 L8.21377391,14.5962833 L6.65055081,14.4337667 C6.54663596,14.4260083 6.43249326,14.429275 6.34535206,14.4505083 C6.3584437,14.1177167 6.18538864,13.80575 5.86914382,13.6375167 C5.69199763,13.5444167 5.52221548,13.4966417 5.36307029,13.4966417 C4.79194769,13.4966417 4.48879451,14.071575 4.22000687,14.5795417 L3.81089326,15.345575 L6.93202097,17.00545 L7.35299888,16.2141 M5.51566966,15.1340583 L5.47066717,15.2136833 L4.90445393,14.911925 L4.94700175,14.8327083 C5.0897824,14.5697417 5.24279089,14.3516917 5.48457703,14.4795 C5.5709,14.52605 5.62081186,14.5795417 5.64208577,14.6465083 C5.68667915,14.7890167 5.58931011,14.992775 5.51566966,15.1340583" id="Fill-12" fill="#B31B1B" sketch:type="MSShapeGroup"></path>
            <path d="M9.30283433,13.1446583 L7.69910899,11.817575 L9.97378065,12.3341167 L10.6074976,11.572575 L7.88648302,9.31816667 L7.33295231,9.98783333 L8.93626854,11.315325 L6.66486979,10.7914333 L6.02706167,11.5591 L8.74848539,13.81065 L9.30283433,13.1446583" id="Fill-13" fill="#B31B1B" sketch:type="MSShapeGroup"></path>
            <path d="M13.2356434,9.33000833 L12.7541167,8.73751667 L11.7669256,9.53989167 L11.3381745,9.01314167 L12.2390427,8.28426667 L11.7530157,7.693 L10.8562387,8.42269167 L10.500719,7.98455 L11.4797278,7.18911667 L10.9973829,6.59703333 L9.32369913,7.95841667 L11.5537774,10.695475 L13.2356434,9.33000833" id="Fill-14" fill="#B31B1B" sketch:type="MSShapeGroup"></path>
            <path d="M16.1706245,7.581525 L15.7930126,6.9139 L14.6982246,7.52966667 L13.3391492,5.12009167 L12.5561057,5.56190833 L14.2882928,8.63461667 L16.1706245,7.581525" id="Fill-15" fill="#B31B1B" sketch:type="MSShapeGroup"></path>
            <path d="M19.1387437,6.44635833 L18.8765019,5.729325 L17.6941635,6.15725833 L16.7511567,3.55780833 L15.9075644,3.86365 L17.1091311,7.17890833 L19.1387437,6.44635833" id="Fill-16" fill="#B31B1B" sketch:type="MSShapeGroup"></path>
            <path d="M22.697623,5.86244167 C22.7679905,5.86244167 22.8404036,5.85835833 22.913635,5.85141667 C23.4029348,5.810175 23.7621366,5.65705 23.9846944,5.39653333 C24.1941605,5.14704167 24.28212,4.802 24.2452998,4.37243333 L24.062426,2.15845 L23.1681036,2.23031667 L23.3354311,4.244625 C23.3939343,4.955125 23.108373,5.06945833 22.8534953,5.09355 C22.830994,5.09355 22.8089019,5.096 22.7884462,5.096 C22.57898,5.096 22.2921914,5.01719167 22.2353246,4.335275 L22.0700427,2.3226 L21.1777659,2.39650833 L21.3606397,4.6109 C21.4281434,5.42838333 21.8883963,5.86244167 22.697623,5.86244167" id="Fill-17" fill="#B31B1B" sketch:type="MSShapeGroup"></path>
            <path d="M26.7441657,3.75585 L27.5079808,5.95921667 L28.491899,6.09233333 L28.9668799,2.59455 L28.106514,2.47858333 L27.8279076,4.54148333 L27.0649107,2.338525 L26.0793561,2.205 L25.6060116,5.70400833 L26.4655593,5.81956667 L26.7441657,3.75585" id="Fill-18" fill="#B31B1B" sketch:type="MSShapeGroup"></path>
            <path d="M31.6203908,3.350375 L30.7661615,3.08005833 L29.7065573,6.44921667 L30.5620139,6.71585833 L31.6203908,3.350375" id="Fill-19" fill="#B31B1B" sketch:type="MSShapeGroup"></path>
            <path d="M36.0519094,5.33283333 L35.2443191,4.92695 L33.5387245,6.6591 L33.9171546,4.26014167 L33.0625162,3.82485833 L32.5376235,7.5166 L33.4078081,7.95351667 L36.0519094,5.33283333" id="Fill-20" fill="#B31B1B" sketch:type="MSShapeGroup"></path>
            <path d="M36.936413,10.3773833 L37.408121,9.77876667 L36.4025197,8.99476667 L36.8218612,8.45944167 L37.7325481,9.17239167 L38.2030287,8.57173333 L37.2902963,7.85878333 L37.638861,7.414925 L38.6346436,8.19116667 L39.1067607,7.59295833 L37.4052572,6.263425 L35.2279546,9.04295 L36.936413,10.3773833" id="Fill-21" fill="#B31B1B" sketch:type="MSShapeGroup"></path>
            <path d="M38.3994032,11.8571833 L39.4258693,10.9584417 L39.4831452,11.0245917 C39.6148798,11.1748583 39.6189709,11.2385583 39.5101467,11.4480333 L38.9545704,12.49255 L39.6095613,13.236125 L40.3165096,11.8302333 C40.3406473,11.7791917 40.3913774,11.6697583 40.4081511,11.5435833 C40.7108951,11.6758833 41.0750062,11.6158583 41.3384754,11.386375 C42.0990176,10.7183417 41.4906657,10.0249917 41.0467774,9.51988333 L40.4658361,8.8592 L37.8065976,11.1871083 L38.3994032,11.8571833 M40.4805642,10.0352 L40.5415221,10.1046167 C40.6675291,10.2503917 40.7984454,10.4141333 40.7865811,10.5497 C40.7849447,10.6117667 40.75017,10.6701583 40.6822572,10.729775 C40.6163899,10.7869417 40.5525682,10.8163417 40.48711,10.8163417 C40.3365562,10.8163417 40.1794566,10.661175 40.0599954,10.5260167 L40.0002648,10.4574167 L40.4805642,10.0352" id="Fill-22" fill="#B31B1B" sketch:type="MSShapeGroup"></path>
            <path d="M41.6944042,14.6808083 C41.520531,14.7828917 41.3037007,14.6097583 41.2046953,14.443975 C41.0946437,14.25655 41.0312311,14.0217583 41.0234579,13.7681833 L41.016503,13.584025 L40.2076854,13.9568333 L40.2649613,14.1373167 C40.3447385,14.4100833 40.3942412,14.57505 40.5652507,14.86415 C40.8528576,15.3500667 41.2357879,15.6179333 41.6412195,15.6179333 C41.83023,15.6179333 42.0208769,15.5615833 42.2098874,15.4476583 C42.8358312,15.0789333 42.7372348,14.4921583 42.6664582,14.0638167 C42.6169554,13.7608333 42.5928177,13.573 42.7192338,13.498275 C42.7822373,13.46275 42.8407406,13.4451917 42.89638,13.4451917 C43.058389,13.4451917 43.1659859,13.5983167 43.2052608,13.6628333 C43.3079483,13.8367833 43.3754521,14.0425833 43.4036809,14.2549167 L43.425773,14.4190667 L44.1609502,14.0866833 L44.1413127,13.9895 C44.0897644,13.7396 43.9883042,13.4897 43.8336593,13.226325 C43.4482743,12.5799333 42.8161938,12.3704583 42.2254337,12.7195833 C41.6203547,13.07565 41.7074959,13.6497667 41.7729541,14.066675 C41.8269571,14.397425 41.8490492,14.5905667 41.6944042,14.6808083" id="Fill-23" fill="#B31B1B" sketch:type="MSShapeGroup"></path>
            <path d="M42.0990176,17.8756083 L45.3727447,16.5424 L45.0331804,15.7138917 L41.7614989,17.0475083 L42.0990176,17.8756083" id="Fill-24" fill="#B31B1B" sketch:type="MSShapeGroup"></path>
            <path d="M45.3850181,19.0348667 L42.6938688,19.694325 L42.907017,20.5661167 L45.5989845,19.9029833 L45.8231788,20.8058083 L46.5628562,20.6241 L45.9037742,17.9519667 L45.1604147,18.1332667 L45.3850181,19.0348667" id="Fill-25" fill="#B31B1B" sketch:type="MSShapeGroup"></path>
            <path d="M43.3149032,23.3109333 L43.3648151,24.2051833 L44.7529376,24.1271917 L46.9637875,25.2590917 L46.9118301,24.2876667 L45.6210767,23.6494417 L46.8328712,22.89035 L46.7751861,21.8409333 L44.7022075,23.234575 L43.3149032,23.3109333" id="Fill-26" fill="#B31B1B" sketch:type="MSShapeGroup"></path>
            <path d="M4.38160674,31.3877667 L5.11473833,31.17625 L4.80749401,30.1125417 L5.34793308,29.95615 L5.6731784,31.0758 L6.40712821,30.8618333 L5.83396005,28.8785583 L2.43381685,29.856925 L2.68746729,30.7213667 L4.07395331,30.3207917 L4.38160674,31.3877667" id="Fill-27" fill="#B31B1B" sketch:type="MSShapeGroup"></path>
            <path d="M7.53055418,34.313475 C7.66842547,33.9059583 7.62505943,33.453525 7.40045605,33.00395 C7.08830237,32.36695 6.56954632,32.0174167 5.94728452,32.0174167 C5.64781336,32.0174167 5.33238677,32.0970417 5.0116417,32.25425 C4.49534032,32.507825 4.14391174,32.8700167 3.99785818,33.3020333 C3.85835044,33.7054667 3.9053985,34.1583083 4.12877453,34.6095167 C4.4405191,35.2416167 4.9605025,35.5887 5.59708327,35.5887 C5.90064557,35.5887 6.21770861,35.5086667 6.53558989,35.3530917 C7.03757228,35.1056417 7.38122772,34.7475333 7.53055418,34.313475 M6.12443071,34.51805 C5.89982734,34.6287083 5.67726954,34.6871 5.47966767,34.6871 C5.17283246,34.6871 4.95027466,34.5470417 4.8132216,34.27305 C4.72158015,34.085625 4.70480649,33.9031 4.76453708,33.7299667 C4.84717803,33.4866 5.08732772,33.2534417 5.42280087,33.0892917 C5.6310397,32.988025 5.84623346,32.9320833 6.04138065,32.9320833 C6.3555799,32.9320833 6.58386529,33.0696917 6.71519076,33.3412333 C6.8064231,33.5262083 6.82074207,33.7091417 6.76060237,33.8863583 C6.67591586,34.1313583 6.44394844,34.3645167 6.12443071,34.51805" id="Fill-28" fill="#B31B1B" sketch:type="MSShapeGroup"></path>
            <path d="M9.96682572,37.0468583 L8.38355605,38.304525 C7.95685056,38.645075 7.65165181,38.6757 7.40618365,38.3665917 C7.30513258,38.2396 7.263403,38.118325 7.27894931,37.995825 C7.29981411,37.8202417 7.43850362,37.6324083 7.69256317,37.429875 L9.27378727,36.1746583 L8.71084694,35.469875 L6.96925031,36.8496333 C6.60677566,37.1371 6.41367403,37.4600917 6.39853683,37.8100333 C6.38217228,38.1338417 6.52127091,38.4825583 6.81010512,38.8418917 C7.15294232,39.2739083 7.52114457,39.490325 7.90775693,39.490325 C8.19372734,39.490325 8.48910737,39.3715 8.78694207,39.1354833 L10.529766,37.753275 L9.96682572,37.0468583" id="Fill-29" fill="#B31B1B" sketch:type="MSShapeGroup"></path>
            <path d="M12.9734016,39.9186667 L11.6519647,41.528725 L12.1551744,39.247775 L11.3741765,38.6128167 L9.13305218,41.34375 L9.81258989,41.8933667 L11.1352542,40.28045 L10.637772,42.5695667 L11.4093603,43.2016667 L13.6500755,40.470325 L12.9734016,39.9186667" id="Fill-30" fill="#B31B1B" sketch:type="MSShapeGroup"></path>
            <path d="M15.5843647,41.5883417 L14.6740869,41.1310083 L13.0842714,44.2857917 L13.9949583,44.7398583 C14.433119,44.9603583 14.8160493,45.0661167 15.1662506,45.0661167 C15.7778754,45.0661167 16.2581748,44.7325083 16.5924206,44.0697833 C17.1185407,43.0240417 16.781022,42.1894083 15.5843647,41.5883417 M15.7590562,43.6496083 C15.5761824,44.0150667 15.2595285,44.2220917 14.8900989,44.2220917 C14.739136,44.2220917 14.5889913,44.1853417 14.4539838,44.1167417 L14.235108,44.0101667 L15.1380217,42.2163583 L15.3556702,42.3262 C15.5827282,42.440125 15.758238,42.6389833 15.8359695,42.875 C15.9157467,43.1208167 15.8895634,43.3890917 15.7590562,43.6496083" id="Fill-31" fill="#B31B1B" sketch:type="MSShapeGroup"></path>
            <path d="M17.5354275,46.2445667 L19.6509539,46.8064333 L19.8481467,46.0718417 L18.6040322,45.7386417 L18.7774964,45.0853083 L19.9074682,45.3858417 L20.1062974,44.6516583 L18.9750983,44.3490833 L19.1195154,43.80355 L20.353402,44.1310333 L20.5526403,43.3964417 L18.444887,42.83335 L17.5354275,46.2445667" id="Fill-32" fill="#B31B1B" sketch:type="MSShapeGroup"></path>
            <path d="M22.7512169,43.6692083 L21.7300693,43.6108167 L21.5324674,47.13555 L22.5491147,47.1935333 C22.6272554,47.1984333 22.7045779,47.1996583 22.7814913,47.1996583 C23.9662843,47.1996583 24.5995921,46.6431 24.6625956,45.5455 C24.6920518,45.0011917 24.5684995,44.5695833 24.2907114,44.2588417 C23.9707845,43.9031833 23.4663474,43.7096333 22.7512169,43.6692083 M22.719306,46.438525 L22.4758834,46.426275 L22.5920717,44.4262583 L22.8318122,44.4389167 C23.3076114,44.4646417 23.7699097,44.836225 23.7339077,45.4895583 C23.6938146,46.17025 23.1799679,46.4634333 22.719306,46.438525" id="Fill-33" fill="#B31B1B" sketch:type="MSShapeGroup"></path>
            <path d="M27.7755411,43.402975 L27.1745532,47.1388167 L28.0999682,46.93955 L28.2214749,46.1482 L29.3567652,45.8999333 L29.78838,46.5810333 L30.7579793,46.369925 L28.6645449,43.2135083 L27.7755411,43.402975 M28.3319356,45.3429667 L28.4448509,44.4213583 L28.927605,45.2151583 L28.3319356,45.3429667" id="Fill-34" fill="#B31B1B" sketch:type="MSShapeGroup"></path>
            <path d="M31.135182,45.2265917 L31.4416081,46.0747 L32.2921553,45.7688583 L31.9824563,44.9187083 L31.135182,45.2265917" id="Fill-35" fill="#B31B1B" sketch:type="MSShapeGroup"></path>
            <path d="M32.8571412,41.6557167 L31.9595459,42.1383667 L33.6467305,45.2425167 L34.541871,44.7570083 C35.7172544,44.1236833 36.0298172,43.278025 35.4713772,42.249025 C34.9186647,41.2265583 34.0317064,41.0174917 32.8571412,41.6557167 M34.2898571,44.0273167 L34.0775271,44.1424667 L33.1202012,42.3829583 L33.3345768,42.2674 C33.4761301,42.1894083 33.6365026,42.1465333 33.7976934,42.1465333 C34.1540313,42.1465333 34.4670032,42.3474333 34.6539682,42.6892083 C34.9657127,43.2661833 34.7071529,43.8002833 34.2898571,44.0273167" id="Fill-36" fill="#B31B1B" sketch:type="MSShapeGroup"></path>
            <path d="M36.1451873,42.7680167 L36.6643524,43.5103667 L37.4073027,42.99505 L36.8905923,42.251475 L36.1451873,42.7680167" id="Fill-37" fill="#B31B1B" sketch:type="MSShapeGroup"></path>
            <path d="M37.5574474,38.2502167 L37.4003478,39.634875 L38.1768454,39.7406333 L38.2410763,39.1636583 L39.9282608,40.872125 L40.5722056,40.237575 L38.0892951,37.7242833 L37.5574474,38.2502167" id="Fill-38" fill="#B31B1B" sketch:type="MSShapeGroup"></path>
            <path d="M42.348986,36.4021 C42.053606,36.1856833 41.7230422,36.1501583 41.3560673,36.29185 C41.3617949,35.945175 41.1813758,35.6475 40.9657729,35.487025 C40.5255667,35.1644417 39.9372613,35.3465583 39.5060556,35.9276167 C39.0789409,36.503775 39.1178067,37.086875 39.6087431,37.451925 C39.8529839,37.6324083 40.1720925,37.67365 40.4781095,37.5642167 C40.4564265,37.949275 40.5803879,38.2375583 40.8536758,38.4376417 C41.052505,38.5842333 41.2586983,38.65855 41.4706191,38.65855 C41.8253206,38.65855 42.1800221,38.4409083 42.4745839,38.0480917 C42.7212794,37.711625 42.8296945,37.3743417 42.7838738,37.0713583 C42.7437806,36.8104333 42.5985453,36.5883 42.348986,36.4021 L42.348986,36.4021 Z M40.6675291,36.6597583 C40.5415221,36.7393833 40.4097875,36.8071667 40.2935993,36.8071667 C40.2379598,36.8071667 40.1892753,36.7932833 40.1455001,36.7606167 C39.9716268,36.6307667 40.0579498,36.4172083 40.1360905,36.3134917 C40.1950029,36.2310083 40.2690524,36.1914 40.3512843,36.1914 C40.4097875,36.1914 40.4760639,36.2142667 40.5386583,36.2595917 C40.6450278,36.34085 40.6916668,36.5241917 40.6675291,36.6597583 L40.6675291,36.6597583 Z M41.8813692,37.611175 C41.7614989,37.772875 41.5360773,37.8202417 41.3826597,37.7075417 C41.2427428,37.6030083 41.1969221,37.4600917 41.2345605,37.2187667 C41.4886201,37.0533917 41.6739486,37.0264417 41.8330938,37.1452667 C41.9075524,37.199575 41.9484638,37.2677667 41.9615554,37.3457583 C41.974238,37.429875 41.9451909,37.5246083 41.8813692,37.611175 L41.8813692,37.611175 Z" id="Fill-39" fill="#B31B1B" sketch:type="MSShapeGroup"></path>
            <path d="M43.9518931,32.951275 C43.3390409,32.6458417 42.7568723,32.8283667 42.4623105,33.4151417 C42.3792604,33.5813333 42.345304,33.7414 42.3612594,33.9002417 C42.1419745,33.7201667 41.9427362,33.4404583 42.114973,33.0946 C42.2025233,32.9186083 42.3183025,32.8022333 42.4590376,32.679325 L42.5780896,32.5772417 L41.9280081,32.1117417 L41.8547768,32.1832 C41.6739486,32.3587833 41.531577,32.5551917 41.4194799,32.7789583 C41.2451975,33.1305333 41.2112411,33.4702667 41.3221109,33.7981583 C41.5119396,34.3690083 42.0949265,34.7585583 42.546997,34.982325 C42.9413825,35.1811833 43.278083,35.2779583 43.5730539,35.2779583 C44.0218516,35.2779583 44.3589612,35.0550083 44.5798825,34.61605 C44.9214924,33.9316833 44.6919797,33.3249 43.9518931,32.951275 M43.9195732,34.2873417 C43.8639337,34.4033083 43.7743378,34.4596583 43.6483308,34.4596583 C43.562417,34.4596583 43.4630024,34.4331167 43.3599057,34.379625 C43.1860325,34.293875 43.0677986,34.186075 43.0334331,34.0762333 C43.0117501,34.0109 43.0182959,33.9467917 43.0530705,33.8741083 C43.1062553,33.7687583 43.1921692,33.7173083 43.3194035,33.7173083 C43.4151361,33.7173083 43.526415,33.7471167 43.6413759,33.8042833 C43.7923388,33.8806417 43.9015722,33.9855833 43.937165,34.0937917 C43.9592572,34.1587167 43.9518931,34.222825 43.9195732,34.2873417" id="Fill-40" fill="#B31B1B" sketch:type="MSShapeGroup"></path>
            <path d="M45.2033717,29.3893833 C44.4972416,29.1774583 43.9273463,29.49555 43.7272898,30.175425 C43.7072432,30.2383083 43.6929242,30.2962917 43.6855602,30.346925 L43.2715372,30.2154417 L43.6315572,29.0014667 L42.9262453,28.7944417 L42.3203481,30.8312083 L44.2800022,31.4535083 L44.279184,31.2824167 C44.2779567,31.09295 44.3029126,30.9136917 44.3569156,30.7311667 C44.4072366,30.5629333 44.5880648,30.146025 44.966904,30.2579083 C45.3686536,30.3791833 45.2757848,30.8107917 45.2393737,30.9406417 C45.1677788,31.1795167 45.0274528,31.3510167 44.9104463,31.4931167 L44.7979401,31.630725 L45.6227131,31.9022667 L45.6730341,31.81325 C45.8084507,31.5751917 45.928321,31.2995667 45.9917336,31.0811083 C46.1161041,30.6682833 46.0993305,30.2885333 45.9455037,29.9831 C45.7998593,29.697675 45.5380266,29.4882 45.2033717,29.3893833" id="Fill-41" fill="#B31B1B" sketch:type="MSShapeGroup"></path>
            <g id="Group-45">
                <mask id="mask-2" sketch:name="Clip 43" fill="white">
                    <use xlink:href="#path-1"></use>
                </mask>
                <g id="Clip-43"></g>
                <path d="M6.55195443,24.677625 C6.55195443,34.4853833 14.5427614,42.4629917 24.3676247,42.4629917 C34.192488,42.4629917 42.1841132,34.4853833 42.1841132,24.677625 C42.1841132,14.8723167 34.192488,6.895525 24.3676247,6.895525 C14.5427614,6.895525 6.55195443,14.8723167 6.55195443,24.677625 M24.3676247,7.51129167 C33.8516964,7.51129167 41.5683973,15.2136833 41.5683973,24.677625 C41.5683973,34.1440167 33.8516964,41.8455917 24.3676247,41.8455917 C14.8823257,41.8455917 7.1672613,34.1440167 7.1672613,24.677625 C7.1672613,15.2136833 14.8823257,7.51129167 24.3676247,7.51129167" id="Fill-42" fill="#B31B1B" sketch:type="MSShapeGroup" mask="url(#mask-2)"></path>
                <path d="M24.3676247,0.357291667 C10.9306974,0.357291667 0,11.26755 0,24.6796667 C0,38.0877 10.9306974,49 24.3676247,49 C37.8049612,49 48.7352494,38.0877 48.7352494,24.6796667 C48.7352494,11.26755 37.8049612,0.357291667 24.3676247,0.357291667 M24.3676247,48.36545 C11.2817169,48.36545 0.636989888,37.741025 0.636989888,24.6796667 C0.636989888,11.6195333 11.2817169,0.993066667 24.3676247,0.993066667 C37.4535326,0.993066667 48.0986687,11.6195333 48.0986687,24.6796667 C48.0986687,37.741025 37.4535326,48.36545 24.3676247,48.36545" id="Fill-44" fill="#B31B1B" sketch:type="MSShapeGroup" mask="url(#mask-2)"></path>
            </g>
            <path d="M72.2418364,31.1959186 L71.854986,32.1166487 C71.0812812,32.5060634 70.32412,32.7882198 69.5834796,32.9631263 C68.8428392,33.1380329 68.0360823,33.2254849 67.1631847,33.2254849 C66.1381913,33.2254849 65.1859536,33.096782 64.3064431,32.8393723 C63.4269326,32.5819626 62.6581991,32.2140043 62.0002195,31.7354863 C61.3422398,31.2569682 60.8049529,30.7207061 60.3883427,30.1266837 C59.9717325,29.5326614 59.6543199,28.8874967 59.4360955,28.1911705 C59.2178711,27.4948443 59.1087605,26.730877 59.1087605,25.8992457 C59.1087605,23.7937664 59.8444303,22.0496769 61.3157918,20.6669248 C62.7871533,19.2841728 64.7957796,18.5928071 67.341731,18.5928071 C67.9435014,18.5928071 68.5006265,18.6274579 69.0131232,18.6967605 C69.52562,18.7660631 70.1505259,18.8980661 70.8878599,19.0927734 C71.6251939,19.2874808 72.0765149,19.4013333 72.2418364,19.4343346 C72.0963534,19.7973483 71.9872429,20.1537563 71.9145014,20.5035695 C71.8086956,21.0645906 71.7359553,21.7147054 71.6962781,22.4539332 L71.0713659,22.4539332 L71.0614466,21.285695 C70.995318,20.6388707 70.6365757,20.1570598 69.9852089,19.8402478 C69.3338421,19.5234359 68.3799513,19.3650323 67.1235077,19.3650323 C66.1844815,19.3782328 65.3876437,19.4986856 64.7329705,19.7263941 C64.0782973,19.9541027 63.5013338,20.3138108 63.0020629,20.8055294 C62.5027919,21.2972479 62.0944538,21.920962 61.7770365,22.6766905 C61.4596192,23.4324189 61.2976065,24.3811904 61.2909937,25.5230334 C61.2909937,27.5229087 61.9026741,29.1316952 63.1260534,30.349441 C64.3494326,31.5671869 65.9662528,32.1760506 67.9765625,32.1760506 C68.8825244,32.1760506 69.7223451,32.0506478 70.4960499,31.7998384 C71.0250787,31.6282319 71.5507933,31.3576258 72.0732093,30.9880119 L72.2418364,31.1959186 Z M73.4817416,28.3941272 C73.4817416,26.9156715 73.9529008,25.7094942 74.8952335,24.775559 C75.8375662,23.8416238 77.0460483,23.3746633 78.5207163,23.3746633 C79.9094171,23.3746633 81.0401993,23.8102731 81.9130969,24.6815059 C82.7859945,25.5527387 83.2224368,26.6780642 83.2224368,28.0575162 C83.2224368,29.0211524 82.9976029,29.9022724 82.5479284,30.7009025 C82.0982538,31.4995325 81.4634287,32.1248967 80.643434,32.5770137 C79.8234393,33.0291308 78.9207973,33.2551859 77.935481,33.2551859 C77.1683892,33.2551859 76.5186854,33.126483 75.9863501,32.8690733 C75.4540148,32.6116636 75.0225321,32.2882563 74.691889,31.8988416 C74.361246,31.5094269 74.1099611,31.1101179 73.9380267,30.7009025 C73.6338351,29.9814754 73.4817416,29.212558 73.4817416,28.3941272 L73.4817416,28.3941272 Z M75.3564782,27.6615032 C75.3564782,28.4733338 75.4920398,29.2983525 75.7631671,30.1365841 C76.0342944,30.9748156 76.4261006,31.5869795 76.9385973,31.973094 C77.451094,32.3592086 78.0082191,32.5522629 78.6099895,32.5522629 C79.3770813,32.5522629 80.0185192,32.2486561 80.5343223,31.6414332 C81.0501255,31.0342103 81.3080232,30.1002892 81.3080232,28.8396417 C81.3080232,27.7902022 81.1542765,26.8843317 80.8467784,26.122003 C80.5392804,25.3596743 80.1474743,24.8217621 79.6713483,24.5082503 C79.1952223,24.1947385 78.6695078,24.0379849 78.0941889,24.0379849 C77.280807,24.0379849 76.6211841,24.3316916 76.1153002,24.9191137 C75.6094164,25.5065358 75.3564782,26.4206565 75.3564782,27.6615032 L75.3564782,27.6615032 Z M84.3631496,32.9482759 L84.3631496,32.3839574 C85.1104028,32.3707569 85.5137813,32.3575566 85.5732971,32.3443561 C85.6857157,32.3245554 85.7700284,32.2932047 85.8262377,32.2503031 C85.882447,32.2074015 85.9270832,32.1463501 85.9601475,32.0671471 C86.0262761,31.9153414 86.0659526,31.677736 86.0791784,31.3543238 C86.1188555,29.5920575 86.1386938,28.6713366 86.1386938,28.5921336 L86.1386938,27.4139952 C86.1386938,26.8859753 86.1287747,26.3183624 86.1089361,25.7111395 C86.0957104,25.3217249 86.0676061,25.0907197 86.0246225,25.0181169 C85.9816389,24.9455142 85.9055922,24.891063 85.79648,24.8547616 C85.6873678,24.8184602 85.2558851,24.8036099 84.502019,24.8102101 L84.502019,24.2458917 C85.8378168,24.0610847 86.8131992,23.8201793 87.4281952,23.5231681 C87.5604524,23.4571656 87.6497247,23.4241649 87.6960147,23.4241649 C87.7423048,23.4241649 87.778675,23.4406652 87.8051264,23.4736665 C87.8315778,23.5066677 87.8448034,23.5561689 87.8448034,23.6221713 C87.8448034,23.6683731 87.841497,23.7211743 87.8348841,23.7805765 C87.8018198,24.1831917 87.7819815,24.8069058 87.7753687,25.6517376 C88.0729474,25.3085247 88.347377,24.968617 88.5986657,24.6320043 C88.8499544,24.2953916 89.0318054,24.0775867 89.144224,23.978583 C89.3426098,23.8069765 89.5707501,23.6700234 89.8286517,23.5677196 C90.0865533,23.4654157 90.3543701,23.4142645 90.6321103,23.4142645 C90.9098504,23.4142645 91.18428,23.4736659 91.4554073,23.5924704 L91.5149228,23.7310749 C91.4157298,24.6089079 91.3595214,25.3811254 91.3462956,26.0477505 L90.8999298,26.0477505 C90.747834,25.7309386 90.5709426,25.4999334 90.3692504,25.3547279 C90.1675581,25.2095224 89.91462,25.1369208 89.6104284,25.1369208 C89.1012381,25.1369208 88.6681022,25.3464755 88.3110077,25.7655913 C87.9539132,26.1847071 87.7753687,26.8133713 87.7753687,27.6516029 L87.7753687,28.6713362 C87.7753687,29.1069526 87.7919006,29.9022706 87.8249649,31.0573141 C87.8315777,31.4665295 87.8481097,31.7272354 87.8745611,31.8394397 C87.9010125,31.9516439 87.9357295,32.0324957 87.9787131,32.0819976 C88.0216967,32.1314994 88.0927839,32.1727504 88.1919768,32.2057516 C88.3903626,32.2651539 88.9259963,32.3245552 89.798894,32.3839574 L89.798894,32.9482759 C88.6350305,32.9020741 87.6431162,32.8789736 86.8231215,32.8789736 C85.9766753,32.8789736 85.1566929,32.9020741 84.3631496,32.9482759 L84.3631496,32.9482759 Z M92.1993504,32.9482759 L92.1993504,32.3839574 L93.1416784,32.3740571 C93.2805484,32.3674569 93.3880058,32.3427063 93.4640537,32.2998047 C93.5401016,32.2569031 93.5979633,32.2024518 93.6376404,32.1364494 C93.7103819,32.0044444 93.7566712,31.7701391 93.7765098,31.4335264 C93.7765098,31.3477232 93.7963481,30.4006017 93.8360253,28.5921336 L93.8360253,27.4139952 C93.8360253,26.8859753 93.8261061,26.3183624 93.8062676,25.7111395 C93.786429,25.3217249 93.7550184,25.0907197 93.7120348,25.0181169 C93.6690512,24.9455142 93.5946576,24.891063 93.4888518,24.8547616 C93.3830461,24.8184602 92.9532166,24.8036099 92.1993504,24.8102101 L92.1993504,24.2458917 C93.5351483,24.0610847 94.5105306,23.8201793 95.1255267,23.5231681 C95.2577839,23.4571656 95.3470562,23.4241649 95.3933462,23.4241649 C95.4396362,23.4241649 95.4760064,23.4406652 95.5024579,23.4736665 C95.5289093,23.5066677 95.5421348,23.5561689 95.5421348,23.6221713 C95.5421348,23.6683731 95.5388285,23.7211743 95.5322156,23.7805765 C95.512377,24.0181855 95.4925387,24.5197968 95.4727001,25.2854256 L97.3176791,23.7112742 C97.8599337,23.5132668 98.3724227,23.4142645 98.8551615,23.4142645 C99.3908032,23.4142645 99.8983327,23.523167 100.377765,23.7409752 C100.857198,23.9587834 101.217593,24.2326896 101.458962,24.562702 C101.700332,24.8927145 101.860691,25.3085239 101.940046,25.8101428 C101.986336,26.107154 102.00948,26.9354727 102.00948,28.2951239 L102.00948,30.0474811 C102.00948,30.9055134 102.032625,31.4896267 102.078915,31.7998384 C102.111979,31.9978458 102.163228,32.1347989 102.232663,32.2107018 C102.302098,32.2866046 102.409556,32.3344557 102.555039,32.3542565 L103.616397,32.3839574 L103.616397,32.9482759 C102.968337,32.9020741 102.429397,32.8789736 101.999561,32.8789736 C101.629241,32.8789736 101.014254,32.9020741 100.154582,32.9482759 C100.247162,31.3180145 100.293452,30.2883912 100.293452,29.859375 L100.293452,28.1961207 C100.293452,27.1598817 100.253775,26.4800663 100.174421,26.1566541 C100.062002,25.7144374 99.8074107,25.3580294 99.410639,25.0874192 C99.0138674,24.816809 98.5344422,24.6815059 97.972349,24.6815059 C97.4763845,24.6815059 97.0234103,24.7986586 96.6134129,25.0329674 C96.2034156,25.2672762 95.9108009,25.5378824 95.73556,25.8447939 C95.5603192,26.1517055 95.4727001,26.6681672 95.4727001,27.3941945 L95.4727001,28.5921336 C95.5123773,30.3081982 95.5322156,31.2355192 95.5322156,31.3741245 C95.5454413,31.7041369 95.5851179,31.9450423 95.6512465,32.0968481 C95.6776979,32.1562503 95.7173745,32.2074015 95.7702774,32.2503031 C95.8231803,32.2932047 95.9058398,32.3278555 96.0182584,32.3542565 C96.0579356,32.3608567 96.4216375,32.3707569 97.109375,32.3839574 L97.109375,32.9482759 C96.302606,32.9020741 95.5718958,32.8789736 94.9172226,32.8789736 C94.3617423,32.8789736 93.455794,32.9020741 92.1993504,32.9482759 L92.1993504,32.9482759 Z M112.513957,31.4137258 L112.196541,32.126549 C111.740254,32.4103597 111.40631,32.598464 111.194698,32.6908675 C110.883894,32.8294727 110.528458,32.9466253 110.12838,33.0423289 C109.728301,33.1380325 109.306738,33.1858836 108.863676,33.1858836 C107.990779,33.1858836 107.200554,33.0043795 106.492978,32.6413658 C105.785401,32.2783522 105.234889,31.7354899 104.841424,31.0127627 C104.447959,30.2900354 104.251229,29.4435663 104.251229,28.4733297 C104.251229,27.7143012 104.35538,27.0295356 104.563685,26.4190127 C104.77199,25.8084897 105.008396,25.3580295 105.272911,25.0676185 C105.464684,24.8564106 105.762258,24.6138551 106.165643,24.3399448 C106.569027,24.0660345 106.969099,23.8498796 107.365871,23.6914736 C107.888287,23.4736654 108.453678,23.3647629 109.062061,23.3647629 C109.802702,23.3647629 110.472244,23.5330667 111.070708,23.8696794 C111.669171,24.2062921 112.107267,24.6650025 112.385007,25.2458244 C112.662747,25.8266462 112.801615,26.4833611 112.801615,27.2159887 C112.801615,27.4007956 112.78839,27.6252007 112.761938,27.8892107 C112.285812,27.9816141 111.859289,28.0410155 111.482356,28.0674165 C110.768167,28.1202185 110.053989,28.1466191 109.3398,28.1466191 L106.155723,28.1466191 C106.168949,29.0904546 106.332615,29.8544219 106.646726,30.4385439 C106.960837,31.0226659 107.393973,31.4533257 107.946146,31.7305361 C108.49832,32.0077465 109.071977,32.1463497 109.667135,32.1463497 C110.070519,32.1463497 110.472245,32.0819982 110.872323,31.9532934 C111.272401,31.8245885 111.766705,31.5886332 112.355249,31.2454203 L112.513957,31.4137258 Z M106.155723,27.3644935 C106.340883,27.3842943 106.69136,27.4040947 107.207163,27.4238955 C108.192479,27.4568967 108.870287,27.4733971 109.240607,27.4733971 C110.120118,27.4733971 110.698735,27.4568967 110.976475,27.4238955 C110.983088,27.2654895 110.986394,27.1433867 110.986394,27.0575835 C110.986394,26.0147442 110.774786,25.2491269 110.351562,24.7607085 C109.928339,24.2722901 109.362948,24.0280846 108.655372,24.0280846 C107.908119,24.0280846 107.306358,24.2953906 106.85007,24.8300108 C106.393783,25.3646309 106.162336,26.20945 106.155723,27.3644935 L106.155723,27.3644935 Z M113.982005,32.9482759 L113.982005,32.3839574 L114.914414,32.3740571 C115.059897,32.3674569 115.17066,32.3427063 115.246708,32.2998047 C115.322756,32.2569031 115.380618,32.2024518 115.420295,32.1364494 C115.493036,32.0044444 115.536019,31.7701391 115.549245,31.4335264 C115.555858,31.3477232 115.579003,30.4006017 115.61868,28.5921336 L115.61868,24.4834995 C115.61868,23.381258 115.598841,22.2427322 115.559164,21.0678879 C115.532713,20.2758581 115.496343,19.8336481 115.450053,19.7412446 C115.416988,19.6752421 115.364086,19.6290411 115.291345,19.6026401 C115.192152,19.5564383 114.735871,19.5333378 113.922489,19.5333378 L113.922489,18.9492188 C115.416996,18.7644118 116.4552,18.5334066 117.037131,18.2561961 C117.123099,18.2165946 117.189226,18.1967942 117.235516,18.1967942 C117.281806,18.1967942 117.318176,18.2116445 117.344628,18.2413456 C117.371079,18.2710468 117.384305,18.3122977 117.384305,18.3650997 C117.384305,18.4113014 117.377692,18.4773029 117.364466,18.5631061 L117.354547,18.8898168 C117.321483,20.0712613 117.301644,21.0777841 117.295032,21.9094154 L117.275193,23.4538658 L117.275193,28.5921336 C117.308257,30.3081982 117.328096,31.2355192 117.334709,31.3741245 C117.341321,31.7041369 117.380998,31.9450423 117.453739,32.0968481 C117.480191,32.1562503 117.519867,32.2074015 117.57277,32.2503031 C117.625673,32.2932047 117.705026,32.3278555 117.810832,32.3542565 C117.857122,32.3608567 118.22413,32.3707569 118.911868,32.3839574 L118.911868,32.9482759 C118.012519,32.8954739 117.222294,32.8690733 116.541169,32.8690733 C115.893109,32.8690733 115.040063,32.8954739 113.982005,32.9482759 L113.982005,32.9482759 Z M119.893873,32.9482759 L119.893873,32.3839574 L120.826282,32.3740571 C120.971765,32.3674569 121.082528,32.3427063 121.158576,32.2998047 C121.234624,32.2569031 121.292486,32.2024518 121.332163,32.1364494 C121.404904,32.0044444 121.447887,31.7701391 121.461113,31.4335264 C121.467726,31.3477232 121.490871,30.4006017 121.530548,28.5921336 L121.530548,24.4834995 C121.530548,23.381258 121.510709,22.2427322 121.471032,21.0678879 C121.444581,20.2758581 121.408211,19.8336481 121.361921,19.7412446 C121.328856,19.6752421 121.275954,19.6290411 121.203213,19.6026401 C121.10402,19.5564383 120.647739,19.5333378 119.834357,19.5333378 L119.834357,18.9492188 C121.328864,18.7644118 122.367068,18.5334066 122.948999,18.2561961 C123.034966,18.2165946 123.101094,18.1967942 123.147384,18.1967942 C123.193674,18.1967942 123.230044,18.2116445 123.256496,18.2413456 C123.282947,18.2710468 123.296173,18.3122977 123.296173,18.3650997 C123.296173,18.4113014 123.28956,18.4773029 123.276334,18.5631061 L123.266415,18.8898168 C123.233351,20.0712613 123.213512,21.0777841 123.2069,21.9094154 L123.187061,23.4538658 L123.187061,28.5921336 C123.220125,30.3081982 123.239964,31.2355192 123.246577,31.3741245 C123.253189,31.7041369 123.292866,31.9450423 123.365607,32.0968481 C123.392059,32.1562503 123.431735,32.2074015 123.484638,32.2503031 C123.537541,32.2932047 123.616894,32.3278555 123.7227,32.3542565 C123.76899,32.3608567 124.135998,32.3707569 124.823736,32.3839574 L124.823736,32.9482759 C123.924387,32.8954739 123.134162,32.8690733 122.453037,32.8690733 C121.804977,32.8690733 120.951931,32.8954739 119.893873,32.9482759 L119.893873,32.9482759 Z M130.676088,19.5135372 L130.676088,18.8799165 C131.753985,18.9327185 132.755818,18.9591191 133.681619,18.9591191 C134.620645,18.9591191 135.553044,18.9327185 136.478845,18.8799165 L136.478845,19.5135372 C135.698527,19.5267377 135.222408,19.5613885 135.050474,19.6174906 C134.87854,19.6735927 134.762816,19.7511444 134.703301,19.8501482 C134.617333,19.9821531 134.564431,20.3022604 134.544593,20.8104795 C134.53798,20.9424845 134.524754,21.8797057 134.504916,23.6221713 L134.504916,27.2852909 C134.504916,28.7043444 134.595841,29.6399156 134.777695,30.0920326 C134.959549,30.5441496 135.248857,30.9187081 135.645629,31.2157193 C135.94982,31.4401277 136.359811,31.6199818 136.875614,31.7552869 C137.391418,31.890592 137.966728,31.9582435 138.601562,31.9582435 C139.342203,31.9582435 140.000173,31.8674915 140.575492,31.6859846 C141.15081,31.5044778 141.582293,31.2833728 141.869953,31.022663 C142.157612,30.7619532 142.372527,30.4698966 142.514703,30.1464844 C142.65688,29.8230722 142.759378,29.3792121 142.8222,28.8148909 C142.885022,28.2505696 142.916433,27.5361035 142.916433,26.6714709 L142.916433,23.6221713 C142.916433,22.7245375 142.903207,21.8467177 142.876756,20.9886853 C142.86353,20.3616617 142.818894,19.9904033 142.742846,19.874899 C142.666798,19.7593946 142.542809,19.6735927 142.370874,19.6174906 C142.19894,19.5613885 141.722821,19.5267377 140.942504,19.5135372 L140.942504,18.8799165 C142.033626,18.9327185 142.830463,18.9591191 143.333041,18.9591191 C143.789328,18.9591191 144.612617,18.9327185 145.802932,18.8799165 L145.802932,19.5135372 C145.016001,19.5267377 144.538229,19.5613885 144.369601,19.6174906 C144.200974,19.6735927 144.083597,19.7511444 144.017468,19.8501482 C143.938114,19.9821531 143.888518,20.3022604 143.86868,20.8104795 C143.862067,20.9424845 143.848841,21.8797057 143.829003,23.6221713 L143.829003,26.9387796 C143.829003,28.569041 143.714933,29.7075668 143.486789,30.3543912 C143.258645,31.0012155 142.840388,31.5721285 142.232005,32.0671471 C141.775718,32.436761 141.188835,32.7238675 140.47134,32.9284752 C139.753844,33.1330829 138.95866,33.2353852 138.085762,33.2353852 C137.067381,33.2353852 136.184578,33.1149325 135.437324,32.8740234 C134.690071,32.6331144 134.121374,32.3163072 133.731215,31.9235924 C133.341056,31.5308776 133.073239,31.1299185 132.927756,30.7207031 C132.742596,30.1794827 132.650018,29.2719622 132.650018,27.9981142 L132.650018,23.6221713 C132.650018,22.7245375 132.640098,21.8467177 132.62026,20.9886853 C132.600421,20.3616617 132.552479,19.9904033 132.476431,19.874899 C132.400383,19.7593946 132.278047,19.6735927 132.109419,19.6174906 C131.940791,19.5613885 131.463019,19.5267377 130.676088,19.5135372 L130.676088,19.5135372 Z M146.457602,32.9482759 L146.457602,32.3839574 L147.39993,32.3740571 C147.5388,32.3674569 147.646257,32.3427063 147.722305,32.2998047 C147.798353,32.2569031 147.856215,32.2024518 147.895892,32.1364494 C147.968633,32.0044444 148.014923,31.7701391 148.034761,31.4335264 C148.034761,31.3477232 148.0546,30.4006017 148.094277,28.5921336 L148.094277,27.4139952 C148.094277,26.8859753 148.084358,26.3183624 148.064519,25.7111395 C148.04468,25.3217249 148.01327,25.0907197 147.970286,25.0181169 C147.927303,24.9455142 147.852909,24.891063 147.747103,24.8547616 C147.641297,24.8184602 147.211468,24.8036099 146.457602,24.8102101 L146.457602,24.2458917 C147.7934,24.0610847 148.768782,23.8201793 149.383778,23.5231681 C149.516035,23.4571656 149.605308,23.4241649 149.651598,23.4241649 C149.697888,23.4241649 149.734258,23.4406652 149.760709,23.4736665 C149.787161,23.5066677 149.800386,23.5561689 149.800386,23.6221713 C149.800386,23.6683731 149.79708,23.7211743 149.790467,23.7805765 C149.770628,24.0181855 149.75079,24.5197968 149.730952,25.2854256 L151.57593,23.7112742 C152.118185,23.5132668 152.630674,23.4142645 153.113413,23.4142645 C153.649055,23.4142645 154.156584,23.523167 154.636017,23.7409752 C155.115449,23.9587834 155.475844,24.2326896 155.717214,24.562702 C155.958583,24.8927145 156.118943,25.3085239 156.198297,25.8101428 C156.244587,26.107154 156.267732,26.9354727 156.267732,28.2951239 L156.267732,30.0474811 C156.267732,30.9055134 156.290876,31.4896267 156.337166,31.7998384 C156.370231,31.9978458 156.42148,32.1347989 156.490915,32.2107018 C156.56035,32.2866046 156.667807,32.3344557 156.81329,32.3542565 L157.874649,32.3839574 L157.874649,32.9482759 C157.226589,32.9020741 156.687648,32.8789736 156.257812,32.8789736 C155.887492,32.8789736 155.272505,32.9020741 154.412834,32.9482759 C154.505414,31.3180145 154.551703,30.2883912 154.551703,29.859375 L154.551703,28.1961207 C154.551703,27.1598817 154.512026,26.4800663 154.432672,26.1566541 C154.320253,25.7144374 154.065662,25.3580294 153.66889,25.0874192 C153.272119,24.816809 152.792694,24.6815059 152.2306,24.6815059 C151.734636,24.6815059 151.281662,24.7986586 150.871664,25.0329674 C150.461667,25.2672762 150.169052,25.5378824 149.993811,25.8447939 C149.818571,26.1517055 149.730952,26.6681672 149.730952,27.3941945 L149.730952,28.5921336 C149.770629,30.3081982 149.790467,31.2355192 149.790467,31.3741245 C149.803693,31.7041369 149.843369,31.9450423 149.909498,32.0968481 C149.935949,32.1562503 149.975626,32.2074015 150.028529,32.2503031 C150.081432,32.2932047 150.164091,32.3278555 150.27651,32.3542565 C150.316187,32.3608567 150.679889,32.3707569 151.367626,32.3839574 L151.367626,32.9482759 C150.560857,32.9020741 149.830147,32.8789736 149.175474,32.8789736 C148.619994,32.8789736 147.714045,32.9020741 146.457602,32.9482759 L146.457602,32.9482759 Z M160.87026,19.0086207 C161.181064,19.0086207 161.443922,19.1175232 161.65884,19.3353314 C161.873758,19.5531396 161.981215,19.8171455 161.981215,20.1273572 C161.981215,20.4309687 161.872104,20.6916746 161.65388,20.9094828 C161.435656,21.127291 161.174451,21.2361934 160.87026,21.2361934 C160.559455,21.2361934 160.294945,21.127291 160.076721,20.9094828 C159.858496,20.6916746 159.749386,20.4309687 159.749386,20.1273572 C159.749386,19.8171455 159.858496,19.5531396 160.076721,19.3353314 C160.294945,19.1175232 160.559455,19.0086207 160.87026,19.0086207 L160.87026,19.0086207 Z M158.449965,24.8003098 L158.449965,24.2359914 C159.73286,24.0907859 160.81074,23.8135796 161.683638,23.4043642 L161.901861,23.5627694 C161.848958,24.9686223 161.822507,26.0444467 161.822507,26.7902748 L161.822507,28.5921336 C161.855571,30.3081982 161.87541,31.2355192 161.882022,31.3741245 C161.888635,31.7041369 161.925006,31.9450423 161.991134,32.0968481 C162.024198,32.1562503 162.067181,32.2074015 162.120084,32.2503031 C162.172987,32.2932047 162.25234,32.3278555 162.358146,32.3542565 C162.397823,32.3608567 162.764832,32.3707569 163.459182,32.3839574 L163.459182,32.9482759 C162.454027,32.9020741 161.650577,32.8789736 161.048806,32.8789736 C160.519777,32.8789736 159.653506,32.9020741 158.449965,32.9482759 L158.449965,32.3839574 L159.392293,32.3740571 C159.531163,32.3674569 159.63862,32.3427063 159.714668,32.2998047 C159.790716,32.2569031 159.848578,32.2024518 159.888255,32.1364494 C159.960996,32.0044444 160.007286,31.7701391 160.027124,31.4335264 C160.027124,31.3477232 160.046963,30.4006017 160.08664,28.5921336 L160.08664,26.8496767 C160.08664,25.8662397 160.053576,25.2821265 159.987447,25.0973195 C159.94777,24.9983158 159.876683,24.9240641 159.774184,24.8745622 C159.671684,24.8250604 159.230282,24.8003098 158.449965,24.8003098 L158.449965,24.8003098 Z M168.97428,33.0472791 C168.716379,32.3740537 168.537834,31.9219435 168.438641,31.6909348 L167.625263,29.7999731 L165.591819,25.0775189 C165.459562,24.7805077 165.347145,24.5825032 165.254565,24.4834995 C165.161985,24.3844957 165.059487,24.3217943 164.947068,24.2953933 C164.854488,24.2689923 164.609816,24.2491919 164.213044,24.2359914 L164.213044,23.641972 C165.310779,23.6881737 166.110923,23.7112742 166.613501,23.7112742 C167.168981,23.7112742 167.929449,23.6881737 168.894926,23.641972 L168.894926,24.2359914 C168.180737,24.2557921 167.760827,24.3019932 167.635183,24.3745959 C167.509538,24.4471986 167.446717,24.5462009 167.446717,24.6716056 C167.446717,24.8696131 167.578972,25.2953227 167.843487,25.9487473 L169.053634,28.9584456 L169.341292,29.6316676 C169.665322,30.4170971 169.88685,30.941809 170.005881,31.205819 L170.997805,28.9584456 C171.057321,28.8264406 171.358202,28.0839238 171.900456,26.7308728 C172.217874,25.9454433 172.429482,25.3448297 172.535288,24.929014 C172.561739,24.8168098 172.574965,24.7178075 172.574965,24.6320043 C172.574965,24.5198001 172.531982,24.4405983 172.446015,24.3943966 C172.287306,24.3085933 171.864089,24.2557921 171.176352,24.2359914 L171.176352,23.641972 C172.161668,23.6881737 172.793187,23.7112742 173.070927,23.7112742 C173.302377,23.7112742 173.933896,23.6881737 174.965502,23.641972 L174.965502,24.2359914 C174.555505,24.2557921 174.282728,24.3036432 174.147165,24.3795461 C174.011601,24.4554489 173.877693,24.6122025 173.745435,24.8498114 C173.652855,25.0082174 173.295766,25.7210335 172.674157,26.9882813 L171.72191,29.0178475 C171.556589,29.3808612 170.984585,30.7239916 170.005881,33.0472791 L168.97428,33.0472791 Z M184.160639,31.4137258 L183.843223,32.126549 C183.386936,32.4103597 183.052991,32.598464 182.84138,32.6908675 C182.530575,32.8294727 182.17514,32.9466253 181.775061,33.0423289 C181.374983,33.1380325 180.95342,33.1858836 180.510358,33.1858836 C179.637461,33.1858836 178.847236,33.0043795 178.139659,32.6413658 C177.432083,32.2783522 176.881571,31.7354899 176.488106,31.0127627 C176.09464,30.2900354 175.897911,29.4435663 175.897911,28.4733297 C175.897911,27.7143012 176.002062,27.0295356 176.210367,26.4190127 C176.418672,25.8084897 176.655078,25.3580295 176.919593,25.0676185 C177.111366,24.8564106 177.40894,24.6138551 177.812324,24.3399448 C178.215709,24.0660345 178.615781,23.8498796 179.012553,23.6914736 C179.534969,23.4736654 180.10036,23.3647629 180.708743,23.3647629 C181.449383,23.3647629 182.118925,23.5330667 182.717389,23.8696794 C183.315853,24.2062921 183.753949,24.6650025 184.031689,25.2458244 C184.309429,25.8266462 184.448297,26.4833611 184.448297,27.2159887 C184.448297,27.4007956 184.435072,27.6252007 184.40862,27.8892107 C183.932494,27.9816141 183.505971,28.0410155 183.129038,28.0674165 C182.414849,28.1202185 181.700671,28.1466191 180.986482,28.1466191 L177.802405,28.1466191 C177.815631,29.0904546 177.979297,29.8544219 178.293408,30.4385439 C178.607519,31.0226659 179.040654,31.4533257 179.592828,31.7305361 C180.145002,32.0077465 180.718659,32.1463497 181.313817,32.1463497 C181.717201,32.1463497 182.118926,32.0819982 182.519005,31.9532934 C182.919083,31.8245885 183.413387,31.5886332 184.001931,31.2454203 L184.160639,31.4137258 Z M177.802405,27.3644935 C177.987565,27.3842943 178.338042,27.4040947 178.853845,27.4238955 C179.839161,27.4568967 180.516969,27.4733971 180.887289,27.4733971 C181.7668,27.4733971 182.345416,27.4568967 182.623157,27.4238955 C182.629769,27.2654895 182.633076,27.1433867 182.633076,27.0575835 C182.633076,26.0147442 182.421467,25.2491269 181.998244,24.7607085 C181.575021,24.2722901 181.00963,24.0280846 180.302054,24.0280846 C179.554801,24.0280846 178.95304,24.2953906 178.496752,24.8300108 C178.040465,25.3646309 177.809018,26.20945 177.802405,27.3644935 L177.802405,27.3644935 Z M185.58901,32.9482759 L185.58901,32.3839574 C186.336263,32.3707569 186.739642,32.3575566 186.799157,32.3443561 C186.911576,32.3245554 186.995889,32.2932047 187.052098,32.2503031 C187.108307,32.2074015 187.152943,32.1463501 187.186008,32.0671471 C187.252136,31.9153414 187.291813,31.677736 187.305039,31.3543238 C187.344716,29.5920575 187.364554,28.6713366 187.364554,28.5921336 L187.364554,27.4139952 C187.364554,26.8859753 187.354635,26.3183624 187.334796,25.7111395 C187.321571,25.3217249 187.293466,25.0907197 187.250483,25.0181169 C187.207499,24.9455142 187.131452,24.891063 187.02234,24.8547616 C186.913228,24.8184602 186.481745,24.8036099 185.727879,24.8102101 L185.727879,24.2458917 C187.063677,24.0610847 188.039059,23.8201793 188.654055,23.5231681 C188.786313,23.4571656 188.875585,23.4241649 188.921875,23.4241649 C188.968165,23.4241649 189.004535,23.4406652 189.030987,23.4736665 C189.057438,23.5066677 189.070664,23.5561689 189.070664,23.6221713 C189.070664,23.6683731 189.067357,23.7211743 189.060744,23.7805765 C189.02768,24.1831917 189.007842,24.8069058 189.001229,25.6517376 C189.298808,25.3085247 189.573237,24.968617 189.824526,24.6320043 C190.075815,24.2953916 190.257666,24.0775867 190.370084,23.978583 C190.56847,23.8069765 190.79661,23.6700234 191.054512,23.5677196 C191.312414,23.4654157 191.58023,23.4142645 191.857971,23.4142645 C192.135711,23.4142645 192.41014,23.4736659 192.681268,23.5924704 L192.740783,23.7310749 C192.64159,24.6089079 192.585382,25.3811254 192.572156,26.0477505 L192.12579,26.0477505 C191.973694,25.7309386 191.796803,25.4999334 191.595111,25.3547279 C191.393418,25.2095224 191.14048,25.1369208 190.836289,25.1369208 C190.327098,25.1369208 189.893962,25.3464755 189.536868,25.7655913 C189.179773,26.1847071 189.001229,26.8133713 189.001229,27.6516029 L189.001229,28.6713362 C189.001229,29.1069526 189.017761,29.9022706 189.050825,31.0573141 C189.057438,31.4665295 189.07397,31.7272354 189.100421,31.8394397 C189.126873,31.9516439 189.16159,32.0324957 189.204573,32.0819976 C189.247557,32.1314994 189.318644,32.1727504 189.417837,32.2057516 C189.616223,32.2651539 190.151857,32.3245552 191.024754,32.3839574 L191.024754,32.9482759 C189.860891,32.9020741 188.868976,32.8789736 188.048982,32.8789736 C187.202536,32.8789736 186.382553,32.9020741 185.58901,32.9482759 L185.58901,32.9482759 Z M194.069961,29.9583782 L194.665116,29.9583782 C194.671729,30.3411926 194.691567,30.6447995 194.724631,30.869208 C194.757696,31.0936164 194.813904,31.3130714 194.893258,31.5275795 C194.972613,31.7420875 195.094949,31.9235917 195.26027,32.0720973 C195.425592,32.2206028 195.60579,32.3361055 195.800869,32.4186086 C195.995948,32.5011117 196.194331,32.5555629 196.396024,32.5819639 C196.597716,32.6083649 196.903556,32.6215652 197.313553,32.6215652 C197.988065,32.6215652 198.541884,32.4433612 198.975026,32.0869477 C199.408169,31.7305343 199.624737,31.2421233 199.624737,30.6216999 C199.624737,30.3444895 199.556956,30.1002839 199.421392,29.889076 C199.285829,29.677868 199.090752,29.5128643 198.836157,29.3940598 C198.581562,29.2752553 198.034356,29.1201518 197.194522,28.9287446 C196.354689,28.7373374 195.812443,28.5987343 195.567767,28.512931 C195.197447,28.3743258 194.903179,28.206022 194.684954,28.0080145 C194.46673,27.8100071 194.293145,27.5592014 194.164194,27.25559 C194.035243,26.9519785 193.970769,26.6219711 193.970769,26.2655577 C193.970769,25.744138 194.107984,25.2639771 194.382417,24.8250606 C194.656851,24.3861441 195.088334,24.029736 195.676879,23.7558257 C196.265423,23.4819154 196.906861,23.3449623 197.601211,23.3449623 C198.017822,23.3449623 198.500553,23.4027136 199.049421,23.5182179 C199.598288,23.6337223 200.044649,23.7772755 200.388518,23.948882 C200.342228,24.6815096 200.309164,25.4273265 200.289326,26.1863551 L199.723929,26.1863551 C199.690865,25.7045369 199.652841,25.3877297 199.609858,25.235924 C199.566874,25.0841183 199.509013,24.9488152 199.436271,24.8300108 C199.36353,24.7112063 199.237887,24.5841534 199.05934,24.4488483 C198.880793,24.3135432 198.650999,24.1930905 198.369953,24.0874865 C198.088906,23.9818826 197.743389,23.9290814 197.333392,23.9290814 C196.75146,23.9290814 196.283607,24.1006852 195.929819,24.4438982 C195.576031,24.7871111 195.39914,25.1897202 195.39914,25.6517376 C195.39914,25.9091473 195.450389,26.1302523 195.552888,26.3150593 C195.655387,26.4998662 195.792602,26.6500196 195.964537,26.765524 C196.136471,26.8810283 196.377837,26.9849807 196.688641,27.0773842 L198.335235,27.4832974 C199.168456,27.6945054 199.742113,27.8760095 200.056224,28.0278152 C200.370335,28.1796209 200.623273,28.4155763 200.815046,28.7356883 C201.006819,29.0558004 201.102704,29.4402591 201.102704,29.889076 C201.102704,30.7801095 200.734042,31.5572771 199.996708,32.2206021 C199.259374,32.8839271 198.27242,33.2155846 197.035815,33.2155846 C196.467109,33.2155846 195.709947,33.1297826 194.764308,32.9581762 C194.241892,32.8591725 193.96085,32.7898709 193.921173,32.7502694 C193.894721,32.7304687 193.881496,32.6974679 193.881496,32.6512662 C193.881496,32.6050644 193.888109,32.5489632 193.901334,32.4829607 C193.96085,32.19915 194.000527,31.9219437 194.020365,31.6513335 C194.040204,31.3807233 194.056736,30.8164105 194.069961,29.9583782 L194.069961,29.9583782 Z M204.624034,19.0086207 C204.934839,19.0086207 205.197696,19.1175232 205.412614,19.3353314 C205.627532,19.5531396 205.734989,19.8171455 205.734989,20.1273572 C205.734989,20.4309687 205.625879,20.6916746 205.407654,20.9094828 C205.18943,21.127291 204.928226,21.2361934 204.624034,21.2361934 C204.31323,21.2361934 204.048719,21.127291 203.830495,20.9094828 C203.612271,20.6916746 203.50316,20.4309687 203.50316,20.1273572 C203.50316,19.8171455 203.612271,19.5531396 203.830495,19.3353314 C204.048719,19.1175232 204.31323,19.0086207 204.624034,19.0086207 L204.624034,19.0086207 Z M202.203739,24.8003098 L202.203739,24.2359914 C203.486634,24.0907859 204.564515,23.8135796 205.437412,23.4043642 L205.655636,23.5627694 C205.602733,24.9686223 205.576282,26.0444467 205.576282,26.7902748 L205.576282,28.5921336 C205.609346,30.3081982 205.629184,31.2355192 205.635797,31.3741245 C205.64241,31.7041369 205.67878,31.9450423 205.744909,32.0968481 C205.777973,32.1562503 205.820956,32.2074015 205.873859,32.2503031 C205.926762,32.2932047 206.006115,32.3278555 206.111921,32.3542565 C206.151598,32.3608567 206.518606,32.3707569 207.212956,32.3839574 L207.212956,32.9482759 C206.207802,32.9020741 205.404351,32.8789736 204.802581,32.8789736 C204.273552,32.8789736 203.40728,32.9020741 202.203739,32.9482759 L202.203739,32.3839574 L203.146067,32.3740571 C203.284937,32.3674569 203.392395,32.3427063 203.468443,32.2998047 C203.544491,32.2569031 203.602352,32.2024518 203.642029,32.1364494 C203.714771,32.0044444 203.76106,31.7701391 203.780899,31.4335264 C203.780899,31.3477232 203.800737,30.4006017 203.840414,28.5921336 L203.840414,26.8496767 C203.840414,25.8662397 203.807351,25.2821265 203.741222,25.0973195 C203.701545,24.9983158 203.630458,24.9240641 203.527958,24.8745622 C203.425459,24.8250604 202.984057,24.8003098 202.203739,24.8003098 L202.203739,24.8003098 Z M208.125527,25.1864224 L208.125527,24.7706088 C208.786813,24.5197994 209.312527,24.2953943 209.702686,24.0973869 C209.702686,22.5265277 209.682848,21.523305 209.643171,21.0876886 C210.330908,20.8500796 210.889687,20.5959739 211.319522,20.3253637 L211.557584,20.5233702 C211.484843,21.0711908 211.40549,22.2790181 211.319522,24.1468885 C211.848551,24.1534887 212.165964,24.1567888 212.27177,24.1567888 C212.331285,24.1567888 212.671843,24.1501886 213.293452,24.1369881 C213.63732,24.1303879 213.895218,24.1171876 214.067152,24.0973869 L214.136587,24.1666891 L213.928283,25.0874192 C213.511673,25.0808189 213.128133,25.0775189 212.777651,25.0775189 C212.427169,25.0775189 211.941131,25.0808189 211.319522,25.0874192 L211.260007,29.1168508 C211.240168,30.1002878 211.246781,30.6877011 211.279846,30.8791083 C211.31291,31.0705155 211.375731,31.2371693 211.468311,31.3790746 C211.560891,31.52098 211.681574,31.6348325 211.830363,31.7206358 C211.979153,31.806439 212.232091,31.8724405 212.589185,31.9186422 C212.860313,31.9186422 213.080187,31.907092 213.248815,31.8839911 C213.417443,31.8608902 213.630704,31.8031389 213.888606,31.7107355 L214.007637,32.0968481 C213.696832,32.3410573 213.395952,32.595163 213.104986,32.859173 C212.853697,32.9515764 212.618944,33.0126278 212.40072,33.0423289 C212.182495,33.0720301 211.93121,33.0868804 211.646857,33.0868804 C211.296376,33.0868804 211.016987,33.0472795 210.808682,32.9680765 C210.600376,32.8888735 210.41026,32.778321 210.238325,32.6364157 C210.066391,32.4945103 209.924216,32.3146563 209.811798,32.0968481 C209.699379,31.8790399 209.626639,31.5358321 209.593574,31.0672144 C209.600187,30.6183975 209.613413,30.1266864 209.633251,29.5920663 C209.639864,29.4864623 209.643171,29.3709597 209.643171,29.245555 L209.643171,25.1369208 L209.236482,25.1369208 C208.905839,25.1369208 208.535524,25.1534212 208.125527,25.1864224 L208.125527,25.1864224 Z M214.741661,38.2449488 L215.247542,36.720299 L215.485604,36.720299 C215.611248,36.825903 215.718706,36.9100549 215.807979,36.9727573 C215.897253,37.0354596 215.993138,37.0833107 216.095637,37.116312 C216.198137,37.1493132 216.348577,37.1658136 216.546963,37.1658136 C216.751961,37.1658136 216.951998,37.1212626 217.147077,37.0321592 C217.342156,36.9430559 217.524007,36.8028027 217.692635,36.6113955 C217.861263,36.4199883 218.061299,36.0899808 218.292749,35.6213631 C218.643231,34.9151366 218.957337,34.1957203 219.235077,33.4630927 C219.023466,32.8690703 218.768874,32.2024552 218.471296,31.4632274 L216.894136,27.5625 C216.424623,26.4008563 216.041083,25.5098361 215.743504,24.8894127 C215.624473,24.6452035 215.497177,24.4818498 215.361613,24.3993467 C215.22605,24.3168436 214.923516,24.2491921 214.454003,24.1963901 L214.454003,23.641972 C215.273998,23.6881737 216.084061,23.7112742 216.884217,23.7112742 C217.664535,23.7112742 218.415083,23.6881737 219.135885,23.641972 L219.135885,24.1963901 C218.45476,24.2425918 218.064607,24.2854928 217.965414,24.3250943 C217.79348,24.3910968 217.707514,24.5098995 217.707514,24.6815059 C217.707514,24.7871099 217.763723,25.0049148 217.876141,25.3349273 C218.134043,26.1467578 218.378715,26.8397735 218.610165,27.4139952 L219.235077,28.9584456 C219.61201,29.8824804 219.929423,30.6315973 220.187324,31.205819 L220.713044,30.0375808 C220.918043,29.5755634 221.278438,28.6977435 221.794242,27.4040948 C222.310045,26.1104461 222.610925,25.311828 222.696893,25.0082166 C222.723344,24.9026126 222.73657,24.8102105 222.73657,24.7310075 C222.73657,24.6056028 222.685321,24.5082506 222.582821,24.438948 C222.480322,24.3696454 222.081903,24.3019939 221.387553,24.2359914 L221.387553,23.641972 C222.154645,23.6881737 222.832453,23.7112742 223.420997,23.7112742 C224.016155,23.7112742 224.60469,23.6881737 225.186622,23.641972 L225.08743,24.2359914 C224.750174,24.2491919 224.48897,24.3217935 224.30381,24.4537985 C224.11865,24.5858035 223.83926,25.0296635 223.465634,25.785392 C223.092007,26.5411204 222.39932,28.0278041 221.387553,30.2454876 L219.096208,35.5916622 C218.725888,36.4562947 218.405169,37.0734087 218.134041,37.4430226 C217.862914,37.8126365 217.538889,38.0931429 217.161956,38.2845501 C216.785023,38.4759573 216.371725,38.5716595 215.922051,38.5716595 C215.703826,38.5716595 215.507096,38.5469089 215.331856,38.4974071 C215.156615,38.4479052 214.959885,38.3637533 214.741661,38.2449488 L214.741661,38.2449488 Z" id="Cornell-University" fill="#B31B1B" sketch:type="MSShapeGroup"></path>
        </g>
    </g>
</svg>